Public Sans-Black.ufo
<glyph name="exclam" format="2">
	<advance width="635"/>
	<unicode hex="0021"/>
	<outline>
		<contour>
			<point x="512" y="393" type="line"/>
			<point x="92" y="393" type="line"/>
			<point x="92" y="0" type="line"/>
			<point x="512" y="0" type="line"/>
		</contour>
		<contour>
			<point x="532" y="1481" type="line"/>
			<point x="72" y="1481" type="line"/>
			<point x="184" y="530" type="line"/>
			<point x="428" y="530" type="line"/>
		</contour>
	</outline>
</glyph>
<glyph name="numbersign" format="2">
	<advance width="1286"/>
	<unicode hex="0023"/>
	<outline>
		<contour>
			<point x="612" y="1466" type="line"/>
			<point x="422" y="1485" type="line"/>
			<point x="207" y="18" type="line"/>
			<point x="399" y="-6" type="line"/>
		</contour>
		<contour>
			<point x="1061" y="1466" type="line"/>
			<point x="868" y="1485" type="line"/>
			<point x="653" y="18" type="line"/>
			<point x="848" y="-6" type="line"/>
		</contour>
		<contour>
			<point x="1159" y="635" type="line"/>
			<point x="41" y="635" type="line"/>
			<point x="41" y="442" type="line"/>
			<point x="1159" y="442" type="line"/>
		</contour>
		<contour>
			<point x="1225" y="1055" type="line"/>
			<point x="106" y="1055" type="line"/>
			<point x="106" y="862" type="line"/>
			<point x="1225" y="862" type="line"/>
		</contour>
	</outline>
</glyph>
<glyph name="dollar" format="2">
	<advance width="1436"/>
	<unicode hex="0024"/>
	<outline>
		<contour>
			<point x="752" y="-20" type="curve" smooth="yes"/>
			<point x="1122" y="-20"/>
			<point x="1354" y="147"/>
			<point x="1354" y="420" type="curve" smooth="yes"/>
			<point x="1354" y="670"/>
			<point x="1231" y="840"/>
			<point x="944" y="899" type="curve" smooth="yes"/>
			<point x="713" y="946" type="line" smooth="yes"/>
			<point x="584" y="973"/>
			<point x="551" y="1008"/>
			<point x="551" y="1075" type="curve" smooth="yes"/>
			<point x="551" y="1128"/>
			<point x="598" y="1192"/>
			<point x="754" y="1192" type="curve" smooth="yes"/>
			<point x="893" y="1192"/>
			<point x="918" y="1122"/>
			<point x="926" y="1032" type="curve"/>
			<point x="1329" y="1032" type="line"/>
			<point x="1343" y="1296"/>
			<point x="1108" y="1499"/>
			<point x="745" y="1499" type="curve" smooth="yes"/>
			<point x="403" y="1499"/>
			<point x="121" y="1325"/>
			<point x="125" y="1026" type="curve" smooth="yes"/>
			<point x="129" y="774"/>
			<point x="283" y="627"/>
			<point x="514" y="590" type="curve" smooth="yes"/>
			<point x="745" y="551" type="line" smooth="yes"/>
			<point x="870" y="530"/>
			<point x="932" y="510"/>
			<point x="932" y="420" type="curve" smooth="yes"/>
			<point x="932" y="348"/>
			<point x="874" y="285"/>
			<point x="750" y="285" type="curve" smooth="yes"/>
			<point x="610" y="285"/>
			<point x="518" y="346"/>
			<point x="496" y="451" type="curve"/>
			<point x="82" y="451" type="line"/>
			<point x="109" y="121"/>
			<point x="358" y="-20"/>
		</contour>
		<contour>
			<point x="580" y="1683" type="line"/>
			<point x="580" y="1417" type="line"/>
			<point x="913" y="1417" type="line"/>
			<point x="913" y="1683" type="line"/>
		</contour>
		<contour>
			<point x="580" y="88" type="line"/>
			<point x="580" y="-178" type="line"/>
			<point x="913" y="-178" type="line"/>
			<point x="913" y="88" type="line"/>
		</contour>
	</outline>
</glyph>
<glyph name="percent" format="2">
	<advance width="1989"/>
	<unicode hex="0025"/>
	<outline>
		<contour>
			<point x="479" y="1503" type="curve" smooth="yes"/>
			<point x="258" y="1503"/>
			<point x="82" y="1298"/>
			<point x="82" y="1079" type="curve" smooth="yes"/>
			<point x="82" y="864"/>
			<point x="254" y="668"/>
			<point x="479" y="668" type="curve" smooth="yes"/>
			<point x="702" y="668"/>
			<point x="872" y="864"/>
			<point x="872" y="1079" type="curve" smooth="yes"/>
			<point x="872" y="1298"/>
			<point x="698" y="1503"/>
		</contour>
		<contour>
			<point x="477" y="862" type="curve" smooth="yes"/>
			<point x="395" y="862"/>
			<point x="371" y="936"/>
			<point x="371" y="1079" type="curve" smooth="yes"/>
			<point x="371" y="1229"/>
			<point x="397" y="1311"/>
			<point x="477" y="1311" type="curve" smooth="yes"/>
			<point x="557" y="1311"/>
			<point x="584" y="1231"/>
			<point x="584" y="1079" type="curve" smooth="yes"/>
			<point x="584" y="936"/>
			<point x="561" y="862"/>
		</contour>
		<contour>
			<point x="1491" y="817" type="curve" smooth="yes"/>
			<point x="1270" y="817"/>
			<point x="1094" y="610"/>
			<point x="1094" y="393" type="curve" smooth="yes"/>
			<point x="1094" y="178"/>
			<point x="1266" y="-20"/>
			<point x="1491" y="-20" type="curve" smooth="yes"/>
			<point x="1716" y="-20"/>
			<point x="1886" y="178"/>
			<point x="1886" y="393" type="curve" smooth="yes"/>
			<point x="1886" y="610"/>
			<point x="1712" y="817"/>
		</contour>
		<contour>
			<point x="1489" y="176" type="curve" smooth="yes"/>
			<point x="1407" y="176"/>
			<point x="1384" y="250"/>
			<point x="1384" y="391" type="curve" smooth="yes"/>
			<point x="1384" y="541"/>
			<point x="1409" y="623"/>
			<point x="1489" y="623" type="curve" smooth="yes"/>
			<point x="1569" y="623"/>
			<point x="1595" y="543"/>
			<point x="1595" y="391" type="curve" smooth="yes"/>
			<point x="1595" y="250"/>
			<point x="1573" y="176"/>
		</contour>
		<component base="fraction" xOffset="722"/>
	</outline>
</glyph>
<glyph name="ampersand" format="2">
	<advance width="1745"/>
	<unicode hex="0026"/>
	<guideline x="317" y="298" angle="130.8357"/>
	<guideline x="405" y="441" angle="310.2049"/>
	<outline>
		<contour>
			<point x="811" y="1503" type="curve" smooth="yes"/>
			<point x="522" y="1503"/>
			<point x="324" y="1348"/>
			<point x="324" y="1139" type="curve" smooth="yes"/>
			<point x="324" y="1008"/>
			<point x="399" y="944"/>
			<point x="496" y="834" type="curve"/>
			<point x="236" y="696"/>
			<point x="102" y="582"/>
			<point x="102" y="371" type="curve" smooth="yes"/>
			<point x="102" y="150"/>
			<point x="250" y="-10"/>
			<point x="608" y="-10" type="curve" smooth="yes"/>
			<point x="748" y="-10"/>
			<point x="930" y="18"/>
			<point x="1098" y="127" type="curve"/>
			<point x="1208" y="0" type="line"/>
			<point x="1663" y="0" type="line"/>
			<point x="1331" y="387" type="line"/>
			<point x="1413" y="543"/>
			<point x="1563" y="725"/>
			<point x="1634" y="881" type="curve"/>
			<point x="1221" y="881" type="line"/>
			<point x="1200" y="793"/>
			<point x="1165" y="680"/>
			<point x="1147" y="612" type="curve"/>
			<point x="999" y="786" type="line"/>
			<point x="1165" y="897"/>
			<point x="1307" y="1020"/>
			<point x="1307" y="1176" type="curve" smooth="yes"/>
			<point x="1307" y="1368"/>
			<point x="1094" y="1503"/>
		</contour>
		<contour>
			<point x="831" y="1274" type="curve" smooth="yes"/>
			<point x="905" y="1278"/>
			<point x="965" y="1235"/>
			<point x="965" y="1155" type="curve" smooth="yes"/>
			<point x="965" y="1094"/>
			<point x="930" y="1040"/>
			<point x="840" y="977" type="curve"/>
			<point x="793" y="1026" type="line"/>
			<point x="735" y="1087"/>
			<point x="715" y="1130"/>
			<point x="715" y="1167" type="curve"/>
			<point x="715" y="1227"/>
			<point x="762" y="1270"/>
		</contour>
		<contour>
			<point x="686" y="612" type="curve"/>
			<point x="909" y="356" type="line"/>
			<point x="852" y="305"/>
			<point x="758" y="287"/>
			<point x="711" y="287" type="curve" smooth="yes"/>
			<point x="655" y="287"/>
			<point x="571" y="319"/>
			<point x="551" y="399" type="curve" smooth="yes"/>
			<point x="528" y="494"/>
			<point x="608" y="567"/>
		</contour>
	</outline>
</glyph>
<glyph name="quotesingle" format="2">
	<advance width="559"/>
	<unicode hex="0027"/>
	<outline>
		<contour>
			<point x="467" y="1481" type="line"/>
			<point x="92" y="1481" type="line"/>
			<point x="186" y="821" type="line"/>
			<point x="373" y="821" type="line"/>
		</contour>
	</outline>
</glyph>
<glyph name="parenleft" format="2">
	<advance width="739"/>
	<unicode hex="0028"/>
	<outline>
		<contour>
			<point x="678" y="1481" type="curve"/>
			<point x="393" y="1481" type="line"/>
			<point x="217" y="1225"/>
			<point x="102" y="911"/>
			<point x="102" y="569" type="curve" smooth="yes"/>
			<point x="102" y="217"/>
			<point x="221" y="-41"/>
			<point x="395" y="-330" type="curve"/>
			<point x="678" y="-330" type="line"/>
			<point x="528" y="-18"/>
			<point x="446" y="254"/>
			<point x="446" y="567" type="curve" smooth="yes"/>
			<point x="446" y="895"/>
			<point x="535" y="1212"/>
		</contour>
	</outline>
</glyph>
<glyph name="asterisk" format="2">
	<advance width="1116"/>
	<unicode hex="002A"/>
	<outline>
		<contour>
			<point x="723" y="561" type="line"/>
			<point x="928" y="702" type="line"/>
			<point x="705" y="965" type="line"/>
			<point x="1024" y="1051" type="line"/>
			<point x="952" y="1276" type="line"/>
			<point x="637" y="1135" type="line"/>
			<point x="672" y="1481" type="line"/>
			<point x="426" y="1481" type="line"/>
			<point x="453" y="1137" type="line"/>
			<point x="143" y="1278" type="line"/>
			<point x="61" y="1055" type="line"/>
			<point x="391" y="965" type="line"/>
			<point x="164" y="700" type="line"/>
			<point x="367" y="557" type="line"/>
			<point x="545" y="860" type="line"/>
		</contour>
	</outline>
</glyph>
<glyph name="plus" format="2">
	<advance width="1268"/>
	<unicode hex="002B"/>
	<outline>
		<contour>
			<point x="1155" y="887" type="line"/>
			<point x="113" y="887" type="line"/>
			<point x="113" y="604" type="line"/>
			<point x="1155" y="604" type="line"/>
		</contour>
		<contour>
			<point x="776" y="225" type="line"/>
			<point x="776" y="1268" type="line"/>
			<point x="494" y="1268" type="line"/>
			<point x="494" y="225" type="line"/>
		</contour>
	</outline>
</glyph>
<glyph name="comma" format="1">
  <advance width="618"/>
  <unicode hex="002C"/>
  <outline>
    <contour>
      <point x="100" y="-306" type="line"/>
      <point x="228" y="-306" type="line"/>
      <point x="458" y="40" type="line"/>
      <point x="458" y="340" type="line"/>
      <point x="104" y="340" type="line"/>
      <point x="104" y="2" type="line"/>
      <point x="220" y="-12" type="line"/>
    </contour>
  </outline>
</glyph>
<glyph name="hyphen" format="1">
  <advance width="820"/>
  <unicode hex="002D"/>
  <outline>
    <contour>
      <point x="690" y="650" type="line"/>
      <point x="110" y="650" type="line"/>
      <point x="110" y="376" type="line"/>
      <point x="690" y="376" type="line"/>
    </contour>
  </outline>
</glyph>
<glyph name="period" format="1">
  <advance width="620"/>
  <unicode hex="002E"/>
  <outline>
    <contour>
      <point x="90" y="0" type="line"/>
      <point x="500" y="0" type="line"/>
      <point x="500" y="392" type="line"/>
      <point x="90" y="392" type="line"/>
    </contour>
  </outline>
</glyph>
<glyph name="slash" format="1">
  <advance width="818"/>
  <unicode hex="002F"/>
  <outline>
    <contour>
      <point x="20" y="0" type="line"/>
      <point x="278" y="0" type="line"/>
      <point x="788" y="1446" type="line"/>
      <point x="530" y="1446" type="line"/>
    </contour>
  </outline>
</glyph>
<glyph name="zero" format="1">
  <advance width="1308"/>
  <unicode hex="0030"/>
  <outline>
    <contour>
      <point x="656" y="1468" type="curve" smooth="yes"/>
      <point x="282" y="1468"/>
      <point x="60" y="1190"/>
      <point x="60" y="720" type="curve" smooth="yes"/>
      <point x="60" y="252"/>
      <point x="276" y="-16"/>
      <point x="656" y="-16" type="curve" smooth="yes"/>
      <point x="1034" y="-16"/>
      <point x="1248" y="252"/>
      <point x="1248" y="720" type="curve" smooth="yes"/>
      <point x="1248" y="1190"/>
      <point x="1028" y="1468"/>
    </contour>
    <contour>
      <point x="654" y="288" type="curve" smooth="yes"/>
      <point x="512" y="288"/>
      <point x="462" y="404"/>
      <point x="462" y="718" type="curve" smooth="yes"/>
      <point x="462" y="1042"/>
      <point x="514" y="1168"/>
      <point x="654" y="1168" type="curve" smooth="yes"/>
      <point x="794" y="1168"/>
      <point x="846" y="1044"/>
      <point x="846" y="718" type="curve" smooth="yes"/>
      <point x="846" y="402"/>
      <point x="798" y="288"/>
    </contour>
  </outline>
</glyph>
<glyph name="one" format="1">
  <advance width="880"/>
  <unicode hex="0031"/>
  <outline>
    <contour>
      <point x="310" y="0" type="line"/>
      <point x="700" y="0" type="line"/>
      <point x="700" y="1446" type="line"/>
      <point x="450" y="1446" type="line"/>
      <point x="430" y="1316"/>
      <point x="308" y="1226"/>
      <point x="70" y="1226" type="curve"/>
      <point x="70" y="1022" type="line"/>
      <point x="310" y="1022" type="line"/>
    </contour>
  </outline>
</glyph>
<glyph name="two" format="2">
	<advance width="1368"/>
	<unicode hex="0032"/>
	<outline>
		<contour>
			<point x="102" y="0" type="line"/>
			<point x="1278" y="0" type="line"/>
			<point x="1278" y="328" type="line"/>
			<point x="547" y="328" type="line"/>
			<point x="547" y="328" type="line" smooth="yes"/>
			<point x="547" y="565"/>
			<point x="1288" y="512"/>
			<point x="1288" y="1030" type="curve" smooth="yes"/>
			<point x="1288" y="1311"/>
			<point x="1069" y="1501"/>
			<point x="705" y="1501" type="curve" smooth="yes"/>
			<point x="281" y="1501"/>
			<point x="80" y="1266"/>
			<point x="80" y="958" type="curve"/>
			<point x="455" y="958" type="line"/>
			<point x="485" y="1122"/>
			<point x="588" y="1180"/>
			<point x="696" y="1180" type="curve" smooth="yes"/>
			<point x="805" y="1180"/>
			<point x="870" y="1114"/>
			<point x="870" y="1026" type="curve" smooth="yes"/>
			<point x="870" y="774"/>
			<point x="102" y="786"/>
			<point x="102" y="266" type="curve" smooth="yes"/>
			<point x="102" y="176" type="line"/>
		</contour>
	</outline>
</glyph>
<glyph name="three" format="1">
  <advance width="1332"/>
  <unicode hex="0033"/>
  <outline>
    <contour>
      <point x="50" y="980" type="curve"/>
      <point x="416" y="980" type="line"/>
      <point x="432" y="1134"/>
      <point x="514" y="1174"/>
      <point x="636" y="1174" type="curve" smooth="yes"/>
      <point x="740" y="1174"/>
      <point x="842" y="1136"/>
      <point x="842" y="1046" type="curve" smooth="yes"/>
      <point x="842" y="956"/>
      <point x="774" y="908"/>
      <point x="650" y="898" type="curve" smooth="yes"/>
      <point x="524" y="888" type="line"/>
      <point x="524" y="588" type="line"/>
      <point x="670" y="580" type="line" smooth="yes"/>
      <point x="794" y="574"/>
      <point x="870" y="514"/>
      <point x="870" y="436" type="curve" smooth="yes"/>
      <point x="870" y="348"/>
      <point x="788" y="284"/>
      <point x="640" y="284" type="curve" smooth="yes"/>
      <point x="538" y="284"/>
      <point x="446" y="324"/>
      <point x="418" y="476" type="curve"/>
      <point x="50" y="476" type="line"/>
      <point x="50" y="162"/>
      <point x="248" y="-20"/>
      <point x="640" y="-20" type="curve" smooth="yes"/>
      <point x="980" y="-20"/>
      <point x="1282" y="118"/>
      <point x="1282" y="420" type="curve" smooth="yes"/>
      <point x="1282" y="622"/>
      <point x="1134" y="720"/>
      <point x="1000" y="756" type="curve"/>
      <point x="1186" y="818"/>
      <point x="1254" y="922"/>
      <point x="1254" y="1064" type="curve" smooth="yes"/>
      <point x="1254" y="1352"/>
      <point x="990" y="1466"/>
      <point x="646" y="1466" type="curve" smooth="yes"/>
      <point x="308" y="1466"/>
      <point x="50" y="1318"/>
    </contour>
  </outline>
</glyph>
<glyph name="four" format="2">
	<advance width="1419"/>
	<unicode hex="0034"/>
	<guideline x="236" y="297" angle="53.388"/>
	<outline>
		<contour>
			<point x="741" y="1481" type="line"/>
			<point x="80" y="594" type="line"/>
			<point x="80" y="283" type="line"/>
			<point x="748" y="283" type="line"/>
			<point x="746" y="0" type="line"/>
			<point x="1126" y="0" type="line"/>
			<point x="1126" y="283" type="line"/>
			<point x="1339" y="283" type="line"/>
			<point x="1339" y="608" type="line"/>
			<point x="1126" y="608" type="line"/>
			<point x="1126" y="1481" type="line"/>
		</contour>
		<contour>
			<point x="442" y="608" type="line"/>
			<point x="752" y="1020" type="line"/>
			<point x="752" y="608" type="line"/>
		</contour>
	</outline>
</glyph>
<glyph name="five" format="2">
	<advance width="1442"/>
	<unicode hex="0035"/>
	<outline>
		<contour>
			<point x="248" y="1481" type="line"/>
			<point x="179" y="745" type="line"/>
			<point x="449" y="600" type="line" smooth="yes"/>
			<point x="478" y="586"/>
			<point x="480" y="586"/>
			<point x="508" y="598" type="curve" smooth="yes"/>
			<point x="598" y="637"/>
			<point x="645" y="651"/>
			<point x="709" y="651" type="curve" smooth="yes"/>
			<point x="863" y="651"/>
			<point x="947" y="561"/>
			<point x="947" y="469" type="curve" smooth="yes"/>
			<point x="947" y="371"/>
			<point x="850" y="291"/>
			<point x="703" y="291" type="curve" smooth="yes"/>
			<point x="543" y="291"/>
			<point x="465" y="385"/>
			<point x="377" y="498" type="curve"/>
			<point x="80" y="297" type="line"/>
			<point x="189" y="115"/>
			<point x="441" y="-20"/>
			<point x="750" y="-20" type="curve" smooth="yes"/>
			<point x="1127" y="-20"/>
			<point x="1362" y="166"/>
			<point x="1362" y="483" type="curve" smooth="yes"/>
			<point x="1362" y="788"/>
			<point x="1143" y="967"/>
			<point x="822" y="967" type="curve" smooth="yes"/>
			<point x="719" y="967"/>
			<point x="650" y="948"/>
			<point x="531" y="915" type="curve"/>
			<point x="553" y="1161" type="line"/>
			<point x="1243" y="1161" type="line"/>
			<point x="1260" y="1481" type="line"/>
		</contour>
	</outline>
</glyph>
<glyph name="six" format="1">
  <advance width="1358"/>
  <unicode hex="0036"/>
  <outline>
    <contour>
      <point x="704" y="1466" type="curve" smooth="yes"/>
      <point x="312" y="1466"/>
      <point x="60" y="1176"/>
      <point x="60" y="690" type="curve" smooth="yes"/>
      <point x="60" y="270"/>
      <point x="296" y="-12"/>
      <point x="696" y="-12" type="curve" smooth="yes"/>
      <point x="1038" y="-12"/>
      <point x="1288" y="194"/>
      <point x="1288" y="472" type="curve" smooth="yes"/>
      <point x="1288" y="726"/>
      <point x="1086" y="902"/>
      <point x="784" y="902" type="curve" smooth="yes"/>
      <point x="680" y="902"/>
      <point x="572" y="884"/>
      <point x="494" y="836" type="curve"/>
      <point x="464" y="1004"/>
      <point x="550" y="1166"/>
      <point x="714" y="1166" type="curve" smooth="yes"/>
      <point x="816" y="1166"/>
      <point x="880" y="1120"/>
      <point x="912" y="1012" type="curve"/>
      <point x="1264" y="1012" type="line"/>
      <point x="1264" y="1298"/>
      <point x="1004" y="1466"/>
    </contour>
    <contour>
      <point x="682" y="622" type="curve" smooth="yes"/>
      <point x="774" y="622"/>
      <point x="880" y="578"/>
      <point x="880" y="454" type="curve" smooth="yes"/>
      <point x="880" y="346"/>
      <point x="782" y="270"/>
      <point x="680" y="270" type="curve" smooth="yes"/>
      <point x="568" y="270"/>
      <point x="490" y="348"/>
      <point x="490" y="516" type="curve"/>
      <point x="490" y="552"/>
      <point x="592" y="622"/>
    </contour>
  </outline>
</glyph>
<glyph name="seven" format="2">
	<advance width="1326"/>
	<unicode hex="0037"/>
	<outline>
		<contour>
			<point x="80" y="1481" type="line"/>
			<point x="80" y="1161" type="line"/>
			<point x="840" y="1161" type="line"/>
			<point x="469" y="713"/>
			<point x="351" y="213"/>
			<point x="351" y="0" type="curve"/>
			<point x="779" y="0" type="line"/>
			<point x="770" y="365"/>
			<point x="1039" y="932"/>
			<point x="1246" y="1161" type="curve"/>
			<point x="1246" y="1481" type="line"/>
		</contour>
	</outline>
</glyph>
<glyph name="eight" format="1">
  <advance width="1304"/>
  <unicode hex="0038"/>
  <outline>
    <contour>
      <point x="652" y="1462" type="curve" smooth="yes"/>
      <point x="338" y="1462"/>
      <point x="102" y="1320"/>
      <point x="102" y="1048" type="curve" smooth="yes"/>
      <point x="102" y="906"/>
      <point x="194" y="804"/>
      <point x="300" y="748" type="curve"/>
      <point x="178" y="720"/>
      <point x="40" y="574"/>
      <point x="40" y="410" type="curve" smooth="yes"/>
      <point x="40" y="144"/>
      <point x="286" y="-16"/>
      <point x="652" y="-16" type="curve" smooth="yes"/>
      <point x="1018" y="-16"/>
      <point x="1264" y="144"/>
      <point x="1264" y="410" type="curve" smooth="yes"/>
      <point x="1264" y="574"/>
      <point x="1126" y="720"/>
      <point x="1004" y="748" type="curve"/>
      <point x="1110" y="804"/>
      <point x="1202" y="906"/>
      <point x="1202" y="1048" type="curve" smooth="yes"/>
      <point x="1202" y="1320"/>
      <point x="966" y="1462"/>
    </contour>
    <contour>
      <point x="652" y="892" type="curve" smooth="yes"/>
      <point x="560" y="892"/>
      <point x="486" y="954"/>
      <point x="486" y="1054" type="curve" smooth="yes"/>
      <point x="486" y="1154"/>
      <point x="560" y="1216"/>
      <point x="652" y="1216" type="curve" smooth="yes"/>
      <point x="744" y="1216"/>
      <point x="818" y="1154"/>
      <point x="818" y="1054" type="curve" smooth="yes"/>
      <point x="818" y="954"/>
      <point x="744" y="892"/>
    </contour>
    <contour>
      <point x="652" y="264" type="curve" smooth="yes"/>
      <point x="524" y="264"/>
      <point x="452" y="328"/>
      <point x="452" y="424" type="curve" smooth="yes"/>
      <point x="452" y="522"/>
      <point x="524" y="588"/>
      <point x="652" y="588" type="curve" smooth="yes"/>
      <point x="780" y="588"/>
      <point x="852" y="522"/>
      <point x="852" y="424" type="curve" smooth="yes"/>
      <point x="852" y="328"/>
      <point x="780" y="264"/>
    </contour>
  </outline>
</glyph>
<glyph name="nine" format="1">
  <advance width="1360"/>
  <unicode hex="0039"/>
  <outline>
    <contour>
      <point x="644" y="-16" type="curve" smooth="yes"/>
      <point x="1036" y="-16"/>
      <point x="1290" y="214"/>
      <point x="1290" y="760" type="curve" smooth="yes"/>
      <point x="1290" y="1182"/>
      <point x="1054" y="1462"/>
      <point x="654" y="1462" type="curve" smooth="yes"/>
      <point x="312" y="1462"/>
      <point x="70" y="1258"/>
      <point x="70" y="978" type="curve" smooth="yes"/>
      <point x="70" y="706"/>
      <point x="290" y="528"/>
      <point x="592" y="528" type="curve" smooth="yes"/>
      <point x="734" y="528"/>
      <point x="834" y="564"/>
      <point x="898" y="630" type="curve"/>
      <point x="924" y="366"/>
      <point x="790" y="284"/>
      <point x="626" y="284" type="curve" smooth="yes"/>
      <point x="524" y="284"/>
      <point x="460" y="344"/>
      <point x="444" y="438" type="curve"/>
      <point x="78" y="438" type="line"/>
      <point x="80" y="164"/>
      <point x="344" y="-16"/>
    </contour>
    <contour>
      <point x="668" y="828" type="curve" smooth="yes"/>
      <point x="576" y="828"/>
      <point x="486" y="884"/>
      <point x="486" y="996" type="curve" smooth="yes"/>
      <point x="486" y="1106"/>
      <point x="568" y="1182"/>
      <point x="670" y="1182" type="curve" smooth="yes"/>
      <point x="782" y="1182"/>
      <point x="860" y="1104"/>
      <point x="860" y="934" type="curve"/>
      <point x="860" y="898"/>
      <point x="758" y="828"/>
    </contour>
  </outline>
</glyph>
<glyph name="colon" format="1">
  <advance width="620"/>
  <unicode hex="003A"/>
  <outline>
    <contour>
      <point x="500" y="1024" type="line"/>
      <point x="90" y="1024" type="line"/>
      <point x="90" y="640" type="line"/>
      <point x="500" y="640" type="line"/>
    </contour>
    <contour>
      <point x="500" y="390" type="line"/>
      <point x="90" y="390" type="line"/>
      <point x="90" y="6" type="line"/>
      <point x="500" y="6" type="line"/>
    </contour>
  </outline>
</glyph>
<glyph name="semicolon" format="2">
	<advance width="641"/>
	<unicode hex="003B"/>
	<outline>
		<contour>
			<point x="92" y="-338" type="line"/>
			<point x="250" y="-338" type="line"/>
			<point x="518" y="45" type="line"/>
			<point x="518" y="395" type="line"/>
			<point x="98" y="395" type="line"/>
			<point x="98" y="0" type="line"/>
			<point x="242" y="0" type="line"/>
		</contour>
		<contour>
			<point x="98" y="641" type="line"/>
			<point x="518" y="641" type="line"/>
			<point x="518" y="1042" type="line"/>
			<point x="98" y="1042" type="line"/>
		</contour>
	</outline>
</glyph>
<glyph name="less" format="2">
	<advance width="1241"/>
	<unicode hex="003C"/>
	<outline>
		<contour>
			<point x="1128" y="479" type="line"/>
			<point x="535" y="694" type="line"/>
			<point x="1128" y="920" type="line"/>
			<point x="1128" y="1247" type="line"/>
			<point x="113" y="856" type="line"/>
			<point x="113" y="539" type="line"/>
			<point x="1128" y="147" type="line"/>
		</contour>
	</outline>
</glyph>
<glyph name="equal" format="1">
  <advance width="1238"/>
  <unicode hex="003D"/>
  <outline>
    <contour>
      <point x="1128" y="1054" type="line"/>
      <point x="110" y="1054" type="line"/>
      <point x="110" y="778" type="line"/>
      <point x="1128" y="778" type="line"/>
    </contour>
    <contour>
      <point x="1128" y="584" type="line"/>
      <point x="110" y="584" type="line"/>
      <point x="110" y="308" type="line"/>
      <point x="1128" y="308" type="line"/>
    </contour>
  </outline>
</glyph>
<glyph name="greater" format="2">
	<advance width="1243"/>
	<unicode hex="003E"/>
	<outline>
		<contour>
			<point x="113" y="479" type="line"/>
			<point x="113" y="147" type="line"/>
			<point x="1130" y="539" type="line"/>
			<point x="1130" y="856" type="line"/>
			<point x="113" y="1247" type="line"/>
			<point x="113" y="920" type="line"/>
			<point x="709" y="694" type="line"/>
		</contour>
	</outline>
</glyph>
<glyph name="question" format="2">
	<advance width="1114"/>
	<unicode hex="003F"/>
	<outline>
		<contour>
			<point x="739" y="393" type="line"/>
			<point x="319" y="393" type="line"/>
			<point x="319" y="0" type="line"/>
			<point x="739" y="0" type="line"/>
		</contour>
		<contour>
			<point x="0" y="1128" type="curve"/>
			<point x="332" y="1057" type="line"/>
			<point x="377" y="1176"/>
			<point x="459" y="1241"/>
			<point x="549" y="1241" type="curve" smooth="yes"/>
			<point x="618" y="1241"/>
			<point x="680" y="1200"/>
			<point x="680" y="1137" type="curve" smooth="yes"/>
			<point x="680" y="979"/>
			<point x="375" y="905"/>
			<point x="375" y="537" type="curve"/>
			<point x="686" y="537" type="line"/>
			<point x="686" y="823"/>
			<point x="1069" y="838"/>
			<point x="1069" y="1159" type="curve" smooth="yes"/>
			<point x="1069" y="1339"/>
			<point x="862" y="1501"/>
			<point x="553" y="1501" type="curve" smooth="yes"/>
			<point x="276" y="1501"/>
			<point x="88" y="1372"/>
		</contour>
	</outline>
</glyph>
<glyph name="at" format="1">
  <advance width="1608"/>
  <unicode hex="0040"/>
  <outline>
    <contour>
      <point x="1310" y="-68" type="curve"/>
      <point x="1204" y="74" type="line"/>
      <point x="1108" y="10"/>
      <point x="1026" y="-40"/>
      <point x="844" y="-40" type="curve" smooth="yes"/>
      <point x="494" y="-40"/>
      <point x="260" y="144"/>
      <point x="260" y="516" type="curve" smooth="yes"/>
      <point x="260" y="826"/>
      <point x="422" y="1092"/>
      <point x="854" y="1092" type="curve" smooth="yes"/>
      <point x="1118" y="1092"/>
      <point x="1356" y="990"/>
      <point x="1356" y="648" type="curve" smooth="yes"/>
      <point x="1356" y="444"/>
      <point x="1274" y="360"/>
      <point x="1206" y="360" type="curve" smooth="yes"/>
      <point x="1172" y="360"/>
      <point x="1146" y="382"/>
      <point x="1160" y="458" type="curve" smooth="yes"/>
      <point x="1230" y="876" type="line"/>
      <point x="1022" y="876" type="line"/>
      <point x="1018" y="852" type="line" smooth="yes"/>
      <point x="1016" y="838"/>
      <point x="1008" y="836"/>
      <point x="1000" y="844" type="curve" smooth="yes"/>
      <point x="954" y="886"/>
      <point x="908" y="926"/>
      <point x="798" y="926" type="curve" smooth="yes"/>
      <point x="546" y="926"/>
      <point x="392" y="708"/>
      <point x="392" y="476" type="curve" smooth="yes"/>
      <point x="390" y="266"/>
      <point x="522" y="130"/>
      <point x="702" y="130" type="curve" smooth="yes"/>
      <point x="806" y="130"/>
      <point x="896" y="176"/>
      <point x="954" y="240" type="curve" smooth="yes"/>
      <point x="966" y="254"/>
      <point x="968" y="256"/>
      <point x="980" y="242" type="curve" smooth="yes"/>
      <point x="1004" y="214"/>
      <point x="1056" y="158"/>
      <point x="1178" y="158" type="curve" smooth="yes"/>
      <point x="1412" y="158"/>
      <point x="1568" y="364"/>
      <point x="1568" y="660" type="curve" smooth="yes"/>
      <point x="1568" y="1102"/>
      <point x="1216" y="1288"/>
      <point x="854" y="1288" type="curve" smooth="yes"/>
      <point x="348" y="1288"/>
      <point x="40" y="930"/>
      <point x="40" y="510" type="curve" smooth="yes"/>
      <point x="40" y="108"/>
      <point x="326" y="-220"/>
      <point x="810" y="-220" type="curve" smooth="yes"/>
      <point x="1040" y="-220"/>
      <point x="1222" y="-144"/>
    </contour>
    <contour>
      <point x="648" y="504" type="curve" smooth="yes"/>
      <point x="648" y="620"/>
      <point x="730" y="710"/>
      <point x="818" y="710" type="curve" smooth="yes"/>
      <point x="902" y="710"/>
      <point x="944" y="630"/>
      <point x="944" y="552" type="curve" smooth="yes"/>
      <point x="944" y="452"/>
      <point x="872" y="348"/>
      <point x="772" y="348" type="curve" smooth="yes"/>
      <point x="686" y="348"/>
      <point x="648" y="426"/>
    </contour>
  </outline>
</glyph>
<glyph name="A" format="1">
  <advance width="1462"/>
  <unicode hex="0041"/>
  <outline>
    <contour>
      <point x="20" y="0" type="line"/>
      <point x="408" y="0" type="line"/>
      <point x="506" y="280" type="line"/>
      <point x="962" y="280" type="line"/>
      <point x="1058" y="0" type="line"/>
      <point x="1442" y="0" type="line"/>
      <point x="930" y="1446" type="line"/>
      <point x="532" y="1446" type="line"/>
    </contour>
    <contour>
      <point x="588" y="612" type="line"/>
      <point x="732" y="1074" type="line"/>
      <point x="874" y="612" type="line"/>
    </contour>
    <contour>
      <point x="732" y="0" type="move" name="bottom"/>
    </contour>
    <contour>
      <point x="1396" y="10" type="move" name="ogonek"/>
    </contour>
    <contour>
      <point x="732" y="1446" type="move" name="top"/>
    </contour>
  </outline>
</glyph>
<glyph name="B" format="1">
  <advance width="1447"/>
  <unicode hex="0042"/>
  <outline>
    <contour>
      <point x="170" y="0" type="line"/>
      <point x="780" y="0" type="line" smooth="yes"/>
      <point x="1200" y="0"/>
      <point x="1362" y="124"/>
      <point x="1362" y="394" type="curve"/>
      <point x="1362" y="502"/>
      <point x="1348" y="668"/>
      <point x="1094" y="744" type="curve"/>
      <point x="1272" y="832"/>
      <point x="1328" y="930"/>
      <point x="1328" y="1064" type="curve" smooth="yes"/>
      <point x="1328" y="1310"/>
      <point x="1152" y="1446"/>
      <point x="748" y="1446" type="curve" smooth="yes"/>
      <point x="170" y="1446" type="line"/>
    </contour>
    <contour>
      <point x="560" y="292" type="line"/>
      <point x="560" y="582" type="line"/>
      <point x="804" y="582" type="line"/>
      <point x="902" y="582"/>
      <point x="966" y="522"/>
      <point x="966" y="442" type="curve" smooth="yes"/>
      <point x="966" y="366"/>
      <point x="908" y="292"/>
      <point x="794" y="292" type="curve"/>
    </contour>
    <contour>
      <point x="560" y="882" type="line"/>
      <point x="560" y="1154" type="line"/>
      <point x="790" y="1154" type="line" smooth="yes"/>
      <point x="882" y="1154"/>
      <point x="954" y="1100"/>
      <point x="954" y="1014" type="curve" smooth="yes"/>
      <point x="954" y="938"/>
      <point x="896" y="882"/>
      <point x="804" y="882" type="curve" smooth="yes"/>
    </contour>
  </outline>
</glyph>
<glyph name="C" format="1">
  <advance width="1525"/>
  <unicode hex="0043"/>
  <outline>
    <contour>
      <point x="812" y="1466" type="curve" smooth="yes"/>
      <point x="390" y="1466"/>
      <point x="120" y="1182"/>
      <point x="120" y="742" type="curve" smooth="yes"/>
      <point x="120" y="302"/>
      <point x="394" y="-20"/>
      <point x="812" y="-20" type="curve" smooth="yes"/>
      <point x="1274" y="-20"/>
      <point x="1400" y="240"/>
      <point x="1440" y="540" type="curve"/>
      <point x="1034" y="540" type="line"/>
      <point x="1012" y="406"/>
      <point x="932" y="292"/>
      <point x="798" y="292" type="curve" smooth="yes"/>
      <point x="652" y="292"/>
      <point x="546" y="414"/>
      <point x="546" y="736" type="curve" smooth="yes"/>
      <point x="546" y="1054"/>
      <point x="652" y="1154"/>
      <point x="798" y="1154" type="curve" smooth="yes"/>
      <point x="932" y="1154"/>
      <point x="1012" y="1070"/>
      <point x="1034" y="936" type="curve"/>
      <point x="1440" y="936" type="line"/>
      <point x="1408" y="1248"/>
      <point x="1156" y="1466"/>
    </contour>
    <contour>
      <point x="812" y="0" type="move" name="bottom"/>
    </contour>
    <contour>
      <point x="812" y="1446" type="move" name="top"/>
    </contour>
  </outline>
</glyph>
<glyph name="D" format="1">
  <advance width="1558"/>
  <unicode hex="0044"/>
  <outline>
    <contour>
      <point x="170" y="1446" type="curve"/>
      <point x="170" y="0" type="line"/>
      <point x="688" y="0" type="line" smooth="yes"/>
      <point x="1200" y="0"/>
      <point x="1438" y="306"/>
      <point x="1438" y="728" type="curve" smooth="yes"/>
      <point x="1438" y="1138"/>
      <point x="1212" y="1426"/>
      <point x="690" y="1444" type="curve" smooth="yes"/>
      <point x="564" y="1448"/>
      <point x="212" y="1446"/>
    </contour>
    <contour>
      <point x="560" y="1140" type="line"/>
      <point x="700" y="1140" type="line" smooth="yes"/>
      <point x="898" y="1140"/>
      <point x="1032" y="1000"/>
      <point x="1032" y="734" type="curve" smooth="yes"/>
      <point x="1032" y="420"/>
      <point x="848" y="306"/>
      <point x="700" y="306" type="curve" smooth="yes"/>
      <point x="560" y="306" type="line"/>
    </contour>
    <contour>
      <point x="740" y="0" type="move" name="bottom"/>
    </contour>
    <contour>
      <point x="778" y="724" type="move" name="center"/>
    </contour>
    <contour>
      <point x="778" y="1446" type="move" name="top"/>
    </contour>
  </outline>
</glyph>
<glyph name="E" format="1">
  <advance width="1325"/>
  <unicode hex="0045"/>
  <outline>
    <contour>
      <point x="170" y="0" type="line"/>
      <point x="1240" y="0" type="line"/>
      <point x="1240" y="324" type="line"/>
      <point x="560" y="324" type="line"/>
      <point x="560" y="570" type="line"/>
      <point x="1126" y="570" type="line"/>
      <point x="1126" y="884" type="line"/>
      <point x="562" y="884" type="line"/>
      <point x="562" y="1124" type="line"/>
      <point x="1236" y="1124" type="line"/>
      <point x="1238" y="1446" type="line"/>
      <point x="170" y="1446" type="line"/>
    </contour>
    <contour>
      <point x="704" y="0" type="move" name="bottom"/>
    </contour>
    <contour>
      <point x="1238" y="20" type="move" name="ogonek"/>
    </contour>
    <contour>
      <point x="704" y="1446" type="move" name="top"/>
    </contour>
  </outline>
</glyph>
<glyph name="F" format="1">
  <advance width="1315"/>
  <unicode hex="0046"/>
  <outline>
    <contour>
      <point x="170" y="1446" type="line"/>
      <point x="170" y="0" type="line"/>
      <point x="560" y="0" type="line"/>
      <point x="560" y="558" type="line"/>
      <point x="1118" y="558" type="line"/>
      <point x="1118" y="868" type="line"/>
      <point x="560" y="868" type="line"/>
      <point x="560" y="1128" type="line"/>
      <point x="1228" y="1128" type="line"/>
      <point x="1230" y="1446" type="line"/>
    </contour>
  </outline>
</glyph>
<glyph name="G" format="1">
  <advance width="1612"/>
  <unicode hex="0047"/>
  <outline>
    <contour>
      <point x="804" y="-20" type="curve" smooth="yes"/>
      <point x="1042" y="-20"/>
      <point x="1144" y="86"/>
      <point x="1216" y="160" type="curve"/>
      <point x="1216" y="0" type="line"/>
      <point x="1472" y="0" type="line"/>
      <point x="1472" y="764" type="line"/>
      <point x="810" y="768" type="line"/>
      <point x="810" y="506" type="line"/>
      <point x="1062" y="506" type="line"/>
      <point x="1044" y="454" type="line"/>
      <point x="1024" y="388"/>
      <point x="944" y="318"/>
      <point x="834" y="318" type="curve" smooth="yes"/>
      <point x="710" y="318"/>
      <point x="544" y="376"/>
      <point x="544" y="730" type="curve" smooth="yes"/>
      <point x="544" y="1042"/>
      <point x="674" y="1144"/>
      <point x="818" y="1144" type="curve" smooth="yes"/>
      <point x="954" y="1144"/>
      <point x="1028" y="1054"/>
      <point x="1054" y="936" type="curve"/>
      <point x="1460" y="936" type="line"/>
      <point x="1456" y="1206"/>
      <point x="1216" y="1466"/>
      <point x="828" y="1466" type="curve" smooth="yes"/>
      <point x="412" y="1466"/>
      <point x="120" y="1168"/>
      <point x="120" y="718" type="curve" smooth="yes"/>
      <point x="120" y="282"/>
      <point x="392" y="-20"/>
    </contour>
    <contour>
      <point x="808" y="0" type="move" name="bottom"/>
    </contour>
    <contour>
      <point x="816" y="1446" type="move" name="top"/>
    </contour>
  </outline>
</glyph>
<glyph name="H" format="1">
  <advance width="1558"/>
  <unicode hex="0048"/>
  <outline>
    <contour>
      <point x="998" y="580" type="line"/>
      <point x="998" y="0" type="line"/>
      <point x="1388" y="0" type="line"/>
      <point x="1388" y="1446" type="line"/>
      <point x="998" y="1446" type="line"/>
      <point x="998" y="898" type="line"/>
      <point x="560" y="898" type="line"/>
      <point x="560" y="1446" type="line"/>
      <point x="170" y="1446" type="line"/>
      <point x="170" y="0" type="line"/>
      <point x="560" y="0" type="line"/>
      <point x="560" y="580" type="line"/>
    </contour>
    <contour>
      <point x="770" y="0" type="move" name="bottom"/>
    </contour>
    <contour>
      <point x="778" y="1446" type="move" name="top"/>
    </contour>
  </outline>
</glyph>
<glyph name="I" format="1">
  <advance width="670"/>
  <unicode hex="0049"/>
  <outline>
    <contour>
      <point x="140" y="1446" type="line"/>
      <point x="140" y="0" type="line"/>
      <point x="530" y="0" type="line"/>
      <point x="530" y="1446" type="line"/>
    </contour>
    <contour>
      <point x="356" y="0" type="move" name="bottom"/>
    </contour>
    <contour>
      <point x="482" y="6" type="move" name="ogonek"/>
    </contour>
    <contour>
      <point x="336" y="1446" type="move" name="top"/>
    </contour>
  </outline>
</glyph>
<glyph name="J" format="1">
  <advance width="850"/>
  <unicode hex="004A"/>
  <outline>
    <contour>
      <point x="720" y="458" type="curve" smooth="yes"/>
      <point x="720" y="1446" type="line"/>
      <point x="330" y="1446" type="line"/>
      <point x="330" y="558" type="line" smooth="yes"/>
      <point x="330" y="408"/>
      <point x="296" y="340"/>
      <point x="158" y="340" type="curve" smooth="yes"/>
      <point x="116" y="340"/>
      <point x="66" y="346"/>
      <point x="30" y="350" type="curve"/>
      <point x="30" y="0" type="line"/>
      <point x="90" y="-12"/>
      <point x="210" y="-20"/>
      <point x="292" y="-20" type="curve" smooth="yes"/>
      <point x="642" y="-20"/>
      <point x="720" y="138"/>
    </contour>
    <contour>
      <point x="516" y="1446" type="move" name="top"/>
    </contour>
  </outline>
</glyph>
<glyph name="K" format="1">
  <advance width="1494"/>
  <unicode hex="004B"/>
  <outline>
    <contour>
      <point x="1464" y="0" type="line"/>
      <point x="1002" y="894" type="line"/>
      <point x="1400" y="1446" type="line"/>
      <point x="962" y="1446" type="line"/>
      <point x="544" y="862" type="line"/>
      <point x="544" y="1446" type="line"/>
      <point x="140" y="1446" type="line"/>
      <point x="140" y="0" type="line"/>
      <point x="544" y="0" type="line"/>
      <point x="544" y="378" type="line"/>
      <point x="724" y="610" type="line"/>
      <point x="1046" y="0" type="line"/>
    </contour>
    <contour>
      <point x="724" y="0" type="move" name="bottom"/>
    </contour>
    <contour>
      <point x="750" y="1446" type="move" name="top"/>
    </contour>
  </outline>
</glyph>
<glyph name="L" format="1">
  <advance width="1138"/>
  <unicode hex="004C"/>
  <outline>
    <contour>
      <point x="140" y="1446" type="line"/>
      <point x="140" y="0" type="line"/>
      <point x="1108" y="0" type="line"/>
      <point x="1108" y="320" type="line"/>
      <point x="530" y="320" type="line"/>
      <point x="530" y="1446" type="line"/>
    </contour>
    <contour>
      <point x="618" y="0" type="move" name="bottom"/>
    </contour>
    <contour>
      <point x="326" y="1446" type="move" name="top"/>
    </contour>
    <contour>
      <point x="982" y="1446" type="move" name="topright"/>
    </contour>
  </outline>
</glyph>
<glyph name="M" format="1">
  <advance width="1854"/>
  <unicode hex="004D"/>
  <outline>
    <contour>
      <point x="100" y="0" type="line"/>
      <point x="490" y="0" type="line"/>
      <point x="490" y="1048" type="line"/>
      <point x="772" y="0" type="line"/>
      <point x="1052" y="0" type="line"/>
      <point x="1334" y="1048" type="line"/>
      <point x="1334" y="0" type="line"/>
      <point x="1724" y="0" type="line"/>
      <point x="1724" y="1446" type="line"/>
      <point x="1148" y="1446" type="line"/>
      <point x="912" y="564" type="line"/>
      <point x="678" y="1446" type="line"/>
      <point x="100" y="1446" type="line"/>
    </contour>
  </outline>
</glyph>
<glyph name="N" format="1">
  <advance width="1556"/>
  <unicode hex="004E"/>
  <outline>
    <contour>
      <point x="1066" y="1446" type="line"/>
      <point x="1066" y="640" type="line"/>
      <point x="502" y="1446" type="line"/>
      <point x="110" y="1446" type="line"/>
      <point x="110" y="0" type="line"/>
      <point x="500" y="0" type="line"/>
      <point x="500" y="862" type="line"/>
      <point x="1104" y="0" type="line"/>
      <point x="1456" y="0" type="line"/>
      <point x="1456" y="1446" type="line"/>
    </contour>
    <contour>
      <point x="782" y="0" type="move" name="bottom"/>
    </contour>
    <contour>
      <point x="782" y="1446" type="move" name="top"/>
    </contour>
  </outline>
</glyph>
<glyph name="O" format="1">
  <advance width="1640"/>
  <unicode hex="004F"/>
  <outline>
    <contour>
      <point x="822" y="-20" type="curve" smooth="yes"/>
      <point x="1248" y="-20"/>
      <point x="1520" y="272"/>
      <point x="1520" y="720" type="curve" smooth="yes"/>
      <point x="1520" y="1172"/>
      <point x="1242" y="1466"/>
      <point x="822" y="1466" type="curve" smooth="yes"/>
      <point x="400" y="1466"/>
      <point x="120" y="1172"/>
      <point x="120" y="720" type="curve" smooth="yes"/>
      <point x="120" y="270"/>
      <point x="392" y="-20"/>
    </contour>
    <contour>
      <point x="822" y="292" type="curve" smooth="yes"/>
      <point x="662" y="292"/>
      <point x="544" y="402"/>
      <point x="544" y="714" type="curve" smooth="yes"/>
      <point x="544" y="1036"/>
      <point x="662" y="1154"/>
      <point x="822" y="1154" type="curve" smooth="yes"/>
      <point x="982" y="1154"/>
      <point x="1098" y="1036"/>
      <point x="1098" y="714" type="curve" smooth="yes"/>
      <point x="1098" y="402"/>
      <point x="982" y="292"/>
    </contour>
    <contour>
      <point x="824" y="0" type="move" name="bottom"/>
    </contour>
    <contour>
      <point x="1310" y="1094" type="move" name="horn"/>
    </contour>
    <contour>
      <point x="1002" y="20" type="move" name="ogonek"/>
    </contour>
    <contour>
      <point x="820" y="1446" type="move" name="top"/>
    </contour>
  </outline>
</glyph>
<glyph name="P" format="1">
  <advance width="1370"/>
  <unicode hex="0050"/>
  <outline>
    <contour>
      <point x="140" y="0" type="line"/>
      <point x="530" y="0" type="line"/>
      <point x="530" y="498" type="line"/>
      <point x="762" y="498" type="line" smooth="yes"/>
      <point x="1080" y="498"/>
      <point x="1280" y="670"/>
      <point x="1280" y="956" type="curve" smooth="yes"/>
      <point x="1280" y="1270"/>
      <point x="1032" y="1446"/>
      <point x="712" y="1446" type="curve" smooth="yes"/>
      <point x="140" y="1446" type="line"/>
    </contour>
    <contour>
      <point x="526" y="788" type="line"/>
      <point x="526" y="1158" type="line"/>
      <point x="750" y="1158" type="line" smooth="yes"/>
      <point x="836" y="1158"/>
      <point x="922" y="1076"/>
      <point x="922" y="976" type="curve" smooth="yes"/>
      <point x="922" y="882"/>
      <point x="848" y="788"/>
      <point x="750" y="788" type="curve" smooth="yes"/>
    </contour>
  </outline>
</glyph>
<glyph name="Q" format="1">
  <advance width="1582"/>
  <unicode hex="0051"/>
  <outline>
    <contour>
      <point x="90" y="720" type="curve" smooth="yes"/>
      <point x="90" y="270"/>
      <point x="362" y="-20"/>
      <point x="792" y="-20" type="curve" smooth="yes"/>
      <point x="842" y="-20"/>
      <point x="882" y="-18"/>
      <point x="952" y="-10" type="curve"/>
      <point x="1124" y="-226"/>
      <point x="1260" y="-250"/>
      <point x="1492" y="-250" type="curve"/>
      <point x="1492" y="54" type="line"/>
      <point x="1394" y="54"/>
      <point x="1304" y="104"/>
      <point x="1288" y="160" type="curve"/>
      <point x="1418" y="300"/>
      <point x="1492" y="486"/>
      <point x="1492" y="720" type="curve" smooth="yes"/>
      <point x="1492" y="1172"/>
      <point x="1214" y="1466"/>
      <point x="792" y="1466" type="curve" smooth="yes"/>
      <point x="370" y="1466"/>
      <point x="90" y="1172"/>
    </contour>
    <contour>
      <point x="516" y="716" type="curve" smooth="yes"/>
      <point x="516" y="1038"/>
      <point x="624" y="1154"/>
      <point x="792" y="1154" type="curve" smooth="yes"/>
      <point x="960" y="1154"/>
      <point x="1068" y="1038"/>
      <point x="1068" y="716" type="curve" smooth="yes"/>
      <point x="1068" y="402"/>
      <point x="964" y="292"/>
      <point x="792" y="292" type="curve" smooth="yes"/>
      <point x="620" y="292"/>
      <point x="516" y="402"/>
    </contour>
  </outline>
</glyph>
<glyph name="R" format="1">
  <advance width="1422"/>
  <unicode hex="0052"/>
  <outline>
    <contour>
      <point x="1372" y="0" type="line"/>
      <point x="1118" y="560" type="line"/>
      <point x="1252" y="642"/>
      <point x="1348" y="758"/>
      <point x="1348" y="980" type="curve" smooth="yes"/>
      <point x="1348" y="1242"/>
      <point x="1202" y="1446"/>
      <point x="826" y="1446" type="curve" smooth="yes"/>
      <point x="170" y="1446" type="line"/>
      <point x="170" y="0" type="line"/>
      <point x="560" y="0" type="line"/>
      <point x="560" y="498" type="line"/>
      <point x="764" y="498" type="line"/>
      <point x="974" y="0" type="line"/>
    </contour>
    <contour>
      <point x="782" y="788" type="curve" smooth="yes"/>
      <point x="560" y="788" type="line"/>
      <point x="560" y="1158" type="line"/>
      <point x="782" y="1158" type="line" smooth="yes"/>
      <point x="870" y="1158"/>
      <point x="956" y="1076"/>
      <point x="956" y="976" type="curve" smooth="yes"/>
      <point x="956" y="882"/>
      <point x="882" y="788"/>
    </contour>
    <contour>
      <point x="754" y="0" type="move" name="bottom"/>
    </contour>
    <contour>
      <point x="734" y="1446" type="move" name="top"/>
    </contour>
  </outline>
</glyph>
<glyph name="S" format="1">
  <advance width="1448"/>
  <unicode hex="0053"/>
  <outline>
    <contour>
      <point x="734" y="-20" type="curve" smooth="yes"/>
      <point x="1096" y="-20"/>
      <point x="1368" y="164"/>
      <point x="1368" y="410" type="curve" smooth="yes"/>
      <point x="1368" y="554"/>
      <point x="1342" y="814"/>
      <point x="922" y="886" type="curve" smooth="yes"/>
      <point x="696" y="924" type="line" smooth="yes"/>
      <point x="570" y="946"/>
      <point x="538" y="984"/>
      <point x="538" y="1050" type="curve" smooth="yes"/>
      <point x="538" y="1102"/>
      <point x="584" y="1164"/>
      <point x="736" y="1164" type="curve" smooth="yes"/>
      <point x="872" y="1164"/>
      <point x="952" y="1120"/>
      <point x="964" y="1008" type="curve"/>
      <point x="1358" y="1008" type="line"/>
      <point x="1332" y="1246"/>
      <point x="1082" y="1464"/>
      <point x="728" y="1464" type="curve" smooth="yes"/>
      <point x="394" y="1464"/>
      <point x="118" y="1294"/>
      <point x="122" y="1002" type="curve" smooth="yes"/>
      <point x="126" y="756"/>
      <point x="276" y="612"/>
      <point x="502" y="576" type="curve" smooth="yes"/>
      <point x="728" y="538" type="line" smooth="yes"/>
      <point x="850" y="518"/>
      <point x="970" y="498"/>
      <point x="970" y="410" type="curve" smooth="yes"/>
      <point x="970" y="308"/>
      <point x="854" y="278"/>
      <point x="732" y="278" type="curve" smooth="yes"/>
      <point x="596" y="278"/>
      <point x="506" y="338"/>
      <point x="484" y="440" type="curve"/>
      <point x="80" y="440" type="line"/>
      <point x="106" y="118"/>
      <point x="430" y="-20"/>
    </contour>
    <contour>
      <point x="728" y="0" type="move" name="bottom"/>
    </contour>
    <contour>
      <point x="728" y="1446" type="move" name="top"/>
    </contour>
  </outline>
</glyph>
<glyph name="T" format="1">
  <advance width="1274"/>
  <unicode hex="0054"/>
  <outline>
    <contour>
      <point x="30" y="1104" type="line"/>
      <point x="440" y="1104" type="line"/>
      <point x="440" y="0" type="line"/>
      <point x="830" y="0" type="line"/>
      <point x="830" y="1104" type="line"/>
      <point x="1244" y="1104" type="line"/>
      <point x="1244" y="1446" type="line"/>
      <point x="30" y="1446" type="line"/>
    </contour>
    <contour>
      <point x="654" y="0" type="move" name="bottom"/>
    </contour>
    <contour>
      <point x="654" y="1446" type="move" name="top"/>
    </contour>
  </outline>
</glyph>
<glyph name="U" format="1">
  <advance width="1558"/>
  <unicode hex="0055"/>
  <outline>
    <contour>
      <point x="1418" y="598" type="curve" smooth="yes"/>
      <point x="1418" y="1446" type="line"/>
      <point x="1024" y="1446" type="line"/>
      <point x="1024" y="582" type="line" smooth="yes"/>
      <point x="1024" y="382"/>
      <point x="914" y="306"/>
      <point x="794" y="306" type="curve" smooth="yes"/>
      <point x="672" y="306"/>
      <point x="564" y="382"/>
      <point x="564" y="582" type="curve" smooth="yes"/>
      <point x="564" y="1446" type="line"/>
      <point x="170" y="1446" type="line"/>
      <point x="170" y="598" type="line" smooth="yes"/>
      <point x="170" y="230"/>
      <point x="328" y="-20"/>
      <point x="794" y="-20" type="curve" smooth="yes"/>
      <point x="1260" y="-20"/>
      <point x="1418" y="230"/>
    </contour>
    <contour>
      <point x="794" y="0" type="move" name="bottom"/>
    </contour>
    <contour>
      <point x="1350" y="1094" type="move" name="horn"/>
    </contour>
    <contour>
      <point x="952" y="24" type="move" name="ogonek"/>
    </contour>
    <contour>
      <point x="794" y="1446" type="move" name="top"/>
    </contour>
  </outline>
</glyph>
<glyph name="V" format="1">
  <advance width="1504"/>
  <unicode hex="0056"/>
  <outline>
    <contour>
      <point x="1454" y="1446" type="line"/>
      <point x="1086" y="1446" type="line"/>
      <point x="752" y="456" type="line"/>
      <point x="416" y="1446" type="line"/>
      <point x="50" y="1446" type="line"/>
      <point x="538" y="0" type="line"/>
      <point x="966" y="0" type="line"/>
    </contour>
  </outline>
</glyph>
<glyph name="W" format="1">
  <advance width="2004"/>
  <unicode hex="0057"/>
  <outline>
    <contour>
      <point x="1954" y="1446" type="line"/>
      <point x="1578" y="1446" type="line"/>
      <point x="1362" y="670" type="line"/>
      <point x="1138" y="1446" type="line"/>
      <point x="866" y="1446" type="line"/>
      <point x="650" y="670" type="line"/>
      <point x="426" y="1446" type="line"/>
      <point x="50" y="1446" type="line"/>
      <point x="486" y="0" type="line"/>
      <point x="772" y="0" type="line"/>
      <point x="1002" y="786" type="line"/>
      <point x="1232" y="0" type="line"/>
      <point x="1522" y="0" type="line"/>
    </contour>
    <contour>
      <point x="1002" y="1446" type="move" name="top"/>
    </contour>
  </outline>
</glyph>
<glyph name="X" format="1">
  <advance width="1526"/>
  <unicode hex="0058"/>
  <outline>
    <contour>
      <point x="1476" y="0" type="line"/>
      <point x="966" y="786" type="line"/>
      <point x="1398" y="1446" type="line"/>
      <point x="990" y="1446" type="line"/>
      <point x="768" y="1054" type="line"/>
      <point x="544" y="1446" type="line"/>
      <point x="62" y="1446" type="line"/>
      <point x="522" y="730" type="line"/>
      <point x="50" y="0" type="line"/>
      <point x="464" y="0" type="line"/>
      <point x="724" y="454" type="line"/>
      <point x="990" y="0" type="line"/>
    </contour>
  </outline>
</glyph>
<glyph name="Y" format="1">
  <advance width="1514"/>
  <unicode hex="0059"/>
  <outline>
    <contour>
      <point x="1464" y="1446" type="line"/>
      <point x="1040" y="1446" type="line"/>
      <point x="756" y="932" type="line"/>
      <point x="470" y="1446" type="line"/>
      <point x="50" y="1446" type="line"/>
      <point x="560" y="602" type="line"/>
      <point x="560" y="0" type="line"/>
      <point x="950" y="0" type="line"/>
      <point x="950" y="602" type="line"/>
    </contour>
    <contour>
      <point x="756" y="0" type="move" name="bottom"/>
    </contour>
    <contour>
      <point x="806" y="1446" type="move" name="top"/>
    </contour>
  </outline>
</glyph>
<glyph name="Z" format="1">
  <advance width="1382"/>
  <unicode hex="005A"/>
  <outline>
    <contour>
      <point x="70" y="0" type="line"/>
      <point x="1300" y="0" type="line"/>
      <point x="1300" y="324" type="line"/>
      <point x="616" y="324" type="line"/>
      <point x="1312" y="1276" type="line"/>
      <point x="1312" y="1446" type="line"/>
      <point x="134" y="1446" type="line"/>
      <point x="134" y="1126" type="line"/>
      <point x="752" y="1126" type="line"/>
      <point x="70" y="178" type="line"/>
    </contour>
    <contour>
      <point x="696" y="0" type="move" name="bottom"/>
    </contour>
    <contour>
      <point x="742" y="1446" type="move" name="top"/>
    </contour>
  </outline>
</glyph>
<glyph name="bracketleft" format="2">
	<advance width="754"/>
	<unicode hex="005B"/>
	<outline>
		<contour>
			<point x="123" y="1481" type="line"/>
			<point x="123" y="-330" type="line"/>
			<point x="672" y="-330" type="line"/>
			<point x="672" y="-117" type="line"/>
			<point x="440" y="-117" type="line"/>
			<point x="440" y="1268" type="line"/>
			<point x="672" y="1268" type="line"/>
			<point x="672" y="1481" type="line"/>
		</contour>
	</outline>
</glyph>
<glyph name="backslash" format="1">
  <advance width="818"/>
  <unicode hex="005C"/>
  <outline>
    <contour>
      <point x="520" y="0" type="line"/>
      <point x="778" y="0" type="line"/>
      <point x="268" y="1446" type="line"/>
      <point x="10" y="1446" type="line"/>
    </contour>
  </outline>
</glyph>
<glyph name="asciicircum" format="2">
	<advance width="1012"/>
	<unicode hex="005E"/>
	<outline>
		<contour>
			<point x="680" y="240" type="line"/>
			<point x="930" y="240" type="line"/>
			<point x="602" y="1008" type="line" smooth="yes"/>
			<point x="559" y="1104"/>
			<point x="424" y="1098"/>
			<point x="383" y="1006" type="curve" smooth="yes"/>
			<point x="51" y="240" type="line"/>
			<point x="303" y="240" type="line"/>
			<point x="492" y="694" type="line"/>
		</contour>
	</outline>
</glyph>
<glyph name="underscore" format="1">
  <advance width="1170"/>
  <unicode hex="005F"/>
  <outline>
    <contour>
      <point x="1050" y="-40" type="line"/>
      <point x="110" y="-40" type="line"/>
      <point x="110" y="-312" type="line"/>
      <point x="1050" y="-312" type="line"/>
    </contour>
  </outline>
</glyph>
<glyph name="a" format="1">
  <advance width="1187"/>
  <unicode hex="0061"/>
  <outline>
    <contour>
      <point x="443" y="-20" type="curve" smooth="yes"/>
      <point x="583" y="-20"/>
      <point x="669" y="24"/>
      <point x="731" y="164" type="curve"/>
      <point x="765" y="0" type="line"/>
      <point x="1087" y="0" type="line"/>
      <point x="1087" y="732" type="line" smooth="yes"/>
      <point x="1087" y="922"/>
      <point x="979" y="1054"/>
      <point x="619" y="1054" type="curve" smooth="yes"/>
      <point x="353" y="1054"/>
      <point x="137" y="956"/>
      <point x="125" y="712" type="curve"/>
      <point x="441" y="712" type="line"/>
      <point x="473" y="782"/>
      <point x="547" y="800"/>
      <point x="601" y="802" type="curve" smooth="yes"/>
      <point x="679" y="804"/>
      <point x="715" y="774"/>
      <point x="715" y="708" type="curve" smooth="yes"/>
      <point x="715" y="664" type="line"/>
      <point x="635" y="664" type="line" smooth="yes"/>
      <point x="259" y="664"/>
      <point x="85" y="534"/>
      <point x="85" y="310" type="curve" smooth="yes"/>
      <point x="85" y="96"/>
      <point x="247" y="-20"/>
    </contour>
    <contour>
      <point x="579" y="226" type="curve" smooth="yes"/>
      <point x="513" y="226"/>
      <point x="451" y="272"/>
      <point x="451" y="350" type="curve" smooth="yes"/>
      <point x="451" y="452"/>
      <point x="591" y="480"/>
      <point x="653" y="480" type="curve" smooth="yes"/>
      <point x="715" y="480" type="line"/>
      <point x="715" y="350" type="line"/>
      <point x="713" y="284"/>
      <point x="655" y="226"/>
    </contour>
    <contour>
      <point x="617" y="0" type="move" name="bottom"/>
    </contour>
    <contour>
      <point x="1031" y="20" type="move" name="ogonek"/>
    </contour>
    <contour>
      <point x="619" y="1034" type="move" name="top"/>
    </contour>
  </outline>
</glyph>
<glyph name="b" format="2">
	<advance width="1225"/>
	<unicode hex="0062"/>
	<outline>
		<contour>
			<point x="731" y="-20" type="curve" smooth="yes"/>
			<point x="1018" y="-20"/>
			<point x="1175" y="194"/>
			<point x="1175" y="524" type="curve" smooth="yes"/>
			<point x="1175" y="850"/>
			<point x="1027" y="1054"/>
			<point x="773" y="1054" type="curve" smooth="yes"/>
			<point x="671" y="1054"/>
			<point x="560" y="1004"/>
			<point x="489" y="878" type="curve"/>
			<point x="489" y="1486" type="line"/>
			<point x="100" y="1486" type="line"/>
			<point x="100" y="0" type="line"/>
			<point x="373" y="0" type="line"/>
			<point x="413" y="144" type="line"/>
			<point x="470" y="32"/>
			<point x="604" y="-20"/>
		</contour>
		<contour>
			<point x="627" y="252" type="curve"/>
			<point x="541" y="252"/>
			<point x="489" y="336"/>
			<point x="489" y="528" type="curve"/>
			<point x="489" y="528" type="line"/>
			<point x="489" y="706"/>
			<point x="545" y="780"/>
			<point x="633" y="780" type="curve" smooth="yes"/>
			<point x="713" y="780"/>
			<point x="781" y="736"/>
			<point x="781" y="528" type="curve" smooth="yes"/>
			<point x="781" y="320"/>
			<point x="720" y="252"/>
		</contour>
	</outline>
</glyph>
<glyph name="c" format="1">
  <advance width="1066"/>
  <unicode hex="0063"/>
  <outline>
    <contour>
      <point x="562" y="1054" type="curve" smooth="yes"/>
      <point x="262" y="1054"/>
      <point x="40" y="832"/>
      <point x="40" y="512" type="curve" smooth="yes"/>
      <point x="40" y="196"/>
      <point x="266" y="-20"/>
      <point x="562" y="-20" type="curve" smooth="yes"/>
      <point x="844" y="-20"/>
      <point x="1010" y="180"/>
      <point x="1010" y="400" type="curve"/>
      <point x="704" y="400" type="line"/>
      <point x="698" y="358"/>
      <point x="670" y="248"/>
      <point x="572" y="248" type="curve" smooth="yes"/>
      <point x="472" y="248"/>
      <point x="398" y="346"/>
      <point x="398" y="516" type="curve" smooth="yes"/>
      <point x="398" y="682"/>
      <point x="464" y="766"/>
      <point x="564" y="766" type="curve" smooth="yes"/>
      <point x="664" y="766"/>
      <point x="692" y="670"/>
      <point x="700" y="612" type="curve"/>
      <point x="1016" y="612" type="line"/>
      <point x="1010" y="844"/>
      <point x="854" y="1054"/>
    </contour>
    <contour>
      <point x="560" y="0" type="move" name="bottom"/>
    </contour>
    <contour>
      <point x="559" y="1034" type="move" name="top"/>
    </contour>
  </outline>
</glyph>
<glyph name="d" format="1">
  <advance width="1258"/>
  <unicode hex="0064"/>
  <outline>
    <contour>
      <point x="514" y="-20" type="curve" smooth="yes"/>
      <point x="682" y="-20"/>
      <point x="780" y="68"/>
      <point x="826" y="212" type="curve"/>
      <point x="872" y="0" type="line"/>
      <point x="1148" y="0" type="line"/>
      <point x="1148" y="1486" type="line"/>
      <point x="758" y="1486" type="line"/>
      <point x="758" y="916" type="line"/>
      <point x="694" y="1022"/>
      <point x="574" y="1054"/>
      <point x="472" y="1054" type="curve" smooth="yes"/>
      <point x="218" y="1054"/>
      <point x="70" y="850"/>
      <point x="70" y="524" type="curve" smooth="yes"/>
      <point x="70" y="194"/>
      <point x="228" y="-20"/>
    </contour>
    <contour>
      <point x="608" y="252" type="curve"/>
      <point x="518" y="252"/>
      <point x="446" y="320"/>
      <point x="446" y="528" type="curve" smooth="yes"/>
      <point x="446" y="736"/>
      <point x="524" y="780"/>
      <point x="604" y="780" type="curve" smooth="yes"/>
      <point x="690" y="780"/>
      <point x="758" y="728"/>
      <point x="758" y="568" type="curve"/>
      <point x="758" y="478" type="line"/>
      <point x="758" y="324"/>
      <point x="694" y="252"/>
    </contour>
    <contour>
      <point x="616" y="0" type="move" name="bottom"/>
    </contour>
    <contour>
      <point x="616" y="516" type="move" name="center"/>
    </contour>
    <contour>
      <point x="1174" y="1034" type="move" name="topright"/>
    </contour>
  </outline>
</glyph>
<glyph name="e" format="1">
  <advance width="1153"/>
  <unicode hex="0065"/>
  <outline>
    <contour>
      <point x="437" y="428" type="curve"/>
      <point x="1089" y="428" type="line"/>
      <point x="1089" y="518" type="line"/>
      <point x="1089" y="824"/>
      <point x="919" y="1054"/>
      <point x="581" y="1054" type="curve" smooth="yes"/>
      <point x="249" y="1054"/>
      <point x="55" y="800"/>
      <point x="55" y="504" type="curve" smooth="yes"/>
      <point x="55" y="190"/>
      <point x="275" y="-20"/>
      <point x="597" y="-20" type="curve" smooth="yes"/>
      <point x="827" y="-20"/>
      <point x="1061" y="122"/>
      <point x="1093" y="352" type="curve"/>
      <point x="749" y="352" type="line"/>
      <point x="717" y="272"/>
      <point x="659" y="252"/>
      <point x="587" y="252" type="curve" smooth="yes"/>
      <point x="503" y="252"/>
      <point x="435" y="304"/>
    </contour>
    <contour>
      <point x="435" y="646" type="line"/>
      <point x="435" y="724"/>
      <point x="501" y="792"/>
      <point x="581" y="792" type="curve" smooth="yes"/>
      <point x="679" y="792"/>
      <point x="731" y="724"/>
      <point x="731" y="646" type="curve"/>
    </contour>
    <contour>
      <point x="589" y="0" type="move" name="bottom"/>
    </contour>
    <contour>
      <point x="839" y="50" type="move" name="ogonek"/>
    </contour>
    <contour>
      <point x="583" y="1034" type="move" name="top"/>
    </contour>
  </outline>
</glyph>
<glyph name="f" format="1">
  <advance width="854"/>
  <unicode hex="0066"/>
  <outline>
    <contour>
      <point x="804" y="1034" type="line"/>
      <point x="608" y="1034" type="line"/>
      <point x="608" y="1094" type="line" smooth="yes"/>
      <point x="608" y="1170"/>
      <point x="630" y="1194"/>
      <point x="694" y="1194" type="curve" smooth="yes"/>
      <point x="814" y="1194" type="line"/>
      <point x="812" y="1446" type="line"/>
      <point x="536" y="1446" type="line" smooth="yes"/>
      <point x="346" y="1446"/>
      <point x="226" y="1342"/>
      <point x="226" y="1172" type="curve" smooth="yes"/>
      <point x="226" y="1034" type="line"/>
      <point x="60" y="1034" type="line"/>
      <point x="60" y="770" type="line"/>
      <point x="226" y="770" type="line"/>
      <point x="226" y="0" type="line"/>
      <point x="616" y="0" type="line"/>
      <point x="616" y="770" type="line"/>
      <point x="804" y="770" type="line"/>
    </contour>
  </outline>
</glyph>
<glyph name="g" format="1">
  <advance width="1366"/>
  <unicode hex="0067"/>
  <outline>
    <contour>
      <point x="666" y="-342" type="curve" smooth="yes"/>
      <point x="1058" y="-342"/>
      <point x="1256" y="-194"/>
      <point x="1256" y="6" type="curve" smooth="yes"/>
      <point x="1256" y="166"/>
      <point x="1130" y="296"/>
      <point x="844" y="316" type="curve" smooth="yes"/>
      <point x="756" y="322"/>
      <point x="674" y="326"/>
      <point x="638" y="328" type="curve" smooth="yes"/>
      <point x="536" y="334"/>
      <point x="472" y="334"/>
      <point x="472" y="362" type="curve"/>
      <point x="472" y="372"/>
      <point x="480" y="376"/>
      <point x="500" y="380" type="curve"/>
      <point x="534" y="376"/>
      <point x="606" y="374"/>
      <point x="638" y="374" type="curve" smooth="yes"/>
      <point x="966" y="374"/>
      <point x="1140" y="554"/>
      <point x="1140" y="730" type="curve" smooth="yes"/>
      <point x="1140" y="742"/>
      <point x="1136" y="780"/>
      <point x="1128" y="810" type="curve"/>
      <point x="1304" y="834" type="line"/>
      <point x="1306" y="1110" type="line"/>
      <point x="1192" y="1062"/>
      <point x="1044" y="1006"/>
      <point x="966" y="976" type="curve"/>
      <point x="890" y="1016"/>
      <point x="810" y="1050"/>
      <point x="662" y="1050" type="curve" smooth="yes"/>
      <point x="380" y="1050"/>
      <point x="136" y="936"/>
      <point x="136" y="728" type="curve" smooth="yes"/>
      <point x="136" y="618"/>
      <point x="208" y="486"/>
      <point x="358" y="420" type="curve"/>
      <point x="196" y="398"/>
      <point x="120" y="320"/>
      <point x="120" y="238" type="curve" smooth="yes"/>
      <point x="120" y="124"/>
      <point x="236" y="80"/>
      <point x="266" y="64" type="curve"/>
      <point x="250" y="60"/>
      <point x="60" y="30"/>
      <point x="60" y="-104" type="curve" smooth="yes"/>
      <point x="60" y="-236"/>
      <point x="258" y="-342"/>
    </contour>
    <contour>
      <point x="726" y="-138" type="curve" smooth="yes"/>
      <point x="528" y="-138"/>
      <point x="438" y="-124"/>
      <point x="438" y="-58" type="curve" smooth="yes"/>
      <point x="438" y="-24"/>
      <point x="464" y="22"/>
      <point x="572" y="16" type="curve" smooth="yes"/>
      <point x="760" y="4" type="line" smooth="yes"/>
      <point x="840" y="-2"/>
      <point x="888" y="-30"/>
      <point x="888" y="-74" type="curve" smooth="yes"/>
      <point x="888" y="-112"/>
      <point x="862" y="-138"/>
    </contour>
    <contour>
      <point x="650" y="578" type="curve" smooth="yes"/>
      <point x="576" y="578"/>
      <point x="526" y="636"/>
      <point x="526" y="714" type="curve" smooth="yes"/>
      <point x="526" y="792"/>
      <point x="576" y="860"/>
      <point x="650" y="860" type="curve" smooth="yes"/>
      <point x="724" y="860"/>
      <point x="774" y="792"/>
      <point x="774" y="714" type="curve" smooth="yes"/>
      <point x="774" y="636"/>
      <point x="724" y="578"/>
    </contour>
    <contour>
      <point x="664" y="1034" type="move" name="top"/>
    </contour>
  </outline>
</glyph>
<glyph name="h" format="1">
  <advance width="1234"/>
  <unicode hex="0068"/>
  <outline>
    <contour>
      <point x="120" y="0" type="line"/>
      <point x="510" y="0" type="line"/>
      <point x="510" y="642" type="line"/>
      <point x="510" y="700"/>
      <point x="574" y="740"/>
      <point x="632" y="740" type="curve" smooth="yes"/>
      <point x="690" y="740"/>
      <point x="754" y="704"/>
      <point x="754" y="646" type="curve" smooth="yes"/>
      <point x="754" y="0" type="line"/>
      <point x="1144" y="0" type="line"/>
      <point x="1144" y="692" type="line" smooth="yes"/>
      <point x="1144" y="898"/>
      <point x="976" y="1034"/>
      <point x="782" y="1034" type="curve" smooth="yes"/>
      <point x="620" y="1034"/>
      <point x="558" y="966"/>
      <point x="510" y="906" type="curve"/>
      <point x="510" y="1486" type="line"/>
      <point x="120" y="1486" type="line"/>
    </contour>
    <contour>
      <point x="634" y="0" type="move" name="bottom"/>
    </contour>
    <contour>
      <point x="312" y="1446" type="move" name="top"/>
    </contour>
  </outline>
</glyph>
<glyph name="i" format="1">
  <advance width="550"/>
  <unicode hex="0069"/>
  <outline>
    <contour>
      <point x="470" y="1034" type="line"/>
      <point x="100" y="1034" type="line"/>
      <point x="100" y="0" type="line"/>
      <point x="470" y="0" type="line"/>
    </contour>
    <contour>
      <point x="470" y="1486" type="line"/>
      <point x="100" y="1486" type="line"/>
      <point x="100" y="1158" type="line"/>
      <point x="470" y="1158" type="line"/>
    </contour>
    <contour>
      <point x="296" y="0" type="move" name="bottom"/>
    </contour>
  </outline>
</glyph>
<glyph name="j" format="1">
  <advance width="614"/>
  <unicode hex="006A"/>
  <outline>
    <contour>
      <point x="514" y="56" type="curve" smooth="yes"/>
      <point x="514" y="1034" type="line"/>
      <point x="124" y="1034" type="line"/>
      <point x="124" y="56" type="line"/>
      <point x="124" y="14"/>
      <point x="104" y="-12"/>
      <point x="30" y="-28" type="curve"/>
      <point x="-30" y="-38" type="line"/>
      <point x="-28" y="-298" type="line"/>
      <point x="-28" y="-298"/>
      <point x="2" y="-332"/>
      <point x="106" y="-332" type="curve"/>
      <point x="382" y="-332"/>
      <point x="514" y="-200"/>
    </contour>
    <contour>
      <point x="514" y="1446" type="line"/>
      <point x="124" y="1446" type="line"/>
      <point x="124" y="1118" type="line"/>
      <point x="514" y="1118" type="line"/>
    </contour>
  </outline>
</glyph>
<glyph name="k" format="1">
  <advance width="1192"/>
  <unicode hex="006B"/>
  <outline>
    <contour>
      <point x="1182" y="0" type="line"/>
      <point x="802" y="606" type="line"/>
      <point x="1180" y="1034" type="line"/>
      <point x="774" y="1034" type="line"/>
      <point x="490" y="686" type="line"/>
      <point x="490" y="1486" type="line"/>
      <point x="100" y="1486" type="line"/>
      <point x="100" y="0" type="line"/>
      <point x="490" y="0" type="line"/>
      <point x="490" y="292" type="line"/>
      <point x="566" y="380" type="line"/>
      <point x="804" y="0" type="line"/>
    </contour>
    <contour>
      <point x="606" y="0" type="move" name="bottom"/>
    </contour>
  </outline>
</glyph>
<glyph name="l" format="1">
  <advance width="710"/>
  <unicode hex="006C"/>
  <outline>
    <contour>
      <point x="514" y="-22" type="curve" smooth="yes"/>
      <point x="564" y="-22"/>
      <point x="614" y="-8"/>
      <point x="660" y="10" type="curve"/>
      <point x="660" y="246" type="line"/>
      <point x="618" y="250" type="line"/>
      <point x="514" y="264"/>
      <point x="502" y="314"/>
      <point x="502" y="364" type="curve" smooth="yes"/>
      <point x="502" y="1486" type="line"/>
      <point x="120" y="1486" type="line"/>
      <point x="120" y="312" type="line"/>
      <point x="120" y="160"/>
      <point x="132" y="-22"/>
    </contour>
    <contour>
      <point x="286" y="0" type="move" name="bottom"/>
    </contour>
    <contour>
      <point x="314" y="1530" type="move" name="top"/>
    </contour>
    <contour>
      <point x="800" y="1530" type="move" name="topright"/>
    </contour>
  </outline>
</glyph>
<glyph name="m" format="2">
	<advance width="1887"/>
	<unicode hex="006D"/>
	<guideline x="612" y="207" angle="90"/>
	<outline>
		<contour>
			<point x="100" y="0" type="line"/>
			<point x="499" y="0" type="line"/>
			<point x="499" y="698" type="line"/>
			<point x="499" y="760"/>
			<point x="565" y="797"/>
			<point x="624" y="797" type="curve" smooth="yes"/>
			<point x="683" y="797"/>
			<point x="749" y="760"/>
			<point x="749" y="698" type="curve" smooth="yes"/>
			<point x="749" y="0" type="line"/>
			<point x="1146" y="0" type="line"/>
			<point x="1146" y="635" type="line" smooth="yes"/>
			<point x="1146" y="733"/>
			<point x="1161" y="797"/>
			<point x="1275" y="797" type="curve" smooth="yes"/>
			<point x="1335" y="797"/>
			<point x="1398" y="760"/>
			<point x="1398" y="698" type="curve" smooth="yes"/>
			<point x="1398" y="0" type="line"/>
			<point x="1797" y="0" type="line"/>
			<point x="1797" y="745" type="line" smooth="yes"/>
			<point x="1797" y="956"/>
			<point x="1615" y="1079"/>
			<point x="1451" y="1079" type="curve" smooth="yes"/>
			<point x="1337" y="1079"/>
			<point x="1204" y="1022"/>
			<point x="1130" y="932" type="curve"/>
			<point x="1060" y="1042"/>
			<point x="939" y="1079"/>
			<point x="837" y="1079" type="curve" smooth="yes"/>
			<point x="671" y="1079"/>
			<point x="562" y="1016"/>
			<point x="493" y="932" type="curve"/>
			<point x="493" y="1059" type="line"/>
			<point x="100" y="1059" type="line"/>
		</contour>
	</outline>
</glyph>
<glyph name="n" format="1">
  <advance width="1196"/>
  <unicode hex="006E"/>
  <outline>
    <contour>
      <point x="90" y="0" type="line"/>
      <point x="480" y="0" type="line"/>
      <point x="480" y="646" type="line"/>
      <point x="480" y="704"/>
      <point x="548" y="740"/>
      <point x="606" y="740" type="curve" smooth="yes"/>
      <point x="664" y="740"/>
      <point x="726" y="704"/>
      <point x="726" y="646" type="curve" smooth="yes"/>
      <point x="726" y="0" type="line"/>
      <point x="1116" y="0" type="line"/>
      <point x="1116" y="698" type="line" smooth="yes"/>
      <point x="1116" y="892"/>
      <point x="936" y="1038"/>
      <point x="754" y="1038" type="curve" smooth="yes"/>
      <point x="592" y="1038"/>
      <point x="540" y="976"/>
      <point x="476" y="910" type="curve"/>
      <point x="476" y="1034" type="line"/>
      <point x="90" y="1034" type="line"/>
    </contour>
    <contour>
      <point x="602" y="0" type="move" name="bottom"/>
    </contour>
    <contour>
      <point x="602" y="1034" type="move" name="top"/>
    </contour>
  </outline>
</glyph>
<glyph name="o" format="1">
  <advance width="1170"/>
  <unicode hex="006F"/>
  <outline>
    <contour>
      <point x="584" y="-20" type="curve" smooth="yes"/>
      <point x="906" y="-20"/>
      <point x="1110" y="202"/>
      <point x="1110" y="510" type="curve" smooth="yes"/>
      <point x="1110" y="824"/>
      <point x="910" y="1054"/>
      <point x="586" y="1054" type="curve" smooth="yes"/>
      <point x="278" y="1054"/>
      <point x="60" y="836"/>
      <point x="60" y="510" type="curve" smooth="yes"/>
      <point x="60" y="200"/>
      <point x="264" y="-20"/>
    </contour>
    <contour>
      <point x="586" y="262" type="curve" smooth="yes"/>
      <point x="460" y="262"/>
      <point x="438" y="414"/>
      <point x="438" y="524" type="curve" smooth="yes"/>
      <point x="438" y="636"/>
      <point x="460" y="776"/>
      <point x="586" y="776" type="curve" smooth="yes"/>
      <point x="710" y="776"/>
      <point x="732" y="636"/>
      <point x="732" y="524" type="curve" smooth="yes"/>
      <point x="732" y="414"/>
      <point x="710" y="262"/>
    </contour>
    <contour>
      <point x="580" y="0" type="move" name="bottom"/>
    </contour>
    <contour>
      <point x="954" y="714" type="move" name="horn"/>
    </contour>
    <contour>
      <point x="738" y="20" type="move" name="ogonek"/>
    </contour>
    <contour>
      <point x="586" y="1034" type="move" name="top"/>
    </contour>
  </outline>
</glyph>
<glyph name="p" format="2">
	<advance width="1225"/>
	<unicode hex="0070"/>
	<outline>
		<contour>
			<point x="100" y="-322" type="line"/>
			<point x="489" y="-322" type="line"/>
			<point x="489" y="156" type="line"/>
			<point x="527" y="50"/>
			<point x="668" y="-20"/>
			<point x="753" y="-20" type="curve" smooth="yes"/>
			<point x="973" y="-20"/>
			<point x="1175" y="126"/>
			<point x="1175" y="520" type="curve" smooth="yes"/>
			<point x="1175" y="886"/>
			<point x="1011" y="1054"/>
			<point x="795" y="1054" type="curve" smooth="yes"/>
			<point x="698" y="1054"/>
			<point x="569" y="1020"/>
			<point x="491" y="914" type="curve"/>
			<point x="491" y="1034" type="line"/>
			<point x="100" y="1034" type="line"/>
		</contour>
		<contour>
			<point x="651" y="252" type="curve"/>
			<point x="567" y="252"/>
			<point x="489" y="334"/>
			<point x="489" y="442" type="curve"/>
			<point x="489" y="598" type="line"/>
			<point x="489" y="688"/>
			<point x="567" y="780"/>
			<point x="651" y="780" type="curve" smooth="yes"/>
			<point x="737" y="780"/>
			<point x="815" y="688"/>
			<point x="815" y="520" type="curve" smooth="yes"/>
			<point x="815" y="334"/>
			<point x="737" y="252"/>
		</contour>
	</outline>
</glyph>
<glyph name="q" format="1">
  <advance width="1238"/>
  <unicode hex="0071"/>
  <outline>
    <contour>
      <point x="1138" y="-322" type="line"/>
      <point x="1138" y="1034" type="line"/>
      <point x="746" y="1034" type="line"/>
      <point x="746" y="954" type="line"/>
      <point x="666" y="1020"/>
      <point x="560" y="1054"/>
      <point x="462" y="1054" type="curve" smooth="yes"/>
      <point x="246" y="1054"/>
      <point x="60" y="886"/>
      <point x="60" y="520" type="curve" smooth="yes"/>
      <point x="60" y="126"/>
      <point x="254" y="-20"/>
      <point x="472" y="-20" type="curve" smooth="yes"/>
      <point x="560" y="-20"/>
      <point x="650" y="4"/>
      <point x="748" y="96" type="curve"/>
      <point x="748" y="-322" type="line"/>
    </contour>
    <contour>
      <point x="608" y="232" type="curve"/>
      <point x="520" y="232"/>
      <point x="454" y="342"/>
      <point x="454" y="528" type="curve" smooth="yes"/>
      <point x="454" y="716"/>
      <point x="520" y="800"/>
      <point x="608" y="800" type="curve" smooth="yes"/>
      <point x="696" y="800"/>
      <point x="748" y="716"/>
      <point x="748" y="528" type="curve"/>
      <point x="748" y="528" type="line"/>
      <point x="748" y="342"/>
      <point x="696" y="232"/>
    </contour>
  </outline>
</glyph>
<glyph name="r" format="1">
  <advance width="826"/>
  <unicode hex="0072"/>
  <outline>
    <contour>
      <point x="90" y="0" type="line"/>
      <point x="480" y="0" type="line"/>
      <point x="480" y="496" type="line" smooth="yes"/>
      <point x="480" y="604"/>
      <point x="526" y="718"/>
      <point x="816" y="688" type="curve"/>
      <point x="814" y="1054" type="line"/>
      <point x="622" y="1054"/>
      <point x="514" y="914"/>
      <point x="466" y="748" type="curve"/>
      <point x="466" y="1034" type="line"/>
      <point x="90" y="1034" type="line"/>
    </contour>
    <contour>
      <point x="308" y="0" type="move" name="bottom"/>
    </contour>
    <contour>
      <point x="462" y="1034" type="move" name="top"/>
    </contour>
  </outline>
</glyph>
<glyph name="s" format="1">
  <advance width="1066"/>
  <unicode hex="0073"/>
  <outline>
    <contour>
      <point x="546" y="-20" type="curve" smooth="yes"/>
      <point x="810" y="-20"/>
      <point x="1016" y="98"/>
      <point x="1016" y="320" type="curve" smooth="yes"/>
      <point x="1016" y="406"/>
      <point x="970" y="580"/>
      <point x="704" y="644" type="curve"/>
      <point x="572" y="668" type="line"/>
      <point x="460" y="686"/>
      <point x="416" y="706"/>
      <point x="416" y="742" type="curve" smooth="yes"/>
      <point x="416" y="782"/>
      <point x="468" y="798"/>
      <point x="540" y="798" type="curve" smooth="yes"/>
      <point x="612" y="798"/>
      <point x="678" y="774"/>
      <point x="694" y="712" type="curve"/>
      <point x="1010" y="712" type="line"/>
      <point x="1018" y="922"/>
      <point x="832" y="1054"/>
      <point x="550" y="1054" type="curve" smooth="yes"/>
      <point x="248" y="1054"/>
      <point x="78" y="902"/>
      <point x="80" y="710" type="curve" smooth="yes"/>
      <point x="82" y="524"/>
      <point x="214" y="430"/>
      <point x="412" y="394" type="curve"/>
      <point x="566" y="370" type="line"/>
      <point x="658" y="356"/>
      <point x="690" y="336"/>
      <point x="690" y="298" type="curve" smooth="yes"/>
      <point x="690" y="256"/>
      <point x="630" y="236"/>
      <point x="544" y="236" type="curve" smooth="yes"/>
      <point x="510" y="236"/>
      <point x="406" y="248"/>
      <point x="380" y="348" type="curve"/>
      <point x="50" y="348" type="line"/>
      <point x="94" y="84"/>
      <point x="330" y="-20"/>
    </contour>
    <contour>
      <point x="548" y="0" type="move" name="bottom"/>
    </contour>
    <contour>
      <point x="550" y="1034" type="move" name="top"/>
    </contour>
  </outline>
</glyph>
<glyph name="t" format="1">
  <advance width="932"/>
  <unicode hex="0074"/>
  <outline>
    <contour>
      <point x="852" y="770" type="line"/>
      <point x="852" y="1036" type="line"/>
      <point x="626" y="1036" type="line"/>
      <point x="626" y="1356" type="line"/>
      <point x="352" y="1356" type="line"/>
      <point x="252" y="1034" type="line"/>
      <point x="70" y="1034" type="line"/>
      <point x="70" y="770" type="line"/>
      <point x="238" y="770" type="line"/>
      <point x="238" y="284" type="line" smooth="yes"/>
      <point x="238" y="118"/>
      <point x="320" y="-16"/>
      <point x="646" y="-16" type="curve" smooth="yes"/>
      <point x="770" y="-16"/>
      <point x="824" y="2"/>
      <point x="852" y="16" type="curve"/>
      <point x="852" y="246" type="line"/>
      <point x="690" y="246" type="line" smooth="yes"/>
      <point x="656" y="246"/>
      <point x="628" y="256"/>
      <point x="628" y="302" type="curve" smooth="yes"/>
      <point x="626" y="770" type="line"/>
    </contour>
    <contour>
      <point x="546" y="18" type="move" name="bottom"/>
    </contour>
    <contour>
      <point x="474" y="516" type="move" name="center"/>
    </contour>
    <contour>
      <point x="894" y="1590" type="move" name="topright"/>
    </contour>
  </outline>
</glyph>
<glyph name="u" format="1">
  <advance width="1186"/>
  <unicode hex="0075"/>
  <outline>
    <contour>
      <point x="462" y="-20" type="curve" smooth="yes"/>
      <point x="562" y="-20"/>
      <point x="726" y="6"/>
      <point x="764" y="212" type="curve"/>
      <point x="810" y="0" type="line"/>
      <point x="1098" y="0" type="line"/>
      <point x="1106" y="1034" type="line"/>
      <point x="712" y="1034" type="line"/>
      <point x="712" y="360" type="line"/>
      <point x="712" y="300"/>
      <point x="668" y="254"/>
      <point x="590" y="254" type="curve" smooth="yes"/>
      <point x="512" y="254"/>
      <point x="470" y="300"/>
      <point x="470" y="360" type="curve" smooth="yes"/>
      <point x="470" y="1034" type="line"/>
      <point x="80" y="1034" type="line"/>
      <point x="80" y="306" type="line" smooth="yes"/>
      <point x="80" y="98"/>
      <point x="294" y="-20"/>
    </contour>
    <contour>
      <point x="594" y="0" type="move" name="bottom"/>
    </contour>
    <contour>
      <point x="1042" y="714" type="move" name="horn"/>
    </contour>
    <contour>
      <point x="1044" y="20" type="move" name="ogonek"/>
    </contour>
    <contour>
      <point x="592" y="1034" type="move" name="top"/>
    </contour>
  </outline>
</glyph>
<glyph name="v" format="1">
  <advance width="1034"/>
  <unicode hex="0076"/>
  <outline>
    <contour>
      <point x="1044" y="1034" type="line"/>
      <point x="692" y="1034" type="line"/>
      <point x="518" y="506" type="line"/>
      <point x="518" y="506" type="line"/>
      <point x="336" y="1034" type="line"/>
      <point x="-10" y="1034" type="line"/>
      <point x="392" y="0" type="line"/>
      <point x="642" y="0" type="line"/>
    </contour>
  </outline>
</glyph>
<glyph name="w" format="1">
  <advance width="1636"/>
  <unicode hex="0077"/>
  <outline>
    <contour>
      <point x="1606" y="1034" type="line"/>
      <point x="1260" y="1034" type="line"/>
      <point x="1100" y="530" type="line"/>
      <point x="1100" y="530" type="line"/>
      <point x="952" y="1034" type="line"/>
      <point x="682" y="1034" type="line"/>
      <point x="530" y="532" type="line"/>
      <point x="530" y="532" type="line"/>
      <point x="368" y="1034" type="line"/>
      <point x="30" y="1034" type="line"/>
      <point x="380" y="0" type="line"/>
      <point x="646" y="0" type="line"/>
      <point x="810" y="502" type="line"/>
      <point x="964" y="0" type="line"/>
      <point x="1242" y="0" type="line"/>
    </contour>
    <contour>
      <point x="826" y="1034" type="move" name="top"/>
    </contour>
  </outline>
</glyph>
<glyph name="x" format="1">
  <advance width="1258"/>
  <unicode hex="0078"/>
  <outline>
    <contour>
      <point x="1228" y="0" type="line"/>
      <point x="832" y="540" type="line"/>
      <point x="1196" y="1034" type="line"/>
      <point x="796" y="1034" type="line"/>
      <point x="632" y="810" type="line"/>
      <point x="466" y="1034" type="line"/>
      <point x="66" y="1034" type="line"/>
      <point x="426" y="540" type="line"/>
      <point x="30" y="0" type="line"/>
      <point x="430" y="0" type="line"/>
      <point x="630" y="274" type="line"/>
      <point x="828" y="0" type="line"/>
    </contour>
  </outline>
</glyph>
<glyph name="y" format="1">
  <advance width="1222"/>
  <unicode hex="0079"/>
  <outline>
    <contour>
      <point x="338" y="-330" type="curve" smooth="yes"/>
      <point x="516" y="-330"/>
      <point x="654" y="-266"/>
      <point x="788" y="60" type="curve" smooth="yes"/>
      <point x="1192" y="1034" type="line"/>
      <point x="812" y="1034" type="line"/>
      <point x="608" y="472" type="line"/>
      <point x="412" y="1034" type="line"/>
      <point x="30" y="1034" type="line"/>
      <point x="432" y="60" type="line"/>
      <point x="428" y="40" type="line"/>
      <point x="424" y="28"/>
      <point x="414" y="-62"/>
      <point x="212" y="-46" type="curve" smooth="yes"/>
      <point x="112" y="-40" type="line"/>
      <point x="112" y="-286" type="line" smooth="yes"/>
      <point x="112" y="-286"/>
      <point x="178" y="-330"/>
    </contour>
    <contour>
      <point x="608" y="1034" type="move" name="top"/>
    </contour>
  </outline>
</glyph>
<glyph name="z" format="1">
  <advance width="1031"/>
  <unicode hex="007A"/>
  <outline>
    <contour>
      <point x="40" y="0" type="line"/>
      <point x="961" y="0" type="line"/>
      <point x="961" y="266" type="line"/>
      <point x="515" y="266" type="line"/>
      <point x="959" y="828" type="line"/>
      <point x="959" y="1034" type="line"/>
      <point x="68" y="1034" type="line"/>
      <point x="68" y="768" type="line"/>
      <point x="485" y="768" type="line"/>
      <point x="40" y="206" type="line"/>
    </contour>
    <contour>
      <point x="500" y="0" type="move" name="bottom"/>
    </contour>
    <contour>
      <point x="500" y="1034" type="move" name="top"/>
    </contour>
  </outline>
</glyph>
<glyph name="braceleft" format="2">
	<advance width="893"/>
	<unicode hex="007B"/>
	<outline>
		<contour>
			<point x="262" y="1210" type="curve" smooth="yes"/>
			<point x="262" y="848" type="line" smooth="yes"/>
			<point x="262" y="729"/>
			<point x="199" y="680"/>
			<point x="31" y="680" type="curve"/>
			<point x="31" y="496" type="line"/>
			<point x="197" y="496"/>
			<point x="262" y="432"/>
			<point x="262" y="336" type="curve" smooth="yes"/>
			<point x="262" y="-57" type="line" smooth="yes"/>
			<point x="262" y="-248"/>
			<point x="463" y="-330"/>
			<point x="627" y="-330" type="curve" smooth="yes"/>
			<point x="811" y="-330" type="line"/>
			<point x="811" y="-117" type="line"/>
			<point x="707" y="-117" type="line" smooth="yes"/>
			<point x="608" y="-117"/>
			<point x="580" y="-86"/>
			<point x="580" y="-10" type="curve" smooth="yes"/>
			<point x="580" y="373" type="line" smooth="yes"/>
			<point x="573" y="541"/>
			<point x="444" y="573"/>
			<point x="352" y="582" type="curve" smooth="yes"/>
			<point x="334" y="584"/>
			<point x="336" y="592"/>
			<point x="352" y="594" type="curve" smooth="yes"/>
			<point x="446" y="604"/>
			<point x="573" y="647"/>
			<point x="580" y="782" type="curve" smooth="yes"/>
			<point x="580" y="1161" type="line" smooth="yes"/>
			<point x="580" y="1214"/>
			<point x="580" y="1268"/>
			<point x="707" y="1268" type="curve" smooth="yes"/>
			<point x="811" y="1268" type="line"/>
			<point x="811" y="1481" type="line"/>
			<point x="621" y="1481" type="line" smooth="yes"/>
			<point x="463" y="1481"/>
			<point x="262" y="1397"/>
		</contour>
	</outline>
</glyph>
<glyph name="bar" format="1">
  <advance width="616"/>
  <unicode hex="007C"/>
  <outline>
    <contour>
      <point x="446" y="-322" type="line"/>
      <point x="446" y="1652" type="line"/>
      <point x="170" y="1652" type="line"/>
      <point x="170" y="-322" type="line"/>
    </contour>
  </outline>
</glyph>
<glyph name="asciitilde" format="2">
	<advance width="1335"/>
	<unicode hex="007E"/>
	<outline>
		<contour>
			<point x="1202" y="780" type="curve"/>
			<point x="1087" y="965" type="line"/>
			<point x="1034" y="868"/>
			<point x="952" y="793"/>
			<point x="858" y="793" type="curve" smooth="yes"/>
			<point x="733" y="793"/>
			<point x="655" y="934"/>
			<point x="479" y="934" type="curve" smooth="yes"/>
			<point x="336" y="934"/>
			<point x="233" y="840"/>
			<point x="113" y="711" type="curve"/>
			<point x="225" y="522" type="line"/>
			<point x="299" y="608"/>
			<point x="369" y="694"/>
			<point x="473" y="694" type="curve" smooth="yes"/>
			<point x="608" y="694"/>
			<point x="698" y="551"/>
			<point x="866" y="551" type="curve" smooth="yes"/>
			<point x="983" y="551"/>
			<point x="1116" y="623"/>
		</contour>
	</outline>
</glyph>
<glyph name="exclamdown" format="2">
	<advance width="627"/>
	<unicode hex="00A1"/>
	<outline>
		<contour>
			<point x="512" y="666" type="line"/>
			<point x="512" y="1059" type="line"/>
			<point x="92" y="1059" type="line"/>
			<point x="92" y="666" type="line"/>
		</contour>
		<contour>
			<point x="535" y="-330" type="line"/>
			<point x="426" y="526" type="line"/>
			<point x="184" y="526" type="line"/>
			<point x="72" y="-330" type="line"/>
		</contour>
	</outline>
</glyph>
<glyph name="cent" format="2">
	<advance width="1184"/>
	<unicode hex="00A2"/>
	<outline>
		<contour>
			<point x="762" y="0" type="line"/>
			<point x="762" y="391" type="line"/>
			<point x="512" y="391" type="line"/>
			<point x="512" y="0" type="line"/>
		</contour>
		<contour>
			<point x="762" y="1090" type="line"/>
			<point x="762" y="1481" type="line"/>
			<point x="512" y="1481" type="line"/>
			<point x="512" y="1090" type="line"/>
		</contour>
		<component base="c" xOffset="41" yOffset="227"/>
	</outline>
</glyph>
<glyph name="sterling" format="2">
	<advance width="1393"/>
	<unicode hex="00A3"/>
	<outline>
		<contour>
			<point x="51" y="0" type="line"/>
			<point x="817" y="0" type="line" smooth="yes"/>
			<point x="1092" y="0"/>
			<point x="1253" y="143"/>
			<point x="1321" y="422" type="curve"/>
			<point x="987" y="487" type="line"/>
			<point x="946" y="371"/>
			<point x="909" y="328"/>
			<point x="784" y="328" type="curve" smooth="yes"/>
			<point x="582" y="328" type="line"/>
			<point x="653" y="391"/>
			<point x="680" y="420"/>
			<point x="700" y="485" type="curve" smooth="yes"/>
			<point x="721" y="547"/>
			<point x="723" y="594"/>
			<point x="721" y="684" type="curve"/>
			<point x="965" y="684" type="line"/>
			<point x="965" y="891" type="line"/>
			<point x="692" y="891" type="line"/>
			<point x="678" y="985"/>
			<point x="672" y="1032"/>
			<point x="672" y="1071" type="curve" smooth="yes"/>
			<point x="672" y="1149"/>
			<point x="709" y="1194"/>
			<point x="770" y="1194" type="curve" smooth="yes"/>
			<point x="827" y="1194"/>
			<point x="854" y="1159"/>
			<point x="895" y="1063" type="curve"/>
			<point x="1239" y="1161" type="line"/>
			<point x="1143" y="1386"/>
			<point x="952" y="1501"/>
			<point x="707" y="1501" type="curve" smooth="yes"/>
			<point x="436" y="1501"/>
			<point x="186" y="1364"/>
			<point x="207" y="1090" type="curve" smooth="yes"/>
			<point x="217" y="891" type="line"/>
			<point x="51" y="891" type="line"/>
			<point x="51" y="684" type="line"/>
			<point x="262" y="684" type="line"/>
			<point x="274" y="578"/>
			<point x="281" y="535"/>
			<point x="281" y="473" type="curve" smooth="yes"/>
			<point x="281" y="365"/>
			<point x="215" y="326"/>
			<point x="115" y="326" type="curve" smooth="yes"/>
			<point x="51" y="326" type="line"/>
		</contour>
	</outline>
</glyph>
<glyph name="currency" format="2">
	<advance width="1255"/>
	<unicode hex="00A4"/>
	<outline>
		<contour>
			<point x="623" y="252" type="curve" smooth="yes"/>
			<point x="715" y="252"/>
			<point x="801" y="281"/>
			<point x="881" y="330" type="curve"/>
			<point x="1008" y="201" type="line"/>
			<point x="1163" y="360" type="line"/>
			<point x="1038" y="483" type="line" smooth="yes"/>
			<point x="1036" y="485"/>
			<point x="1036" y="489"/>
			<point x="1038" y="494" type="curve" smooth="yes"/>
			<point x="1087" y="565"/>
			<point x="1110" y="657"/>
			<point x="1110" y="745" type="curve" smooth="yes"/>
			<point x="1110" y="840"/>
			<point x="1083" y="924"/>
			<point x="1034" y="1004" type="curve"/>
			<point x="1163" y="1130" type="line"/>
			<point x="1008" y="1290" type="line"/>
			<point x="891" y="1171" type="line" smooth="yes"/>
			<point x="885" y="1165"/>
			<point x="877" y="1165"/>
			<point x="868" y="1169" type="curve" smooth="yes"/>
			<point x="791" y="1214"/>
			<point x="702" y="1239"/>
			<point x="612" y="1239" type="curve" smooth="yes"/>
			<point x="524" y="1239"/>
			<point x="434" y="1208"/>
			<point x="356" y="1161" type="curve"/>
			<point x="207" y="1311" type="line"/>
			<point x="51" y="1149" type="line"/>
			<point x="182" y="1018" type="line" smooth="yes"/>
			<point x="195" y="1006"/>
			<point x="195" y="999"/>
			<point x="186" y="983" type="curve" smooth="yes"/>
			<point x="143" y="909"/>
			<point x="125" y="834"/>
			<point x="125" y="743" type="curve" smooth="yes"/>
			<point x="125" y="641"/>
			<point x="150" y="569"/>
			<point x="199" y="487" type="curve"/>
			<point x="51" y="342" type="line"/>
			<point x="207" y="182" type="line"/>
			<point x="340" y="313" type="line" smooth="yes"/>
			<point x="348" y="322"/>
			<point x="360" y="326"/>
			<point x="375" y="317" type="curve" smooth="yes"/>
			<point x="449" y="274"/>
			<point x="535" y="252"/>
		</contour>
		<contour>
			<point x="616" y="500" type="curve" smooth="yes"/>
			<point x="477" y="500"/>
			<point x="371" y="614"/>
			<point x="371" y="745" type="curve" smooth="yes"/>
			<point x="371" y="874"/>
			<point x="477" y="991"/>
			<point x="616" y="991" type="curve" smooth="yes"/>
			<point x="758" y="991"/>
			<point x="862" y="874"/>
			<point x="862" y="745" type="curve" smooth="yes"/>
			<point x="862" y="614"/>
			<point x="758" y="500"/>
		</contour>
	</outline>
</glyph>
<glyph name="yen" format="2">
	<advance width="1438"/>
	<unicode hex="00A5"/>
	<outline>
		<contour>
			<point x="1468" y="1481" type="line"/>
			<point x="1053" y="1481" type="line"/>
			<point x="772" y="965" type="line"/>
			<point x="485" y="1481" type="line"/>
			<point x="-31" y="1481" type="line"/>
			<point x="500" y="616" type="line"/>
			<point x="500" y="0" type="line"/>
			<point x="952" y="0" type="line"/>
			<point x="952" y="653" type="line"/>
		</contour>
		<contour>
			<point x="1251" y="731" type="line"/>
			<point x="201" y="731" type="line"/>
			<point x="201" y="528" type="line"/>
			<point x="1251" y="528" type="line"/>
		</contour>
		<contour>
			<point x="1251" y="391" type="line"/>
			<point x="201" y="391" type="line"/>
			<point x="201" y="190" type="line"/>
			<point x="1251" y="190" type="line"/>
		</contour>
	</outline>
</glyph>
<glyph name="brokenbar" format="1">
  <advance width="556"/>
  <unicode hex="00A6"/>
  <outline>
    <contour>
      <point x="416" y="824" type="line"/>
      <point x="416" y="1652" type="line"/>
      <point x="140" y="1652" type="line"/>
      <point x="140" y="824" type="line"/>
    </contour>
    <contour>
      <point x="416" y="-322" type="line"/>
      <point x="416" y="506" type="line"/>
      <point x="140" y="506" type="line"/>
      <point x="140" y="-322" type="line"/>
    </contour>
  </outline>
</glyph>
<glyph name="section" format="2">
	<advance width="1092"/>
	<unicode hex="00A7"/>
	<outline>
		<contour>
			<point x="539" y="-170" type="curve" smooth="yes"/>
			<point x="858" y="-170"/>
			<point x="1020" y="-20"/>
			<point x="1020" y="195" type="curve" smooth="yes"/>
			<point x="1020" y="307"/>
			<point x="975" y="383"/>
			<point x="850" y="453" type="curve"/>
			<point x="946" y="514"/>
			<point x="1001" y="600"/>
			<point x="1001" y="723" type="curve" smooth="yes"/>
			<point x="1001" y="897"/>
			<point x="895" y="985"/>
			<point x="653" y="1075" type="curve"/>
			<point x="504" y="1130" type="line"/>
			<point x="479" y="1139"/>
			<point x="428" y="1159"/>
			<point x="428" y="1198" type="curve"/>
			<point x="428" y="1243"/>
			<point x="467" y="1272"/>
			<point x="528" y="1272" type="curve" smooth="yes"/>
			<point x="627" y="1272"/>
			<point x="688" y="1206"/>
			<point x="743" y="1149" type="curve"/>
			<point x="981" y="1262" type="line"/>
			<point x="924" y="1384"/>
			<point x="752" y="1501"/>
			<point x="520" y="1501" type="curve" smooth="yes"/>
			<point x="244" y="1501"/>
			<point x="80" y="1352"/>
			<point x="80" y="1159" type="curve" smooth="yes"/>
			<point x="80" y="1063"/>
			<point x="121" y="987"/>
			<point x="221" y="920" type="curve"/>
			<point x="119" y="866"/>
			<point x="59" y="774"/>
			<point x="59" y="649" type="curve" smooth="yes"/>
			<point x="59" y="475"/>
			<point x="166" y="387"/>
			<point x="408" y="297" type="curve" smooth="yes"/>
			<point x="547" y="246" type="line" smooth="yes"/>
			<point x="645" y="209"/>
			<point x="674" y="180"/>
			<point x="674" y="139" type="curve" smooth="yes"/>
			<point x="674" y="84"/>
			<point x="614" y="59"/>
			<point x="528" y="59" type="curve" smooth="yes"/>
			<point x="391" y="59"/>
			<point x="330" y="125"/>
			<point x="279" y="184" type="curve"/>
			<point x="41" y="70" type="line"/>
			<point x="98" y="-51"/>
			<point x="272" y="-170"/>
		</contour>
		<contour>
			<point x="598" y="565" type="curve"/>
			<point x="514" y="598" type="line" smooth="yes"/>
			<point x="397" y="641"/>
			<point x="373" y="662"/>
			<point x="373" y="709" type="curve" smooth="yes"/>
			<point x="373" y="756"/>
			<point x="397" y="797"/>
			<point x="473" y="803" type="curve"/>
			<point x="547" y="774" type="line" smooth="yes"/>
			<point x="637" y="741"/>
			<point x="678" y="709"/>
			<point x="686" y="670" type="curve" smooth="yes"/>
			<point x="696" y="608"/>
			<point x="664" y="557"/>
		</contour>
	</outline>
</glyph>
<glyph name="copyright" format="2">
	<advance width="1726"/>
	<unicode hex="00A9"/>
	<outline>
		<contour>
			<point x="852" y="-20" type="curve" smooth="yes"/>
			<point x="1272" y="-20"/>
			<point x="1614" y="317"/>
			<point x="1614" y="741" type="curve" smooth="yes"/>
			<point x="1614" y="1159"/>
			<point x="1272" y="1501"/>
			<point x="852" y="1501" type="curve" smooth="yes"/>
			<point x="432" y="1501"/>
			<point x="92" y="1159"/>
			<point x="92" y="741" type="curve" smooth="yes"/>
			<point x="92" y="317"/>
			<point x="432" y="-20"/>
		</contour>
		<contour>
			<point x="852" y="182" type="curve" smooth="yes"/>
			<point x="522" y="182"/>
			<point x="315" y="399"/>
			<point x="315" y="741" type="curve" smooth="yes"/>
			<point x="315" y="1079"/>
			<point x="522" y="1303"/>
			<point x="852" y="1303" type="curve" smooth="yes"/>
			<point x="1178" y="1303"/>
			<point x="1391" y="1079"/>
			<point x="1391" y="741" type="curve" smooth="yes"/>
			<point x="1391" y="399"/>
			<point x="1178" y="182"/>
		</contour>
		<contour>
			<point x="858" y="1165" type="curve" smooth="yes"/>
			<point x="616" y="1165"/>
			<point x="436" y="995"/>
			<point x="436" y="741" type="curve" smooth="yes"/>
			<point x="436" y="494"/>
			<point x="614" y="322"/>
			<point x="858" y="322" type="curve" smooth="yes"/>
			<point x="1112" y="322"/>
			<point x="1217" y="520"/>
			<point x="1231" y="608" type="curve"/>
			<point x="1042" y="645" type="line"/>
			<point x="1006" y="571"/>
			<point x="973" y="514"/>
			<point x="885" y="514" type="curve" smooth="yes"/>
			<point x="797" y="514"/>
			<point x="745" y="573"/>
			<point x="745" y="745" type="curve" smooth="yes"/>
			<point x="745" y="909"/>
			<point x="793" y="973"/>
			<point x="866" y="973" type="curve" smooth="yes"/>
			<point x="942" y="973"/>
			<point x="958" y="901"/>
			<point x="965" y="852" type="curve"/>
			<point x="1233" y="866" type="line"/>
			<point x="1208" y="1001"/>
			<point x="1083" y="1165"/>
		</contour>
	</outline>
</glyph>
<glyph name="ordfeminine" format="1">
  <advance width="809"/>
  <unicode hex="00AA"/>
  <outline>
    <contour>
      <point x="277" y="796" type="curve" smooth="yes"/>
      <point x="353" y="796"/>
      <point x="397" y="820"/>
      <point x="467" y="864" type="curve"/>
      <point x="481" y="808" type="line"/>
      <point x="719" y="808" type="line"/>
      <point x="705" y="856" type="line"/>
      <point x="697" y="886"/>
      <point x="697" y="988"/>
      <point x="697" y="1002" type="curve" smooth="yes"/>
      <point x="697" y="1098"/>
      <point x="697" y="1152"/>
      <point x="697" y="1266" type="curve" smooth="yes"/>
      <point x="697" y="1390"/>
      <point x="631" y="1464"/>
      <point x="401" y="1466" type="curve" smooth="yes"/>
      <point x="205" y="1466"/>
      <point x="133" y="1404"/>
      <point x="81" y="1286" type="curve"/>
      <point x="291" y="1246" type="line"/>
      <point x="313" y="1306"/>
      <point x="355" y="1320"/>
      <point x="395" y="1320" type="curve" smooth="yes"/>
      <point x="419" y="1320"/>
      <point x="467" y="1312"/>
      <point x="467" y="1250" type="curve"/>
      <point x="467" y="1210" type="line"/>
      <point x="419" y="1210" type="line" smooth="yes"/>
      <point x="203" y="1210"/>
      <point x="65" y="1114"/>
      <point x="65" y="982" type="curve" smooth="yes"/>
      <point x="65" y="872"/>
      <point x="139" y="796"/>
    </contour>
    <contour>
      <point x="375" y="940" type="curve" smooth="yes"/>
      <point x="327" y="940"/>
      <point x="301" y="964"/>
      <point x="301" y="998" type="curve" smooth="yes"/>
      <point x="301" y="1054"/>
      <point x="355" y="1090"/>
      <point x="427" y="1090" type="curve" smooth="yes"/>
      <point x="467" y="1090" type="line"/>
      <point x="467" y="1002" type="line" smooth="yes"/>
      <point x="467" y="982"/>
      <point x="459" y="974"/>
      <point x="447" y="964" type="curve" smooth="yes"/>
      <point x="431" y="950"/>
      <point x="403" y="940"/>
    </contour>
  </outline>
</glyph>
<glyph name="guillemetleft" format="2">
	<advance width="1106"/>
	<unicode hex="00AB"/>
	<outline>
		<contour>
			<point x="831" y="514" type="line"/>
			<point x="963" y="924" type="line"/>
			<point x="756" y="924" type="line"/>
			<point x="537" y="514" type="line"/>
			<point x="758" y="121" type="line"/>
			<point x="963" y="121" type="line"/>
		</contour>
		<contour>
			<point x="416" y="514" type="line"/>
			<point x="547" y="924" type="line"/>
			<point x="340" y="924" type="line"/>
			<point x="123" y="514" type="line"/>
			<point x="342" y="121" type="line"/>
			<point x="547" y="121" type="line"/>
		</contour>
	</outline>
</glyph>
<glyph name="logicalnot" format="2">
	<advance width="1238"/>
	<unicode hex="00AC"/>
	<outline>
		<contour>
			<point x="1128" y="866" type="line"/>
			<point x="110" y="866" type="line"/>
			<point x="110" y="590" type="line"/>
			<point x="1128" y="590" type="line"/>
		</contour>
		<contour>
			<point x="1128" y="766" type="line"/>
			<point x="816" y="766" type="line"/>
			<point x="816" y="274" type="line"/>
			<point x="1128" y="274" type="line"/>
		</contour>
	</outline>
</glyph>
<glyph name="registered" format="2">
	<advance width="1156"/>
	<unicode hex="00AE"/>
	<outline>
		<contour>
			<point x="569" y="549" type="curve" smooth="yes"/>
			<point x="831" y="549"/>
			<point x="1044" y="760"/>
			<point x="1044" y="1024" type="curve" smooth="yes"/>
			<point x="1044" y="1288"/>
			<point x="831" y="1501"/>
			<point x="569" y="1501" type="curve" smooth="yes"/>
			<point x="303" y="1501"/>
			<point x="92" y="1288"/>
			<point x="92" y="1024" type="curve" smooth="yes"/>
			<point x="92" y="760"/>
			<point x="303" y="549"/>
		</contour>
		<contour>
			<point x="569" y="690" type="curve" smooth="yes"/>
			<point x="371" y="690"/>
			<point x="248" y="821"/>
			<point x="248" y="1024" type="curve" smooth="yes"/>
			<point x="248" y="1227"/>
			<point x="371" y="1360"/>
			<point x="569" y="1360" type="curve" smooth="yes"/>
			<point x="764" y="1360"/>
			<point x="889" y="1227"/>
			<point x="889" y="1024" type="curve" smooth="yes"/>
			<point x="889" y="821"/>
			<point x="764" y="690"/>
		</contour>
		<contour>
			<point x="369" y="786" type="line"/>
			<point x="512" y="786" type="line"/>
			<point x="512" y="983" type="line"/>
			<point x="571" y="983" type="line"/>
			<point x="637" y="786" type="line"/>
			<point x="795" y="786" type="line"/>
			<point x="700" y="999" type="line"/>
			<point x="754" y="1022"/>
			<point x="793" y="1067"/>
			<point x="793" y="1126" type="curve" smooth="yes"/>
			<point x="793" y="1210"/>
			<point x="719" y="1257"/>
			<point x="598" y="1257" type="curve" smooth="yes"/>
			<point x="369" y="1257" type="line"/>
		</contour>
		<contour>
			<point x="512" y="1077" type="line"/>
			<point x="512" y="1163" type="line"/>
			<point x="590" y="1163" type="line" smooth="yes"/>
			<point x="616" y="1163"/>
			<point x="643" y="1149"/>
			<point x="643" y="1120" type="curve"/>
			<point x="643" y="1096"/>
			<point x="625" y="1077"/>
			<point x="596" y="1077" type="curve"/>
		</contour>
	</outline>
</glyph>
<glyph name="degree" format="2">
	<advance width="991"/>
	<unicode hex="00B0"/>
	<outline>
		<contour>
			<point x="848" y="1348" type="curve" smooth="yes"/>
			<point x="848" y="1559"/>
			<point x="692" y="1712"/>
			<point x="485" y="1712" type="curve" smooth="yes"/>
			<point x="276" y="1712"/>
			<point x="123" y="1559"/>
			<point x="123" y="1348" type="curve" smooth="yes"/>
			<point x="123" y="1135"/>
			<point x="276" y="985"/>
			<point x="485" y="985" type="curve" smooth="yes"/>
			<point x="692" y="985"/>
			<point x="848" y="1135"/>
		</contour>
		<contour>
			<point x="625" y="1346" type="curve" smooth="yes"/>
			<point x="625" y="1257"/>
			<point x="569" y="1196"/>
			<point x="483" y="1196" type="curve" smooth="yes"/>
			<point x="395" y="1196"/>
			<point x="342" y="1257"/>
			<point x="340" y="1346" type="curve" smooth="yes"/>
			<point x="338" y="1432"/>
			<point x="395" y="1493"/>
			<point x="481" y="1493" type="curve" smooth="yes"/>
			<point x="569" y="1493"/>
			<point x="625" y="1432"/>
		</contour>
	</outline>
</glyph>
<glyph name="plusminus" format="2">
	<advance width="1268"/>
	<unicode hex="00B1"/>
	<outline>
		<contour>
			<point x="1155" y="311" type="line"/>
			<point x="113" y="311" type="line"/>
			<point x="113" y="31" type="line"/>
			<point x="1155" y="31" type="line"/>
		</contour>
		<contour>
			<point x="1155" y="1077" type="line"/>
			<point x="113" y="1077" type="line"/>
			<point x="113" y="795" type="line"/>
			<point x="1155" y="795" type="line"/>
		</contour>
		<contour>
			<point x="776" y="416" type="line"/>
			<point x="776" y="1458" type="line"/>
			<point x="494" y="1458" type="line"/>
			<point x="494" y="416" type="line"/>
		</contour>
	</outline>
</glyph>
<glyph name="micro" format="1">
  <advance width="1232"/>
  <unicode hex="00B5"/>
  <outline>
    <contour>
      <point x="90" y="-330" type="line"/>
      <point x="490" y="-330" type="line"/>
      <point x="490" y="68" type="line"/>
      <point x="536" y="60"/>
      <point x="586" y="64"/>
      <point x="628" y="78" type="curve" smooth="yes"/>
      <point x="676" y="94"/>
      <point x="718" y="124"/>
      <point x="744" y="164" type="curve"/>
      <point x="744" y="0" type="line"/>
      <point x="1134" y="0" type="line"/>
      <point x="1142" y="1060" type="line"/>
      <point x="738" y="1060" type="line"/>
      <point x="738" y="458" type="line"/>
      <point x="734" y="394"/>
      <point x="686" y="352"/>
      <point x="618" y="352" type="curve" smooth="yes"/>
      <point x="542" y="352"/>
      <point x="490" y="394"/>
      <point x="490" y="458" type="curve"/>
      <point x="490" y="1060" type="line"/>
      <point x="90" y="1060" type="line"/>
    </contour>
  </outline>
</glyph>
<glyph name="paragraph" format="1">
  <advance width="1270"/>
  <unicode hex="00B6"/>
  <outline>
    <contour>
      <point x="1160" y="1234" type="line"/>
      <point x="1160" y="1446" type="line"/>
      <point x="512" y="1446" type="line" smooth="yes"/>
      <point x="210" y="1446"/>
      <point x="40" y="1264"/>
      <point x="40" y="1024" type="curve" smooth="yes"/>
      <point x="40" y="746"/>
      <point x="238" y="624"/>
      <point x="442" y="600" type="curve"/>
      <point x="442" y="-166" type="line"/>
      <point x="672" y="-166" type="line"/>
      <point x="672" y="1234" type="line"/>
      <point x="802" y="1234" type="line"/>
      <point x="802" y="-166" type="line"/>
      <point x="1032" y="-166" type="line"/>
      <point x="1032" y="1234" type="line"/>
    </contour>
  </outline>
</glyph>
<glyph name="periodcentered" format="1">
  <advance width="572"/>
  <unicode hex="00B7"/>
  <outline>
    <contour>
      <point x="452" y="902" type="line"/>
      <point x="90" y="902" type="line"/>
      <point x="90" y="554" type="line"/>
      <point x="452" y="554" type="line"/>
    </contour>
  </outline>
</glyph>
<glyph name="ordmasculine" format="1">
  <advance width="802"/>
  <unicode hex="00BA"/>
  <outline>
    <contour>
      <point x="400" y="1466" type="curve" smooth="yes"/>
      <point x="208" y="1466"/>
      <point x="60" y="1330"/>
      <point x="60" y="1128" type="curve" smooth="yes"/>
      <point x="60" y="934"/>
      <point x="200" y="796"/>
      <point x="400" y="796" type="curve" smooth="yes"/>
      <point x="600" y="796"/>
      <point x="742" y="934"/>
      <point x="742" y="1128" type="curve" smooth="yes"/>
      <point x="742" y="1324"/>
      <point x="604" y="1466"/>
    </contour>
    <contour>
      <point x="400" y="1314" type="curve" smooth="yes"/>
      <point x="466" y="1314"/>
      <point x="496" y="1260"/>
      <point x="496" y="1132" type="curve" smooth="yes"/>
      <point x="496" y="1006"/>
      <point x="466" y="952"/>
      <point x="400" y="952" type="curve" smooth="yes"/>
      <point x="336" y="952"/>
      <point x="306" y="1006"/>
      <point x="306" y="1132" type="curve" smooth="yes"/>
      <point x="306" y="1260"/>
      <point x="336" y="1314"/>
    </contour>
  </outline>
</glyph>
<glyph name="guillemetright" format="2">
	<advance width="1106"/>
	<unicode hex="00BB"/>
	<outline>
		<contour>
			<point x="254" y="514" type="line"/>
			<point x="123" y="121" type="line"/>
			<point x="328" y="121" type="line"/>
			<point x="547" y="514" type="line"/>
			<point x="330" y="924" type="line"/>
			<point x="123" y="924" type="line"/>
		</contour>
		<contour>
			<point x="670" y="514" type="line"/>
			<point x="537" y="121" type="line"/>
			<point x="743" y="121" type="line"/>
			<point x="963" y="514" type="line"/>
			<point x="745" y="924" type="line"/>
			<point x="537" y="924" type="line"/>
		</contour>
	</outline>
</glyph>
<glyph name="questiondown" format="2">
	<advance width="1161"/>
	<unicode hex="00BF"/>
	<outline>
		<contour>
			<point x="401" y="666" type="line"/>
			<point x="821" y="666" type="line"/>
			<point x="821" y="1059" type="line"/>
			<point x="401" y="1059" type="line"/>
		</contour>
		<contour>
			<point x="1141" y="25" type="curve"/>
			<point x="809" y="94" type="line"/>
			<point x="766" y="-14"/>
			<point x="682" y="-80"/>
			<point x="592" y="-80" type="curve" smooth="yes"/>
			<point x="522" y="-80"/>
			<point x="461" y="-39"/>
			<point x="461" y="16" type="curve" smooth="yes"/>
			<point x="461" y="176"/>
			<point x="766" y="236"/>
			<point x="766" y="541" type="curve"/>
			<point x="453" y="541" type="line"/>
			<point x="453" y="317"/>
			<point x="72" y="319"/>
			<point x="72" y="-6" type="curve" smooth="yes"/>
			<point x="72" y="-188"/>
			<point x="238" y="-350"/>
			<point x="588" y="-350" type="curve" smooth="yes"/>
			<point x="864" y="-350"/>
			<point x="1053" y="-219"/>
		</contour>
	</outline>
</glyph>
<glyph name="AE" format="2">
	<advance width="2254"/>
	<unicode hex="00C6"/>
	<anchor x="1415" y="1481" name="top"/>
	<outline>
		<contour>
			<point x="2161" y="328" type="line"/>
			<point x="1444" y="328" type="line"/>
			<point x="1444" y="584" type="line"/>
			<point x="1880" y="584" type="line"/>
			<point x="1880" y="905" type="line"/>
			<point x="1444" y="905" type="line"/>
			<point x="1444" y="1155" type="line"/>
			<point x="2140" y="1155" type="line"/>
			<point x="2142" y="1481" type="line"/>
			<point x="768" y="1481" type="line"/>
			<point x="0" y="0" type="line"/>
			<point x="397" y="0" type="line"/>
			<point x="539" y="287" type="line"/>
			<point x="989" y="287" type="line"/>
			<point x="989" y="0" type="line"/>
			<point x="2161" y="0" type="line"/>
		</contour>
		<contour>
			<point x="989" y="627" type="line"/>
			<point x="684" y="627" type="line"/>
			<point x="989" y="1231" type="line"/>
		</contour>
	</outline>
</glyph>
<glyph name="Eth" format="1">
  <advance width="1644"/>
  <unicode hex="00D0"/>
  <outline>
    <contour>
      <point x="866" y="846" type="line"/>
      <point x="70" y="846" type="line"/>
      <point x="70" y="572" type="line"/>
      <point x="866" y="572" type="line"/>
    </contour>
    <component base="D" xOffset="86"/>
  </outline>
</glyph>
<glyph name="multiply" format="2">
	<advance width="1250"/>
	<unicode hex="00D7"/>
	<outline>
		<contour>
			<point x="1133" y="436" type="line"/>
			<point x="309" y="1257" type="line"/>
			<point x="113" y="1057" type="line"/>
			<point x="932" y="236" type="line"/>
		</contour>
		<contour>
			<point x="311" y="236" type="line"/>
			<point x="1137" y="1057" type="line"/>
			<point x="936" y="1257" type="line"/>
			<point x="115" y="436" type="line"/>
		</contour>
	</outline>
</glyph>
<glyph name="Oslash" format="2">
	<advance width="1636"/>
	<unicode hex="00D8"/>
	<anchor x="807" y="1481" name="top"/>
	<outline>
		<contour>
			<point x="190" y="-29" type="line"/>
			<point x="350" y="125" type="line"/>
			<point x="469" y="33"/>
			<point x="625" y="-20"/>
			<point x="809" y="-20" type="curve" smooth="yes"/>
			<point x="1245" y="-20"/>
			<point x="1524" y="279"/>
			<point x="1524" y="737" type="curve" smooth="yes"/>
			<point x="1524" y="905"/>
			<point x="1487" y="1051"/>
			<point x="1417" y="1167" type="curve"/>
			<point x="1595" y="1343" type="line"/>
			<point x="1440" y="1507" type="line"/>
			<point x="1272" y="1346" type="line"/>
			<point x="1153" y="1446"/>
			<point x="995" y="1501"/>
			<point x="809" y="1501" type="curve" smooth="yes"/>
			<point x="375" y="1501"/>
			<point x="90" y="1200"/>
			<point x="90" y="737" type="curve" smooth="yes"/>
			<point x="90" y="565"/>
			<point x="129" y="418"/>
			<point x="199" y="299" type="curve"/>
			<point x="31" y="137" type="line"/>
		</contour>
		<contour>
			<point x="809" y="291" type="curve" smooth="yes"/>
			<point x="721" y="291"/>
			<point x="659" y="322"/>
			<point x="621" y="389" type="curve"/>
			<point x="1049" y="809" type="line"/>
			<point x="1049" y="686"/>
			<point x="1042" y="590"/>
			<point x="1026" y="514" type="curve" smooth="yes"/>
			<point x="995" y="356"/>
			<point x="926" y="291"/>
		</contour>
		<contour>
			<point x="565" y="655" type="line"/>
			<point x="565" y="758"/>
			<point x="569" y="844"/>
			<point x="582" y="915" type="curve" smooth="yes"/>
			<point x="610" y="1110"/>
			<point x="682" y="1194"/>
			<point x="809" y="1194" type="curve" smooth="yes"/>
			<point x="897" y="1194"/>
			<point x="958" y="1159"/>
			<point x="997" y="1077" type="curve"/>
		</contour>
	</outline>
</glyph>
<glyph name="Yacute" format="1">
  <advance width="1434"/>
  <unicode hex="00DD"/>
  <outline>
    <component base="Y"/>
    <component base="acutecomb" xOffset="623" yOffset="412"/>
    <contour>
      <point x="716" y="24" type="move" name="bottom"/>
    </contour>
  </outline>
</glyph>
<glyph name="Thorn" format="1">
  <advance width="1526"/>
  <unicode hex="00DE"/>
  <outline>
    <contour>
      <point x="1436" y="726" type="curve" smooth="yes"/>
      <point x="1436" y="1034"/>
      <point x="1168" y="1186"/>
      <point x="848" y="1186" type="curve" smooth="yes"/>
      <point x="584" y="1186" type="line"/>
      <point x="584" y="1446" type="line"/>
      <point x="140" y="1446" type="line"/>
      <point x="140" y="0" type="line"/>
      <point x="584" y="0" type="line"/>
      <point x="584" y="276" type="line"/>
      <point x="900" y="276" type="line" smooth="yes"/>
      <point x="1218" y="276"/>
      <point x="1436" y="446"/>
    </contour>
    <contour>
      <point x="984" y="732" type="curve" smooth="yes"/>
      <point x="984" y="654"/>
      <point x="926" y="588"/>
      <point x="832" y="588" type="curve" smooth="yes"/>
      <point x="584" y="588" type="line"/>
      <point x="584" y="874" type="line"/>
      <point x="822" y="874" type="line" smooth="yes"/>
      <point x="910" y="874"/>
      <point x="984" y="820"/>
    </contour>
  </outline>
</glyph>
<glyph name="germandbls" format="1">
  <advance width="1354"/>
  <unicode hex="00DF"/>
  <outline>
    <contour>
      <point x="718" y="1446" type="curve" smooth="yes"/>
      <point x="300" y="1446"/>
      <point x="176" y="1202"/>
      <point x="166" y="968" type="curve"/>
      <point x="168" y="0" type="line"/>
      <point x="550" y="0" type="line"/>
      <point x="550" y="1044" type="line" smooth="yes"/>
      <point x="550" y="1132"/>
      <point x="602" y="1204"/>
      <point x="704" y="1204" type="curve" smooth="yes"/>
      <point x="786" y="1204"/>
      <point x="828" y="1160"/>
      <point x="828" y="1108" type="curve" smooth="yes"/>
      <point x="828" y="1044"/>
      <point x="770" y="998"/>
      <point x="714" y="940" type="curve" smooth="yes"/>
      <point x="664" y="888"/>
      <point x="614" y="820"/>
      <point x="614" y="718" type="curve" smooth="yes"/>
      <point x="614" y="576"/>
      <point x="706" y="486"/>
      <point x="830" y="430" type="curve" smooth="yes"/>
      <point x="932" y="386"/>
      <point x="980" y="364"/>
      <point x="980" y="308" type="curve" smooth="yes"/>
      <point x="980" y="246"/>
      <point x="926" y="220"/>
      <point x="866" y="220" type="curve" smooth="yes"/>
      <point x="796" y="220"/>
      <point x="750" y="254"/>
      <point x="718" y="276" type="curve"/>
      <point x="612" y="44" type="line"/>
      <point x="672" y="8"/>
      <point x="754" y="-20"/>
      <point x="874" y="-20" type="curve" smooth="yes"/>
      <point x="1150" y="-20"/>
      <point x="1324" y="108"/>
      <point x="1324" y="350" type="curve" smooth="yes"/>
      <point x="1324" y="610"/>
      <point x="1120" y="702"/>
      <point x="902" y="800" type="curve" smooth="yes"/>
      <point x="892" y="804"/>
      <point x="888" y="810"/>
      <point x="888" y="816" type="curve" smooth="yes"/>
      <point x="888" y="820"/>
      <point x="892" y="826"/>
      <point x="898" y="828" type="curve" smooth="yes"/>
      <point x="1100" y="910"/>
      <point x="1176" y="996"/>
      <point x="1176" y="1132" type="curve" smooth="yes"/>
      <point x="1176" y="1340"/>
      <point x="1004" y="1446"/>
    </contour>
  </outline>
</glyph>
<glyph name="ae" format="1">
  <advance width="1852"/>
  <unicode hex="00E6"/>
  <outline>
    <contour>
      <point x="1127" y="446" type="curve"/>
      <point x="1797" y="446" type="line"/>
      <point x="1797" y="830"/>
      <point x="1573" y="1054"/>
      <point x="1267" y="1054" type="curve" smooth="yes"/>
      <point x="1167" y="1054"/>
      <point x="1069" y="1026"/>
      <point x="985" y="976" type="curve"/>
      <point x="911" y="1024"/>
      <point x="795" y="1052"/>
      <point x="621" y="1054" type="curve" smooth="yes"/>
      <point x="309" y="1054"/>
      <point x="189" y="954"/>
      <point x="111" y="766" type="curve"/>
      <point x="447" y="700" type="line"/>
      <point x="483" y="796"/>
      <point x="553" y="820"/>
      <point x="613" y="820" type="curve" smooth="yes"/>
      <point x="691" y="820"/>
      <point x="727" y="780"/>
      <point x="727" y="708" type="curve" smooth="yes"/>
      <point x="727" y="650" type="line"/>
      <point x="647" y="646" type="line" smooth="yes"/>
      <point x="273" y="628"/>
      <point x="85" y="488"/>
      <point x="85" y="278" type="curve" smooth="yes"/>
      <point x="85" y="102"/>
      <point x="203" y="-20"/>
      <point x="423" y="-20" type="curve" smooth="yes"/>
      <point x="603" y="-20"/>
      <point x="729" y="24"/>
      <point x="849" y="138" type="curve" smooth="yes"/>
      <point x="855" y="146"/>
      <point x="861" y="146"/>
      <point x="869" y="138" type="curve" smooth="yes"/>
      <point x="967" y="40"/>
      <point x="1111" y="-20"/>
      <point x="1275" y="-20" type="curve" smooth="yes"/>
      <point x="1503" y="-20"/>
      <point x="1643" y="40"/>
      <point x="1791" y="264" type="curve"/>
      <point x="1555" y="360" type="line"/>
      <point x="1463" y="268"/>
      <point x="1399" y="238"/>
      <point x="1327" y="238" type="curve" smooth="yes"/>
      <point x="1215" y="238"/>
      <point x="1127" y="304"/>
    </contour>
    <contour>
      <point x="1285" y="824" type="curve" smooth="yes"/>
      <point x="1383" y="824"/>
      <point x="1419" y="708"/>
      <point x="1419" y="648" type="curve"/>
      <point x="1133" y="650" type="line"/>
      <point x="1131" y="770"/>
      <point x="1205" y="824"/>
    </contour>
    <contour>
      <point x="727" y="458" type="line"/>
      <point x="727" y="312" type="line" smooth="yes"/>
      <point x="727" y="248"/>
      <point x="655" y="210"/>
      <point x="581" y="210" type="curve" smooth="yes"/>
      <point x="505" y="210"/>
      <point x="465" y="248"/>
      <point x="465" y="304" type="curve" smooth="yes"/>
      <point x="465" y="400"/>
      <point x="591" y="448"/>
      <point x="665" y="454" type="curve" smooth="yes"/>
    </contour>
    <contour>
      <point x="939" y="1034" type="move" name="top"/>
    </contour>
  </outline>
</glyph>
<glyph name="eth" format="2">
	<advance width="1214"/>
	<unicode hex="00F0"/>
	<outline>
		<contour>
			<point x="1164" y="563" type="curve" smooth="yes"/>
			<point x="1164" y="879"/>
			<point x="1015" y="1161"/>
			<point x="767" y="1335" type="curve"/>
			<point x="877" y="1399" type="line"/>
			<point x="816" y="1509" type="line"/>
			<point x="640" y="1411" type="line"/>
			<point x="558" y="1452"/>
			<point x="468" y="1481"/>
			<point x="371" y="1503" type="curve"/>
			<point x="167" y="1333" type="line"/>
			<point x="234" y="1311"/>
			<point x="298" y="1284"/>
			<point x="357" y="1253" type="curve"/>
			<point x="191" y="1163" type="line"/>
			<point x="259" y="1055" type="line"/>
			<point x="480" y="1178" type="line"/>
			<point x="535" y="1137"/>
			<point x="574" y="1100"/>
			<point x="611" y="1049" type="curve" smooth="yes"/>
			<point x="615" y="1042"/>
			<point x="615" y="1038"/>
			<point x="607" y="1038" type="curve" smooth="yes"/>
			<point x="292" y="1038"/>
			<point x="50" y="817"/>
			<point x="50" y="504" type="curve" smooth="yes"/>
			<point x="50" y="205"/>
			<point x="279" y="-20"/>
			<point x="605" y="-20" type="curve" smooth="yes"/>
			<point x="939" y="-20"/>
			<point x="1164" y="203"/>
		</contour>
		<contour>
			<point x="607" y="236" type="curve" smooth="yes"/>
			<point x="503" y="236"/>
			<point x="453" y="324"/>
			<point x="453" y="512" type="curve" smooth="yes"/>
			<point x="453" y="700"/>
			<point x="503" y="791"/>
			<point x="607" y="791" type="curve" smooth="yes"/>
			<point x="716" y="791"/>
			<point x="761" y="700"/>
			<point x="761" y="512" type="curve" smooth="yes"/>
			<point x="761" y="326"/>
			<point x="716" y="236"/>
		</contour>
	</outline>
</glyph>
<glyph name="divide" format="2">
	<advance width="1268"/>
	<unicode hex="00F7"/>
	<outline>
		<contour>
			<point x="825" y="485" type="line"/>
			<point x="446" y="485" type="line"/>
			<point x="446" y="121" type="line"/>
			<point x="825" y="121" type="line"/>
		</contour>
		<contour>
			<point x="1155" y="887" type="line"/>
			<point x="113" y="887" type="line"/>
			<point x="113" y="604" type="line"/>
			<point x="1155" y="604" type="line"/>
		</contour>
		<contour>
			<point x="825" y="1370" type="line"/>
			<point x="446" y="1370" type="line"/>
			<point x="446" y="1006" type="line"/>
			<point x="825" y="1006" type="line"/>
		</contour>
	</outline>
</glyph>
<glyph name="oslash" format="1">
  <advance width="1270"/>
  <unicode hex="00F8"/>
  <outline>
    <contour>
      <point x="1190" y="926" type="line"/>
      <point x="1076" y="1050" type="line"/>
      <point x="60" y="106" type="line"/>
      <point x="176" y="-18" type="line"/>
    </contour>
    <component base="o" xOffset="76"/>
    <contour>
      <point x="626" y="1034" type="move" name="top"/>
    </contour>
  </outline>
</glyph>
<glyph name="thorn" format="1">
  <advance width="1206"/>
  <unicode hex="00FE"/>
  <outline>
    <contour>
      <point x="482" y="1446" type="line"/>
      <point x="90" y="1446" type="line"/>
      <point x="90" y="-322" type="line"/>
      <point x="480" y="-322" type="line"/>
      <point x="480" y="70" type="line" smooth="yes"/>
      <point x="480" y="110"/>
      <point x="488" y="108"/>
      <point x="520" y="80" type="curve" smooth="yes"/>
      <point x="602" y="2"/>
      <point x="682" y="-20"/>
      <point x="770" y="-20" type="curve" smooth="yes"/>
      <point x="988" y="-20"/>
      <point x="1166" y="126"/>
      <point x="1166" y="520" type="curve" smooth="yes"/>
      <point x="1166" y="886"/>
      <point x="1000" y="1054"/>
      <point x="784" y="1054" type="curve" smooth="yes"/>
      <point x="648" y="1054"/>
      <point x="564" y="1002"/>
      <point x="482" y="914" type="curve"/>
    </contour>
    <contour>
      <point x="480" y="294" type="curve"/>
      <point x="480" y="708" type="line" smooth="yes"/>
      <point x="480" y="770"/>
      <point x="540" y="818"/>
      <point x="616" y="818" type="curve" smooth="yes"/>
      <point x="718" y="818"/>
      <point x="772" y="758"/>
      <point x="772" y="532" type="curve" smooth="yes"/>
      <point x="772" y="282"/>
      <point x="714" y="216"/>
      <point x="616" y="216" type="curve" smooth="yes"/>
      <point x="554" y="216"/>
      <point x="512" y="248"/>
    </contour>
  </outline>
</glyph>
<glyph name="dcroat" format="1">
  <advance width="1318"/>
  <unicode hex="0111"/>
  <outline>
    <contour>
      <point x="1258" y="1340" type="line"/>
      <point x="534" y="1340" type="line"/>
      <point x="534" y="1132" type="line"/>
      <point x="1258" y="1132" type="line"/>
    </contour>
    <component base="d"/>
  </outline>
</glyph>
<glyph name="gcommaaccent" format="2">
	<advance width="1297"/>
	<unicode hex="0123"/>
	<anchor x="567" y="1098" name="_top"/>
	<outline>
		<contour>
			<point x="438" y="1196" type="line"/>
			<point x="696" y="1196" type="line"/>
			<point x="696" y="1401" type="line"/>
			<point x="571" y="1401" type="line"/>
			<point x="711" y="1589" type="line"/>
			<point x="575" y="1589" type="line"/>
			<point x="438" y="1417" type="line"/>
		</contour>
		<component base="g"/>
	</outline>
</glyph>
<glyph name="Hbar" format="2">
	<advance width="1677"/>
	<unicode hex="0126"/>
	<outline>
		<contour>
			<point x="1636" y="1315" type="line"/>
			<point x="41" y="1315" type="line"/>
			<point x="41" y="1108" type="line"/>
			<point x="1636" y="1108" type="line"/>
		</contour>
		<component base="H" xOffset="92"/>
	</outline>
</glyph>
<glyph name="hbar" format="1">
  <advance width="1282"/>
  <unicode hex="0127"/>
  <outline>
    <contour>
      <point x="762" y="1340" type="line"/>
      <point x="40" y="1340" type="line"/>
      <point x="40" y="1132" type="line"/>
      <point x="762" y="1132" type="line"/>
    </contour>
    <component base="h" xOffset="78"/>
  </outline>
</glyph>
<glyph name="idotless" format="1">
  <advance width="560"/>
  <unicode hex="0131"/>
  <outline>
    <contour>
      <point x="470" y="1034" type="line"/>
      <point x="100" y="1034" type="line"/>
      <point x="100" y="0" type="line"/>
      <point x="470" y="0" type="line"/>
    </contour>
    <contour>
      <point x="434" y="18" type="move" name="ogonek"/>
    </contour>
    <contour>
      <point x="292" y="1034" type="move" name="top"/>
    </contour>
  </outline>
</glyph>
<glyph name="kgreenlandic" format="1">
  <advance width="1274"/>
  <unicode hex="0138"/>
  <outline>
    <contour>
      <point x="1254" y="0" type="line"/>
      <point x="894" y="700" type="line"/>
      <point x="1226" y="1034" type="line"/>
      <point x="844" y="1034" type="line"/>
      <point x="500" y="644" type="line"/>
      <point x="500" y="1034" type="line"/>
      <point x="110" y="1034" type="line"/>
      <point x="110" y="0" type="line"/>
      <point x="500" y="0" type="line"/>
      <point x="500" y="292" type="line"/>
      <point x="638" y="422" type="line"/>
      <point x="814" y="0" type="line"/>
    </contour>
  </outline>
</glyph>
<glyph name="Lslash" format="1">
  <advance width="1168"/>
  <unicode hex="0141"/>
  <outline>
    <contour>
      <point x="874" y="1088" type="line"/>
      <point x="0" y="856" type="line"/>
      <point x="0" y="538" type="line"/>
      <point x="874" y="786" type="line"/>
    </contour>
    <component base="L" xOffset="40"/>
  </outline>
</glyph>
<glyph name="lslash" format="1">
  <advance width="740"/>
  <unicode hex="0142"/>
  <outline>
    <contour>
      <point x="702" y="1004" type="line"/>
      <point x="70" y="608" type="line"/>
      <point x="70" y="284" type="line"/>
      <point x="702" y="698" type="line"/>
    </contour>
    <component base="l" xOffset="70"/>
  </outline>
</glyph>
<glyph name="eng" format="1">
  <advance width="1228"/>
  <unicode hex="014B"/>
  <outline>
    <contour>
      <point x="730" y="-332" type="curve" smooth="yes"/>
      <point x="964" y="-332"/>
      <point x="1128" y="-184"/>
      <point x="1128" y="56" type="curve" smooth="yes"/>
      <point x="1128" y="738" type="line" smooth="yes"/>
      <point x="1128" y="930"/>
      <point x="1004" y="1054"/>
      <point x="822" y="1054" type="curve" smooth="yes"/>
      <point x="692" y="1054"/>
      <point x="574" y="976"/>
      <point x="488" y="872" type="curve"/>
      <point x="488" y="1034" type="line"/>
      <point x="106" y="1034" type="line"/>
      <point x="100" y="0" type="line"/>
      <point x="494" y="0" type="line"/>
      <point x="494" y="680" type="line"/>
      <point x="530" y="746"/>
      <point x="574" y="778"/>
      <point x="636" y="778" type="curve" smooth="yes"/>
      <point x="698" y="778"/>
      <point x="738" y="742"/>
      <point x="738" y="684" type="curve" smooth="yes"/>
      <point x="738" y="50" type="line"/>
      <point x="738" y="0"/>
      <point x="712" y="-20"/>
      <point x="652" y="-30" type="curve"/>
      <point x="604" y="-36" type="line"/>
      <point x="604" y="-306" type="line"/>
      <point x="604" y="-306"/>
      <point x="618" y="-332"/>
    </contour>
  </outline>
</glyph>
<glyph name="OE" format="1">
  <advance width="2278"/>
  <unicode hex="0152"/>
  <outline>
    <contour>
      <point x="2168" y="320" type="line"/>
      <point x="1468" y="320" type="line"/>
      <point x="1468" y="570" type="line"/>
      <point x="1896" y="570" type="line"/>
      <point x="1896" y="884" type="line"/>
      <point x="1468" y="884" type="line"/>
      <point x="1468" y="1128" type="line"/>
      <point x="2150" y="1128" type="line"/>
      <point x="2152" y="1446" type="line"/>
      <point x="1212" y="1446" type="line"/>
      <point x="1090" y="1446" type="line"/>
      <point x="1022" y="1460"/>
      <point x="938" y="1466"/>
      <point x="838" y="1466" type="curve" smooth="yes"/>
      <point x="370" y="1466"/>
      <point x="90" y="1172"/>
      <point x="90" y="720" type="curve" smooth="yes"/>
      <point x="90" y="270"/>
      <point x="362" y="-20"/>
      <point x="816" y="-20" type="curve" smooth="yes"/>
      <point x="924" y="-20"/>
      <point x="1016" y="-14"/>
      <point x="1090" y="0" type="curve"/>
      <point x="1188" y="0" type="line"/>
      <point x="2168" y="0" type="line"/>
    </contour>
    <contour>
      <point x="792" y="284" type="curve" smooth="yes"/>
      <point x="618" y="284"/>
      <point x="554" y="402"/>
      <point x="554" y="714" type="curve" smooth="yes"/>
      <point x="554" y="1036"/>
      <point x="622" y="1166"/>
      <point x="792" y="1166" type="curve" smooth="yes"/>
      <point x="958" y="1166"/>
      <point x="1026" y="1036"/>
      <point x="1026" y="714" type="curve" smooth="yes"/>
      <point x="1026" y="402"/>
      <point x="962" y="284"/>
    </contour>
  </outline>
</glyph>
<glyph name="oe" format="1">
  <advance width="1866"/>
  <unicode hex="0153"/>
  <outline>
    <contour>
      <point x="592" y="-20" type="curve" smooth="yes"/>
      <point x="720" y="-20"/>
      <point x="830" y="16"/>
      <point x="920" y="76" type="curve" smooth="yes"/>
      <point x="932" y="84"/>
      <point x="942" y="86"/>
      <point x="954" y="78" type="curve" smooth="yes"/>
      <point x="1044" y="16"/>
      <point x="1156" y="-20"/>
      <point x="1284" y="-20" type="curve" smooth="yes"/>
      <point x="1512" y="-20"/>
      <point x="1652" y="40"/>
      <point x="1798" y="264" type="curve"/>
      <point x="1562" y="360" type="line"/>
      <point x="1470" y="268"/>
      <point x="1406" y="238"/>
      <point x="1336" y="238" type="curve" smooth="yes"/>
      <point x="1222" y="238"/>
      <point x="1134" y="304"/>
      <point x="1134" y="446" type="curve"/>
      <point x="1806" y="446" type="line"/>
      <point x="1806" y="830"/>
      <point x="1582" y="1054"/>
      <point x="1276" y="1054" type="curve" smooth="yes"/>
      <point x="1162" y="1054"/>
      <point x="1056" y="1020"/>
      <point x="970" y="958" type="curve" smooth="yes"/>
      <point x="950" y="944"/>
      <point x="940" y="944"/>
      <point x="920" y="958" type="curve" smooth="yes"/>
      <point x="832" y="1018"/>
      <point x="722" y="1054"/>
      <point x="594" y="1054" type="curve" smooth="yes"/>
      <point x="286" y="1054"/>
      <point x="50" y="836"/>
      <point x="50" y="510" type="curve" smooth="yes"/>
      <point x="50" y="200"/>
      <point x="274" y="-20"/>
    </contour>
    <contour>
      <point x="594" y="230" type="curve" smooth="yes"/>
      <point x="492" y="230"/>
      <point x="444" y="316"/>
      <point x="444" y="518" type="curve" smooth="yes"/>
      <point x="444" y="724"/>
      <point x="492" y="812"/>
      <point x="594" y="812" type="curve" smooth="yes"/>
      <point x="700" y="812"/>
      <point x="744" y="724"/>
      <point x="744" y="518" type="curve" smooth="yes"/>
      <point x="744" y="318"/>
      <point x="700" y="230"/>
    </contour>
    <contour>
      <point x="1292" y="824" type="curve" smooth="yes"/>
      <point x="1390" y="824"/>
      <point x="1428" y="708"/>
      <point x="1428" y="648" type="curve"/>
      <point x="1140" y="650" type="line"/>
      <point x="1138" y="770"/>
      <point x="1212" y="824"/>
    </contour>
  </outline>
</glyph>
<glyph name="Tbar" format="1">
  <advance width="1274"/>
  <unicode hex="0166"/>
  <outline>
    <contour>
      <point x="1062" y="822" type="line"/>
      <point x="208" y="822" type="line"/>
      <point x="208" y="548" type="line"/>
      <point x="1062" y="548" type="line"/>
    </contour>
    <component base="T"/>
  </outline>
</glyph>
<glyph name="tbar" format="1">
  <advance width="980"/>
  <unicode hex="0167"/>
  <outline>
    <contour>
      <point x="804" y="660" type="line"/>
      <point x="80" y="660" type="line"/>
      <point x="80" y="450" type="line"/>
      <point x="804" y="450" type="line"/>
    </contour>
    <component base="t" xOffset="60"/>
  </outline>
</glyph>
<glyph name="Schwa" format="1">
  <advance width="1636"/>
  <unicode hex="018F"/>
  <outline>
    <contour>
      <point x="1048" y="872" type="curve" smooth="yes"/>
      <point x="1048" y="840"/>
      <point x="1034" y="828"/>
      <point x="1010" y="828" type="curve" smooth="yes"/>
      <point x="166" y="828" type="line" smooth="yes"/>
      <point x="122" y="828"/>
      <point x="120" y="808"/>
      <point x="120" y="764" type="curve" smooth="yes"/>
      <point x="120" y="266"/>
      <point x="356" y="-20"/>
      <point x="810" y="-20" type="curve" smooth="yes"/>
      <point x="1186" y="-20"/>
      <point x="1516" y="308"/>
      <point x="1516" y="742" type="curve" smooth="yes"/>
      <point x="1516" y="1168"/>
      <point x="1250" y="1466"/>
      <point x="816" y="1466" type="curve" smooth="yes"/>
      <point x="532" y="1466"/>
      <point x="324" y="1344"/>
      <point x="204" y="1106" type="curve" smooth="yes"/>
      <point x="188" y="1074"/>
      <point x="190" y="1056"/>
      <point x="214" y="1046" type="curve" smooth="yes"/>
      <point x="482" y="912" type="line" smooth="yes"/>
      <point x="516" y="896"/>
      <point x="528" y="900"/>
      <point x="536" y="914" type="curve" smooth="yes"/>
      <point x="626" y="1060"/>
      <point x="700" y="1128"/>
      <point x="820" y="1128" type="curve" smooth="yes"/>
      <point x="1012" y="1128"/>
      <point x="1048" y="986"/>
    </contour>
    <contour>
      <point x="1044" y="554" type="line"/>
      <point x="1022" y="374"/>
      <point x="964" y="284"/>
      <point x="806" y="284" type="curve" smooth="yes"/>
      <point x="674" y="284"/>
      <point x="594" y="392"/>
      <point x="594" y="520" type="curve" smooth="yes"/>
      <point x="594" y="550"/>
      <point x="604" y="556"/>
      <point x="636" y="556" type="curve" smooth="yes"/>
    </contour>
  </outline>
</glyph>
<glyph name="florin" format="2">
	<advance width="1180"/>
	<unicode hex="0192"/>
	<outline>
		<contour>
			<point x="1067" y="1059" type="line"/>
			<point x="864" y="1059" type="line"/>
			<point x="874" y="1120" type="line" smooth="yes"/>
			<point x="885" y="1176"/>
			<point x="936" y="1223"/>
			<point x="983" y="1223" type="curve" smooth="yes"/>
			<point x="1106" y="1223" type="line"/>
			<point x="1149" y="1481" type="line"/>
			<point x="864" y="1481" type="line" smooth="yes"/>
			<point x="672" y="1481"/>
			<point x="532" y="1374"/>
			<point x="500" y="1200" type="curve" smooth="yes"/>
			<point x="475" y="1059" type="line"/>
			<point x="303" y="1059" type="line"/>
			<point x="256" y="788" type="line"/>
			<point x="428" y="788" type="line"/>
			<point x="295" y="41" type="line" smooth="yes"/>
			<point x="279" y="-61"/>
			<point x="254" y="-84"/>
			<point x="184" y="-84" type="curve" smooth="yes"/>
			<point x="59" y="-84" type="line"/>
			<point x="20" y="-344" type="line"/>
			<point x="311" y="-344" type="line" smooth="yes"/>
			<point x="506" y="-344"/>
			<point x="647" y="-236"/>
			<point x="678" y="-61" type="curve" smooth="yes"/>
			<point x="827" y="788" type="line"/>
			<point x="1018" y="788" type="line"/>
		</contour>
	</outline>
</glyph>
<glyph name="oinvertedbreve" format="1">
  <advance width="1150"/>
  <unicode hex="020F"/>
  <outline>
    <component base="o"/>
    <component base="breveinvertedcomb" xOffset="152"/>
    <contour>
      <point x="576" y="1034" type="move" name="top"/>
    </contour>
  </outline>
</glyph>
<glyph name="jdotless" format="1">
  <advance width="634"/>
  <unicode hex="0237"/>
  <outline>
    <contour>
      <point x="514" y="56" type="curve" smooth="yes"/>
      <point x="514" y="1034" type="line"/>
      <point x="124" y="1034" type="line"/>
      <point x="124" y="56" type="line"/>
      <point x="124" y="14"/>
      <point x="102" y="-12"/>
      <point x="28" y="-28" type="curve"/>
      <point x="-30" y="-38" type="line"/>
      <point x="-28" y="-298" type="line"/>
      <point x="-28" y="-298"/>
      <point x="0" y="-332"/>
      <point x="104" y="-332" type="curve"/>
      <point x="380" y="-332"/>
      <point x="514" y="-200"/>
    </contour>
    <contour>
      <point x="318" y="1034" type="move" name="top"/>
    </contour>
  </outline>
</glyph>
<glyph name="commaturnedmod" format="2">
	<advance width="588"/>
	<unicode hex="02BB"/>
	<outline>
		<contour>
			<point x="465" y="1382" type="line"/>
			<point x="465" y="1485" type="line"/>
			<point x="254" y="1526"/>
			<point x="102" y="1339"/>
			<point x="102" y="1159" type="curve"/>
			<point x="102" y="854" type="line"/>
			<point x="465" y="854" type="line"/>
			<point x="465" y="1198" type="line"/>
			<point x="295" y="1217" type="line"/>
			<point x="295" y="1239" type="line"/>
			<point x="295" y="1319"/>
			<point x="373" y="1368"/>
			<point x="436" y="1378" type="curve"/>
		</contour>
	</outline>
</glyph>
<glyph name="gravecomb" format="1">
  <advance width="609"/>
  <unicode hex="0300"/>
  <outline>
    <component base="acutecomb" xScale="-1" xOffset="609"/>
    <contour>
      <point x="467" y="1034" type="move" name="_top"/>
    </contour>
  </outline>
</glyph>
<glyph name="acutecomb" format="1">
  <advance width="609"/>
  <unicode hex="0301"/>
  <outline>
    <contour>
      <point x="216" y="1446" type="line"/>
      <point x="10" y="1155" type="line"/>
      <point x="282" y="1155" type="line"/>
      <point x="599" y="1446" type="line"/>
    </contour>
    <contour>
      <point x="143" y="1034" type="move" name="_top"/>
    </contour>
  </outline>
</glyph>
<glyph name="circumflexcomb" format="1">
  <advance width="856"/>
  <unicode hex="0302"/>
  <outline>
    <contour>
      <point x="554" y="1155" type="line"/>
      <point x="832" y="1155" type="line"/>
      <point x="564" y="1446" type="line"/>
      <point x="300" y="1446" type="line"/>
      <point x="24" y="1155" type="line"/>
      <point x="288" y="1155" type="line"/>
      <point x="430" y="1304" type="line"/>
    </contour>
    <contour>
      <point x="432" y="1034" type="move" name="_top"/>
    </contour>
  </outline>
</glyph>
<glyph name="tildecomb" format="2">
	<advance width="983"/>
	<unicode hex="0303"/>
	<anchor x="479" y="1059" name="_top"/>
	<outline>
		<contour>
			<point x="881" y="1300" type="curve"/>
			<point x="840" y="1511" type="line"/>
			<point x="795" y="1475"/>
			<point x="725" y="1427"/>
			<point x="645" y="1427" type="curve" smooth="yes"/>
			<point x="551" y="1427"/>
			<point x="440" y="1495"/>
			<point x="313" y="1495" type="curve" smooth="yes"/>
			<point x="207" y="1495"/>
			<point x="145" y="1446"/>
			<point x="92" y="1386" type="curve"/>
			<point x="147" y="1204" type="line"/>
			<point x="211" y="1260"/>
			<point x="254" y="1278"/>
			<point x="324" y="1278" type="curve" smooth="yes"/>
			<point x="438" y="1278"/>
			<point x="528" y="1217"/>
			<point x="647" y="1217" type="curve" smooth="yes"/>
			<point x="743" y="1217"/>
			<point x="831" y="1257"/>
		</contour>
	</outline>
</glyph>
<glyph name="macroncomb" format="2">
	<advance width="904"/>
	<unicode hex="0304"/>
	<anchor x="442" y="1034" name="_top"/>
	<outline>
		<contour>
			<point x="842" y="1416" type="line"/>
			<point x="42" y="1416" type="line"/>
			<point x="42" y="1178" type="line"/>
			<point x="842" y="1178" type="line"/>
		</contour>
	</outline>
</glyph>
<glyph name="brevecomb" format="2">
	<advance width="889"/>
	<unicode hex="0306"/>
	<anchor x="444" y="1059" name="_top"/>
	<outline>
		<contour>
			<point x="848" y="1481" type="curve"/>
			<point x="631" y="1481" type="line"/>
			<point x="592" y="1411"/>
			<point x="535" y="1362"/>
			<point x="444" y="1362" type="curve" smooth="yes"/>
			<point x="354" y="1362"/>
			<point x="295" y="1411"/>
			<point x="256" y="1481" type="curve"/>
			<point x="41" y="1481" type="line"/>
			<point x="100" y="1274"/>
			<point x="266" y="1184"/>
			<point x="444" y="1184" type="curve" smooth="yes"/>
			<point x="625" y="1184"/>
			<point x="788" y="1280"/>
		</contour>
	</outline>
</glyph>
<glyph name="dotaccentcomb" format="1">
  <advance width="490"/>
  <unicode hex="0307"/>
  <outline>
    <contour>
      <point x="50" y="1120" type="line"/>
      <point x="440" y="1120" type="line"/>
      <point x="440" y="1446" type="line"/>
      <point x="50" y="1446" type="line"/>
    </contour>
    <contour>
      <point x="246" y="1034" type="move" name="_top"/>
    </contour>
  </outline>
</glyph>
<glyph name="dieresiscomb" format="1">
  <advance width="855"/>
  <unicode hex="0308"/>
  <outline>
    <contour>
      <point x="188" y="1150" type="curve" smooth="yes"/>
      <point x="286" y="1150"/>
      <point x="365" y="1229"/>
      <point x="365" y="1328" type="curve" smooth="yes"/>
      <point x="365" y="1426"/>
      <point x="286" y="1505"/>
      <point x="188" y="1505" type="curve" smooth="yes"/>
      <point x="89" y="1505"/>
      <point x="10" y="1426"/>
      <point x="10" y="1328" type="curve" smooth="yes"/>
      <point x="10" y="1229"/>
      <point x="89" y="1150"/>
    </contour>
    <contour>
      <point x="668" y="1150" type="curve" smooth="yes"/>
      <point x="766" y="1150"/>
      <point x="845" y="1229"/>
      <point x="845" y="1328" type="curve" smooth="yes"/>
      <point x="845" y="1426"/>
      <point x="766" y="1505"/>
      <point x="668" y="1505" type="curve" smooth="yes"/>
      <point x="569" y="1505"/>
      <point x="490" y="1426"/>
      <point x="490" y="1328" type="curve" smooth="yes"/>
      <point x="490" y="1229"/>
      <point x="569" y="1150"/>
    </contour>
    <contour>
      <point x="427" y="1040" type="move" name="_top"/>
    </contour>
  </outline>
</glyph>
<glyph name="hookabovecomb" format="1">
  <advance width="1200"/>
  <unicode hex="0309"/>
  <outline>
    <contour>
      <point x="420" y="1572" type="line"/>
      <point x="550" y="1656"/>
      <point x="696" y="1626"/>
      <point x="762" y="1522" type="curve" smooth="yes"/>
      <point x="842" y="1398"/>
      <point x="818" y="1272"/>
      <point x="668" y="1184" type="curve"/>
      <point x="586" y="1314" type="line"/>
      <point x="634" y="1344"/>
      <point x="650" y="1386"/>
      <point x="622" y="1432" type="curve" smooth="yes"/>
      <point x="600" y="1468"/>
      <point x="544" y="1474"/>
      <point x="502" y="1446" type="curve"/>
    </contour>
    <contour>
      <point x="564" y="1034" type="move" name="_top"/>
    </contour>
    <contour>
      <point x="464" y="1198" type="move" name="_topviet"/>
    </contour>
  </outline>
</glyph>
<glyph name="ringcomb" format="1">
  <advance width="558"/>
  <unicode hex="030A"/>
  <outline>
    <contour>
      <point x="498" y="1324" type="curve" smooth="yes"/>
      <point x="498" y="1448"/>
      <point x="396" y="1548"/>
      <point x="270" y="1548" type="curve" smooth="yes"/>
      <point x="144" y="1548"/>
      <point x="42" y="1450"/>
      <point x="42" y="1328" type="curve" smooth="yes"/>
      <point x="42" y="1198"/>
      <point x="142" y="1096"/>
      <point x="270" y="1096" type="curve" smooth="yes"/>
      <point x="396" y="1096"/>
      <point x="498" y="1196"/>
    </contour>
    <contour>
      <point x="360" y="1322" type="curve" smooth="yes"/>
      <point x="360" y="1272"/>
      <point x="320" y="1226"/>
      <point x="268" y="1226" type="curve" smooth="yes"/>
      <point x="216" y="1226"/>
      <point x="172" y="1272"/>
      <point x="172" y="1322" type="curve" smooth="yes"/>
      <point x="172" y="1374"/>
      <point x="216" y="1414"/>
      <point x="268" y="1414" type="curve" smooth="yes"/>
      <point x="320" y="1414"/>
      <point x="360" y="1374"/>
    </contour>
    <contour>
      <point x="270" y="1012" type="move" name="_top"/>
    </contour>
  </outline>
</glyph>
<glyph name="caroncomb" format="1">
  <advance width="882"/>
  <unicode hex="030C"/>
  <outline>
    <contour>
      <point x="554" y="1448" type="line"/>
      <point x="430" y="1284" type="line"/>
      <point x="288" y="1448" type="line"/>
      <point x="24" y="1448" type="line"/>
      <point x="298" y="1155" type="line"/>
      <point x="564" y="1155" type="line"/>
      <point x="832" y="1448" type="line"/>
    </contour>
    <contour>
      <point x="432" y="1034" type="move" name="_top"/>
    </contour>
  </outline>
</glyph>
<glyph name="dblgravecomb" format="1">
  <advance width="1042"/>
  <unicode hex="030F"/>
  <outline>
    <contour>
      <point x="826" y="1446" type="line"/>
      <point x="493" y="1446" type="line"/>
      <point x="760" y="1155" type="line"/>
      <point x="1032" y="1155" type="line"/>
    </contour>
    <contour>
      <point x="356" y="1446" type="line"/>
      <point x="10" y="1446" type="line"/>
      <point x="340" y="1155" type="line"/>
      <point x="612" y="1155" type="line"/>
    </contour>
    <contour>
      <point x="691" y="1034" type="move" name="_top"/>
    </contour>
  </outline>
</glyph>
<glyph name="breveinvertedcomb" format="1">
  <advance width="848"/>
  <unicode hex="0311"/>
  <outline>
    <component base="brevecomb" yScale="-1" xOffset="-10" yOffset="2618"/>
    <contour>
      <point x="424" y="1034" type="move" name="_top"/>
    </contour>
  </outline>
</glyph>
<glyph name="horncomb" format="2">
	<advance width="461"/>
	<unicode hex="031B"/>
	<anchor x="0" y="901" name="_horn"/>
	<anchor x="217" y="1085" name="_topright"/>
	<anchor x="217" y="1085" name="topright"/>
	<outline>
		<contour>
			<point x="461" y="1309" type="curve"/>
			<point x="221" y="1309" type="line"/>
			<point x="201" y="1065"/>
			<point x="145" y="1081"/>
			<point x="0" y="1083" type="curve"/>
			<point x="0" y="901" type="line"/>
			<point x="367" y="860"/>
			<point x="457" y="975"/>
		</contour>
	</outline>
</glyph>
<glyph name="dotbelowcomb" format="1">
  <advance width="410"/>
  <unicode hex="0323"/>
  <outline>
    <component base="dotaccentcomb" xOffset="-40" yOffset="-1588"/>
    <contour>
      <point x="204" y="0" type="move" name="_bottom"/>
    </contour>
  </outline>
</glyph>
<glyph name="commaaccentcomb" format="1">
  <advance width="354"/>
  <unicode hex="0326"/>
  <outline>
    <component base="comma" xOffset="-104" yOffset="-434"/>
    <contour>
      <point x="168" y="0" type="move" name="_bottom"/>
    </contour>
  </outline>
</glyph>
<glyph name="cedillacomb" format="2">
	<advance width="637"/>
	<unicode hex="0327"/>
	<anchor x="299" y="0" name="_bottom"/>
	<outline>
		<contour>
			<point x="575" y="-274" type="curve" smooth="yes"/>
			<point x="575" y="-199"/>
			<point x="514" y="-106"/>
			<point x="346" y="-106" type="curve"/>
			<point x="389" y="10" type="line"/>
			<point x="227" y="10" type="line"/>
			<point x="152" y="-166" type="line" smooth="yes"/>
			<point x="141" y="-188"/>
			<point x="152" y="-190"/>
			<point x="172" y="-190" type="curve" smooth="yes"/>
			<point x="309" y="-190"/>
			<point x="354" y="-219"/>
			<point x="354" y="-268" type="curve" smooth="yes"/>
			<point x="354" y="-301"/>
			<point x="315" y="-322"/>
			<point x="260" y="-322" type="curve" smooth="yes"/>
			<point x="201" y="-322"/>
			<point x="135" y="-295"/>
			<point x="86" y="-268" type="curve"/>
			<point x="37" y="-389" type="line"/>
			<point x="117" y="-436"/>
			<point x="213" y="-449"/>
			<point x="309" y="-449" type="curve" smooth="yes"/>
			<point x="451" y="-449"/>
			<point x="575" y="-381"/>
		</contour>
	</outline>
</glyph>
<glyph name="ogonekcomb" format="2">
	<advance width="584"/>
	<unicode hex="0328"/>
	<anchor x="457" y="20" name="_ogonek"/>
	<outline>
		<contour>
			<point x="43" y="-174" type="curve" smooth="yes"/>
			<point x="43" y="-293"/>
			<point x="139" y="-348"/>
			<point x="285" y="-348" type="curve" smooth="yes"/>
			<point x="387" y="-348"/>
			<point x="481" y="-319"/>
			<point x="522" y="-293" type="curve"/>
			<point x="522" y="-125" type="line"/>
			<point x="473" y="-154"/>
			<point x="432" y="-176"/>
			<point x="373" y="-176" type="curve" smooth="yes"/>
			<point x="336" y="-176"/>
			<point x="317" y="-158"/>
			<point x="317" y="-119" type="curve" smooth="yes"/>
			<point x="317" y="-74"/>
			<point x="352" y="-37"/>
			<point x="502" y="12" type="curve"/>
			<point x="229" y="12" type="line"/>
			<point x="74" y="-43"/>
			<point x="43" y="-106"/>
		</contour>
	</outline>
</glyph>
<glyph name="pi" format="2">
	<advance width="1411"/>
	<unicode hex="03C0"/>
	<outline>
		<contour>
			<point x="1350" y="788" type="line"/>
			<point x="1350" y="1059" type="line"/>
			<point x="41" y="1059" type="line"/>
			<point x="41" y="788" type="line"/>
			<point x="186" y="788" type="line" smooth="yes"/>
			<point x="199" y="788"/>
			<point x="205" y="780"/>
			<point x="205" y="768" type="curve" smooth="yes"/>
			<point x="205" y="580"/>
			<point x="152" y="229"/>
			<point x="92" y="0" type="curve"/>
			<point x="467" y="0" type="line"/>
			<point x="532" y="197"/>
			<point x="588" y="586"/>
			<point x="588" y="788" type="curve"/>
			<point x="809" y="788" type="line"/>
			<point x="809" y="0" type="line"/>
			<point x="1190" y="0" type="line"/>
			<point x="1190" y="788" type="line"/>
		</contour>
	</outline>
</glyph>
<glyph name="endash" format="2">
	<advance width="1282"/>
	<unicode hex="2013"/>
	<outline>
		<contour>
			<point x="1162" y="645" type="line"/>
			<point x="120" y="645" type="line"/>
			<point x="120" y="365" type="line"/>
			<point x="1162" y="365" type="line"/>
		</contour>
	</outline>
</glyph>
<glyph name="quoteright" format="2">
	<advance width="592"/>
	<unicode hex="2019"/>
	<outline>
		<contour>
			<point x="102" y="821" type="line"/>
			<point x="233" y="821" type="line"/>
			<point x="469" y="1176" type="line"/>
			<point x="469" y="1481" type="line"/>
			<point x="106" y="1481" type="line"/>
			<point x="106" y="1137" type="line"/>
			<point x="225" y="1122" type="line"/>
		</contour>
	</outline>
</glyph>
<glyph name="quotesinglbase" format="2">
	<advance width="633"/>
	<unicode hex="201A"/>
	<outline>
		<contour>
			<point x="102" y="-309" type="line"/>
			<point x="233" y="-309" type="line"/>
			<point x="469" y="45" type="line"/>
			<point x="469" y="352" type="line"/>
			<point x="106" y="352" type="line"/>
			<point x="106" y="6" type="line"/>
			<point x="225" y="-8" type="line"/>
		</contour>
	</outline>
</glyph>
<glyph name="quotedblleft" format="2">
	<advance width="1094"/>
	<unicode hex="201C"/>
	<outline>
		<contour>
			<point x="563" y="821" type="line"/>
			<point x="926" y="821" type="line"/>
			<point x="926" y="1165" type="line"/>
			<point x="807" y="1180" type="line"/>
			<point x="930" y="1481" type="line"/>
			<point x="799" y="1481" type="line"/>
			<point x="563" y="1126" type="line"/>
		</contour>
		<contour>
			<point x="51" y="821" type="line"/>
			<point x="414" y="821" type="line"/>
			<point x="414" y="1165" type="line"/>
			<point x="295" y="1180" type="line"/>
			<point x="418" y="1481" type="line"/>
			<point x="287" y="1481" type="line"/>
			<point x="51" y="1126" type="line"/>
		</contour>
	</outline>
</glyph>
<glyph name="quotedblright" format="2">
	<advance width="1104"/>
	<unicode hex="201D"/>
	<outline>
		<contour>
			<point x="612" y="821" type="line"/>
			<point x="745" y="821" type="line"/>
			<point x="981" y="1176" type="line"/>
			<point x="981" y="1481" type="line"/>
			<point x="616" y="1481" type="line"/>
			<point x="616" y="1137" type="line"/>
			<point x="737" y="1122" type="line"/>
		</contour>
		<contour>
			<point x="102" y="821" type="line"/>
			<point x="233" y="821" type="line"/>
			<point x="469" y="1176" type="line"/>
			<point x="469" y="1481" type="line"/>
			<point x="106" y="1481" type="line"/>
			<point x="106" y="1137" type="line"/>
			<point x="225" y="1122" type="line"/>
		</contour>
	</outline>
</glyph>
<glyph name="dagger" format="2">
	<advance width="1184"/>
	<unicode hex="2020"/>
	<outline>
		<contour>
			<point x="1071" y="1047" type="line"/>
			<point x="705" y="995" type="line"/>
			<point x="768" y="1481" type="line"/>
			<point x="393" y="1481" type="line"/>
			<point x="457" y="995" type="line"/>
			<point x="92" y="1047" type="line"/>
			<point x="92" y="711" type="line"/>
			<point x="469" y="768" type="line"/>
			<point x="397" y="-330" type="line"/>
			<point x="766" y="-330" type="line"/>
			<point x="692" y="768" type="line"/>
			<point x="1071" y="711" type="line"/>
		</contour>
	</outline>
</glyph>
<glyph name="daggerdbl" format="2">
	<advance width="1184"/>
	<unicode hex="2021"/>
	<outline>
		<contour>
			<point x="696" y="725" type="line"/>
			<point x="1071" y="670" type="line"/>
			<point x="1071" y="1004" type="line"/>
			<point x="705" y="952" type="line"/>
			<point x="766" y="1481" type="line"/>
			<point x="393" y="1481" type="line"/>
			<point x="457" y="952" type="line"/>
			<point x="92" y="1004" type="line"/>
			<point x="92" y="670" type="line"/>
			<point x="465" y="725" type="line"/>
			<point x="465" y="344" type="line"/>
			<point x="92" y="399" type="line"/>
			<point x="92" y="63" type="line"/>
			<point x="459" y="117" type="line"/>
			<point x="393" y="-330" type="line"/>
			<point x="768" y="-330" type="line"/>
			<point x="702" y="117" type="line"/>
			<point x="1071" y="63" type="line"/>
			<point x="1071" y="399" type="line"/>
			<point x="696" y="344" type="line"/>
		</contour>
	</outline>
</glyph>
<glyph name="bullet" format="2">
	<advance width="791"/>
	<unicode hex="2022"/>
	<outline>
		<contour>
			<point x="379" y="444" type="curve" smooth="yes"/>
			<point x="549" y="444"/>
			<point x="688" y="584"/>
			<point x="688" y="754" type="curve" smooth="yes"/>
			<point x="688" y="922"/>
			<point x="549" y="1061"/>
			<point x="379" y="1061" type="curve" smooth="yes"/>
			<point x="209" y="1061"/>
			<point x="72" y="922"/>
			<point x="72" y="754" type="curve" smooth="yes"/>
			<point x="72" y="584"/>
			<point x="209" y="444"/>
		</contour>
	</outline>
</glyph>
<glyph name="perthousand" format="2">
	<advance width="2860"/>
	<unicode hex="2030"/>
	<outline>
		<contour>
			<point x="479" y="1503" type="curve" smooth="yes"/>
			<point x="258" y="1503"/>
			<point x="82" y="1298"/>
			<point x="82" y="1079" type="curve" smooth="yes"/>
			<point x="82" y="864"/>
			<point x="254" y="668"/>
			<point x="479" y="668" type="curve" smooth="yes"/>
			<point x="702" y="668"/>
			<point x="872" y="864"/>
			<point x="872" y="1079" type="curve" smooth="yes"/>
			<point x="872" y="1298"/>
			<point x="698" y="1503"/>
		</contour>
		<contour>
			<point x="477" y="862" type="curve" smooth="yes"/>
			<point x="395" y="862"/>
			<point x="371" y="936"/>
			<point x="371" y="1079" type="curve" smooth="yes"/>
			<point x="371" y="1229"/>
			<point x="397" y="1311"/>
			<point x="477" y="1311" type="curve" smooth="yes"/>
			<point x="557" y="1311"/>
			<point x="584" y="1231"/>
			<point x="584" y="1079" type="curve" smooth="yes"/>
			<point x="584" y="936"/>
			<point x="561" y="862"/>
		</contour>
		<contour>
			<point x="1491" y="817" type="curve" smooth="yes"/>
			<point x="1270" y="817"/>
			<point x="1094" y="610"/>
			<point x="1094" y="393" type="curve" smooth="yes"/>
			<point x="1094" y="178"/>
			<point x="1266" y="-20"/>
			<point x="1491" y="-20" type="curve" smooth="yes"/>
			<point x="1716" y="-20"/>
			<point x="1886" y="178"/>
			<point x="1886" y="393" type="curve" smooth="yes"/>
			<point x="1886" y="610"/>
			<point x="1712" y="817"/>
		</contour>
		<contour>
			<point x="1489" y="176" type="curve" smooth="yes"/>
			<point x="1407" y="176"/>
			<point x="1384" y="250"/>
			<point x="1384" y="391" type="curve" smooth="yes"/>
			<point x="1384" y="541"/>
			<point x="1409" y="623"/>
			<point x="1489" y="623" type="curve" smooth="yes"/>
			<point x="1569" y="623"/>
			<point x="1595" y="543"/>
			<point x="1595" y="391" type="curve" smooth="yes"/>
			<point x="1595" y="250"/>
			<point x="1573" y="176"/>
		</contour>
		<contour>
			<point x="2363" y="817" type="curve" smooth="yes"/>
			<point x="2140" y="817"/>
			<point x="1966" y="610"/>
			<point x="1966" y="393" type="curve" smooth="yes"/>
			<point x="1966" y="178"/>
			<point x="2136" y="-20"/>
			<point x="2363" y="-20" type="curve" smooth="yes"/>
			<point x="2587" y="-20"/>
			<point x="2757" y="178"/>
			<point x="2757" y="393" type="curve" smooth="yes"/>
			<point x="2757" y="610"/>
			<point x="2583" y="817"/>
		</contour>
		<contour>
			<point x="2361" y="176" type="curve" smooth="yes"/>
			<point x="2279" y="176"/>
			<point x="2255" y="250"/>
			<point x="2255" y="391" type="curve" smooth="yes"/>
			<point x="2255" y="541"/>
			<point x="2281" y="623"/>
			<point x="2361" y="623" type="curve" smooth="yes"/>
			<point x="2441" y="623"/>
			<point x="2466" y="543"/>
			<point x="2466" y="391" type="curve" smooth="yes"/>
			<point x="2466" y="250"/>
			<point x="2445" y="176"/>
		</contour>
		<component base="fraction" xOffset="776"/>
	</outline>
</glyph>
<glyph name="guilsinglleft" format="1">
  <advance width="674"/>
  <unicode hex="2039"/>
  <outline>
    <contour>
      <point x="406" y="502" type="line"/>
      <point x="534" y="902" type="line"/>
      <point x="332" y="902" type="line"/>
      <point x="120" y="502" type="line"/>
      <point x="334" y="118" type="line"/>
      <point x="534" y="118" type="line"/>
    </contour>
  </outline>
</glyph>
<glyph name="guilsinglright" format="1">
  <advance width="674"/>
  <unicode hex="203A"/>
  <outline>
    <contour>
      <point x="248" y="502" type="line"/>
      <point x="120" y="118" type="line"/>
      <point x="320" y="118" type="line"/>
      <point x="534" y="502" type="line"/>
      <point x="322" y="902" type="line"/>
      <point x="120" y="902" type="line"/>
    </contour>
  </outline>
</glyph>
<glyph name="fraction" format="1">
  <advance width="534"/>
  <unicode hex="2044"/>
  <outline>
    <contour>
      <point x="844" y="1462" type="line"/>
      <point x="634" y="1462" type="line"/>
      <point x="-340" y="-4" type="line"/>
      <point x="-128" y="-8" type="line"/>
    </contour>
  </outline>
</glyph>
<glyph name="colonsign" format="2">
	<advance width="1490"/>
	<unicode hex="20A1"/>
	<outline>
		<contour>
			<point x="744" y="1560" type="line"/>
			<point x="424" y="-122" type="line"/>
			<point x="578" y="-122" type="line"/>
			<point x="898" y="1560" type="line"/>
		</contour>
		<contour>
			<point x="988" y="1560" type="line"/>
			<point x="668" y="-122" type="line"/>
			<point x="822" y="-122" type="line"/>
			<point x="1142" y="1560" type="line"/>
		</contour>
		<component base="C"/>
	</outline>
</glyph>
<glyph name="franc" format="2">
	<advance width="1309"/>
	<unicode hex="20A3"/>
	<outline>
		<contour>
			<point x="842" y="420" type="line"/>
			<point x="-61" y="420" type="line"/>
			<point x="-61" y="217" type="line"/>
			<point x="842" y="217" type="line"/>
		</contour>
		<contour>
			<point x="111" y="1481" type="line"/>
			<point x="111" y="0" type="line"/>
			<point x="563" y="0" type="line"/>
			<point x="563" y="571" type="line"/>
			<point x="1004" y="571" type="line"/>
			<point x="1004" y="889" type="line"/>
			<point x="563" y="889" type="line"/>
			<point x="563" y="1155" type="line"/>
			<point x="1245" y="1155" type="line"/>
			<point x="1247" y="1481" type="line"/>
		</contour>
	</outline>
</glyph>
<glyph name="lira" format="2">
	<advance width="1393"/>
	<unicode hex="20A4"/>
	<outline>
		<contour>
			<point x="1321" y="422" type="curve"/>
			<point x="987" y="487" type="line"/>
			<point x="952" y="373"/>
			<point x="897" y="328"/>
			<point x="784" y="328" type="curve"/>
			<point x="573" y="328" type="line"/>
			<point x="637" y="369"/>
			<point x="682" y="424"/>
			<point x="707" y="489" type="curve"/>
			<point x="934" y="489" type="line"/>
			<point x="934" y="690" type="line"/>
			<point x="719" y="690" type="line"/>
			<point x="711" y="788" type="line"/>
			<point x="934" y="788" type="line"/>
			<point x="934" y="991" type="line"/>
			<point x="700" y="991" type="line" smooth="yes"/>
			<point x="686" y="991"/>
			<point x="678" y="999"/>
			<point x="676" y="1016" type="curve" smooth="yes"/>
			<point x="674" y="1036"/>
			<point x="672" y="1055"/>
			<point x="672" y="1071" type="curve" smooth="yes"/>
			<point x="672" y="1149"/>
			<point x="709" y="1194"/>
			<point x="770" y="1194" type="curve" smooth="yes"/>
			<point x="840" y="1194"/>
			<point x="870" y="1130"/>
			<point x="895" y="1063" type="curve"/>
			<point x="1241" y="1161" type="line"/>
			<point x="1141" y="1405"/>
			<point x="905" y="1501"/>
			<point x="707" y="1501" type="curve" smooth="yes"/>
			<point x="436" y="1501"/>
			<point x="186" y="1364"/>
			<point x="207" y="1090" type="curve"/>
			<point x="213" y="991" type="line"/>
			<point x="53" y="991" type="line"/>
			<point x="53" y="788" type="line"/>
			<point x="242" y="788" type="line"/>
			<point x="254" y="690" type="line"/>
			<point x="53" y="690" type="line"/>
			<point x="53" y="489" type="line"/>
			<point x="262" y="489" type="line" smooth="yes"/>
			<point x="274" y="489"/>
			<point x="281" y="485"/>
			<point x="281" y="473" type="curve" smooth="yes"/>
			<point x="281" y="451"/>
			<point x="279" y="432"/>
			<point x="272" y="416" type="curve" smooth="yes"/>
			<point x="252" y="352"/>
			<point x="195" y="326"/>
			<point x="115" y="326" type="curve" smooth="yes"/>
			<point x="51" y="326" type="line"/>
			<point x="51" y="0" type="line"/>
			<point x="817" y="0" type="line" smooth="yes"/>
			<point x="1071" y="0"/>
			<point x="1260" y="150"/>
		</contour>
	</outline>
</glyph>
<glyph name="naira" format="1">
  <advance width="1640"/>
  <unicode hex="20A6"/>
  <outline>
    <contour>
      <point x="1600" y="1064" type="line"/>
      <point x="20" y="1064" type="line"/>
      <point x="20" y="888" type="line"/>
      <point x="1600" y="888" type="line"/>
    </contour>
    <contour>
      <point x="1600" y="596" type="line"/>
      <point x="20" y="596" type="line"/>
      <point x="20" y="420" type="line"/>
      <point x="1600" y="420" type="line"/>
    </contour>
    <component base="N" xOffset="94"/>
  </outline>
</glyph>
<glyph name="won" format="1">
  <advance width="2400"/>
  <unicode hex="20A9"/>
  <outline>
    <contour>
      <point x="2360" y="1318" type="line"/>
      <point x="20" y="1318" type="line"/>
      <point x="20" y="1122" type="line"/>
      <point x="2360" y="1122" type="line"/>
    </contour>
    <contour>
      <point x="2360" y="1006" type="line"/>
      <point x="20" y="1006" type="line"/>
      <point x="20" y="810" type="line"/>
      <point x="2360" y="810" type="line"/>
    </contour>
    <component base="W" xOffset="198"/>
  </outline>
</glyph>
<glyph name="dong" format="2">
	<advance width="1149"/>
	<unicode hex="20AB"/>
	<outline>
		<contour>
			<point x="659" y="272" type="line"/>
			<point x="985" y="272" type="line"/>
			<point x="985" y="1481" type="line"/>
			<point x="655" y="1481" type="line"/>
			<point x="655" y="1090" type="line" smooth="yes"/>
			<point x="655" y="1065"/>
			<point x="641" y="1065"/>
			<point x="623" y="1077" type="curve" smooth="yes"/>
			<point x="557" y="1143"/>
			<point x="494" y="1161"/>
			<point x="420" y="1161" type="curve" smooth="yes"/>
			<point x="238" y="1161"/>
			<point x="72" y="983"/>
			<point x="72" y="705" type="curve" smooth="yes"/>
			<point x="72" y="408"/>
			<point x="209" y="256"/>
			<point x="403" y="256" type="curve" smooth="yes"/>
			<point x="518" y="256"/>
			<point x="588" y="295"/>
			<point x="659" y="371" type="curve"/>
		</contour>
		<contour>
			<point x="653" y="895" type="curve"/>
			<point x="653" y="563" type="line" smooth="yes"/>
			<point x="653" y="498"/>
			<point x="604" y="453"/>
			<point x="539" y="453" type="curve" smooth="yes"/>
			<point x="453" y="453"/>
			<point x="406" y="518"/>
			<point x="406" y="707" type="curve" smooth="yes"/>
			<point x="406" y="899"/>
			<point x="461" y="958"/>
			<point x="539" y="958" type="curve" smooth="yes"/>
			<point x="590" y="958"/>
			<point x="618" y="936"/>
		</contour>
		<contour>
			<point x="1108" y="1380" type="line"/>
			<point x="461" y="1380" type="line"/>
			<point x="461" y="1221" type="line"/>
			<point x="1108" y="1221" type="line"/>
		</contour>
		<contour>
			<point x="985" y="178" type="line"/>
			<point x="135" y="178" type="line"/>
			<point x="135" y="0" type="line"/>
			<point x="985" y="0" type="line"/>
		</contour>
	</outline>
</glyph>
<glyph name="euro" format="2">
	<advance width="1432"/>
	<unicode hex="20AC"/>
	<outline>
		<contour>
			<point x="823" y="-20" type="curve" smooth="yes"/>
			<point x="1042" y="-20"/>
			<point x="1233" y="96"/>
			<point x="1343" y="244" type="curve"/>
			<point x="1133" y="463" type="line"/>
			<point x="1085" y="389"/>
			<point x="979" y="307"/>
			<point x="877" y="307" type="curve" smooth="yes"/>
			<point x="752" y="307"/>
			<point x="633" y="424"/>
			<point x="633" y="754" type="curve" smooth="yes"/>
			<point x="633" y="1079"/>
			<point x="729" y="1194"/>
			<point x="864" y="1194" type="curve" smooth="yes"/>
			<point x="965" y="1194"/>
			<point x="1022" y="1124"/>
			<point x="1077" y="1057" type="curve"/>
			<point x="1350" y="1249" type="line"/>
			<point x="1239" y="1403"/>
			<point x="1051" y="1501"/>
			<point x="827" y="1501" type="curve" smooth="yes"/>
			<point x="449" y="1501"/>
			<point x="174" y="1210"/>
			<point x="174" y="760" type="curve" smooth="yes"/>
			<point x="174" y="309"/>
			<point x="449" y="-20"/>
		</contour>
		<contour>
			<point x="942" y="1010" type="line"/>
			<point x="20" y="1010" type="line"/>
			<point x="20" y="809" type="line"/>
			<point x="942" y="809" type="line"/>
		</contour>
		<contour>
			<point x="942" y="672" type="line"/>
			<point x="20" y="672" type="line"/>
			<point x="20" y="469" type="line"/>
			<point x="942" y="469" type="line"/>
		</contour>
	</outline>
</glyph>
<glyph name="rupeeIndian" format="2">
	<advance width="1425"/>
	<unicode hex="20B9"/>
	<outline>
		<contour>
			<point x="61" y="891" type="line"/>
			<point x="61" y="612" type="line"/>
			<point x="502" y="612" type="line"/>
			<point x="715" y="0" type="line"/>
			<point x="1206" y="0" type="line"/>
			<point x="928" y="647" type="line" smooth="yes"/>
			<point x="922" y="664"/>
			<point x="922" y="680"/>
			<point x="934" y="684" type="curve" smooth="yes"/>
			<point x="1087" y="745"/>
			<point x="1196" y="887"/>
			<point x="1196" y="1069" type="curve" smooth="yes"/>
			<point x="1196" y="1327"/>
			<point x="971" y="1481"/>
			<point x="588" y="1481" type="curve" smooth="yes"/>
			<point x="61" y="1481" type="line"/>
			<point x="61" y="1286" type="line"/>
			<point x="518" y="1286" type="line" smooth="yes"/>
			<point x="649" y="1286"/>
			<point x="727" y="1227"/>
			<point x="727" y="1083" type="curve" smooth="yes"/>
			<point x="727" y="954"/>
			<point x="672" y="891"/>
			<point x="528" y="891" type="curve" smooth="yes"/>
		</contour>
		<contour>
			<point x="1364" y="1481" type="line"/>
			<point x="61" y="1481" type="line"/>
			<point x="61" y="1300" type="line"/>
			<point x="1364" y="1300" type="line"/>
		</contour>
		<contour>
			<point x="1364" y="1180" type="line"/>
			<point x="61" y="1180" type="line"/>
			<point x="61" y="999" type="line"/>
			<point x="1364" y="999" type="line"/>
		</contour>
	</outline>
</glyph>
<glyph name="liraTurkish" format="2">
	<advance width="1507"/>
	<unicode hex="20BA"/>
	<outline>
		<contour>
			<point x="631" y="0" type="line" smooth="yes"/>
			<point x="1149" y="0"/>
			<point x="1360" y="272"/>
			<point x="1466" y="555" type="curve"/>
			<point x="1120" y="627" type="line"/>
			<point x="1053" y="444"/>
			<point x="936" y="334"/>
			<point x="809" y="328" type="curve" smooth="yes"/>
			<point x="762" y="328" type="line"/>
			<point x="762" y="1481" type="line"/>
			<point x="307" y="1481" type="line"/>
			<point x="307" y="0" type="line"/>
		</contour>
		<contour>
			<point x="983" y="1231" type="line"/>
			<point x="31" y="885" type="line"/>
			<point x="100" y="694" type="line"/>
			<point x="1053" y="1042" type="line"/>
		</contour>
		<contour>
			<point x="1022" y="913" type="line"/>
			<point x="72" y="567" type="line"/>
			<point x="141" y="377" type="line"/>
			<point x="1090" y="723" type="line"/>
		</contour>
	</outline>
</glyph>
<glyph name="literSign" format="2">
	<advance width="1286"/>
	<unicode hex="2113"/>
	<outline>
		<contour>
			<point x="686" y="-20" type="curve" smooth="yes"/>
			<point x="1036" y="-20"/>
			<point x="1175" y="212"/>
			<point x="1210" y="309" type="curve"/>
			<point x="1087" y="440" type="line"/>
			<point x="982" y="327"/>
			<point x="885" y="268"/>
			<point x="784" y="268" type="curve" smooth="yes"/>
			<point x="647" y="268"/>
			<point x="621" y="325"/>
			<point x="621" y="469" type="curve"/>
			<point x="872" y="666"/>
			<point x="1092" y="836"/>
			<point x="1092" y="1137" type="curve" smooth="yes"/>
			<point x="1092" y="1333"/>
			<point x="999" y="1501"/>
			<point x="709" y="1501" type="curve" smooth="yes"/>
			<point x="412" y="1501"/>
			<point x="213" y="1323"/>
			<point x="213" y="963" type="curve" smooth="yes"/>
			<point x="213" y="563" type="line"/>
			<point x="41" y="432" type="line"/>
			<point x="123" y="223" type="line"/>
			<point x="217" y="287" type="line"/>
			<point x="275" y="80"/>
			<point x="419" y="-20"/>
		</contour>
		<contour>
			<point x="621" y="772" type="curve"/>
			<point x="621" y="997" type="line" smooth="yes"/>
			<point x="621" y="1221"/>
			<point x="674" y="1278"/>
			<point x="743" y="1278" type="curve" smooth="yes"/>
			<point x="811" y="1278"/>
			<point x="838" y="1227"/>
			<point x="838" y="1153" type="curve" smooth="yes"/>
			<point x="838" y="1024"/>
			<point x="760" y="907"/>
		</contour>
	</outline>
</glyph>
<glyph name="published" format="2">
	<advance width="1726"/>
	<unicode hex="2117"/>
	<outline>
		<contour>
			<point x="852" y="-20" type="curve" smooth="yes"/>
			<point x="1272" y="-20"/>
			<point x="1614" y="317"/>
			<point x="1614" y="741" type="curve" smooth="yes"/>
			<point x="1614" y="1159"/>
			<point x="1272" y="1501"/>
			<point x="852" y="1501" type="curve" smooth="yes"/>
			<point x="432" y="1501"/>
			<point x="92" y="1159"/>
			<point x="92" y="741" type="curve" smooth="yes"/>
			<point x="92" y="317"/>
			<point x="432" y="-20"/>
		</contour>
		<contour>
			<point x="852" y="182" type="curve" smooth="yes"/>
			<point x="522" y="182"/>
			<point x="315" y="399"/>
			<point x="315" y="741" type="curve" smooth="yes"/>
			<point x="315" y="1079"/>
			<point x="522" y="1303"/>
			<point x="852" y="1303" type="curve" smooth="yes"/>
			<point x="1178" y="1303"/>
			<point x="1391" y="1079"/>
			<point x="1391" y="741" type="curve" smooth="yes"/>
			<point x="1391" y="399"/>
			<point x="1178" y="182"/>
		</contour>
		<contour>
			<point x="1249" y="862" type="curve" smooth="yes"/>
			<point x="1249" y="1051"/>
			<point x="1104" y="1135"/>
			<point x="930" y="1135" type="curve" smooth="yes"/>
			<point x="545" y="1135" type="line"/>
			<point x="545" y="348" type="line"/>
			<point x="786" y="348" type="line"/>
			<point x="786" y="600" type="line"/>
			<point x="956" y="600" type="line" smooth="yes"/>
			<point x="1130" y="600"/>
			<point x="1249" y="692"/>
		</contour>
		<contour>
			<point x="1004" y="866" type="curve" smooth="yes"/>
			<point x="1004" y="805"/>
			<point x="973" y="768"/>
			<point x="922" y="768" type="curve" smooth="yes"/>
			<point x="786" y="768" type="line"/>
			<point x="786" y="963" type="line"/>
			<point x="915" y="963" type="line" smooth="yes"/>
			<point x="963" y="963"/>
			<point x="1004" y="934"/>
		</contour>
	</outline>
</glyph>
<glyph name="Ohm" format="2">
	<advance width="1575"/>
	<unicode hex="2126"/>
	<outline>
		<contour>
			<point x="795" y="1225" type="curve" smooth="yes"/>
			<point x="934" y="1225"/>
			<point x="1053" y="1110"/>
			<point x="1053" y="809" type="curve" smooth="yes"/>
			<point x="1053" y="530"/>
			<point x="944" y="367"/>
			<point x="836" y="287" type="curve"/>
			<point x="836" y="0" type="line"/>
			<point x="1491" y="0" type="line"/>
			<point x="1491" y="336" type="line"/>
			<point x="1233" y="336" type="line"/>
			<point x="1411" y="489"/>
			<point x="1503" y="649"/>
			<point x="1503" y="858" type="curve" smooth="yes"/>
			<point x="1503" y="1161"/>
			<point x="1272" y="1540"/>
			<point x="795" y="1540" type="curve" smooth="yes"/>
			<point x="336" y="1540"/>
			<point x="72" y="1192"/>
			<point x="72" y="856" type="curve" smooth="yes"/>
			<point x="72" y="623"/>
			<point x="201" y="444"/>
			<point x="332" y="336" type="curve"/>
			<point x="84" y="336" type="line"/>
			<point x="84" y="0" type="line"/>
			<point x="741" y="0" type="line"/>
			<point x="741" y="287" type="line"/>
			<point x="625" y="369"/>
			<point x="522" y="551"/>
			<point x="522" y="799" type="curve" smooth="yes"/>
			<point x="522" y="1122"/>
			<point x="662" y="1225"/>
		</contour>
	</outline>
</glyph>
<glyph name="partialdiff" format="2">
	<advance width="1268"/>
	<unicode hex="2202"/>
	<outline>
		<contour>
			<point x="207" y="1133" type="line"/>
			<point x="264" y="1169"/>
			<point x="344" y="1219"/>
			<point x="475" y="1219" type="curve" smooth="yes"/>
			<point x="745" y="1219"/>
			<point x="836" y="1004"/>
			<point x="836" y="899" type="curve" smooth="yes"/>
			<point x="836" y="877"/>
			<point x="831" y="856"/>
			<point x="799" y="883" type="curve" smooth="yes"/>
			<point x="743" y="928"/>
			<point x="680" y="975"/>
			<point x="545" y="975" type="curve" smooth="yes"/>
			<point x="250" y="975"/>
			<point x="72" y="752"/>
			<point x="72" y="475" type="curve" smooth="yes"/>
			<point x="72" y="195"/>
			<point x="258" y="-20"/>
			<point x="596" y="-20" type="curve" smooth="yes"/>
			<point x="997" y="-20"/>
			<point x="1186" y="283"/>
			<point x="1186" y="725" type="curve" smooth="yes"/>
			<point x="1186" y="1255"/>
			<point x="911" y="1501"/>
			<point x="539" y="1501" type="curve" smooth="yes"/>
			<point x="313" y="1501"/>
			<point x="158" y="1407"/>
			<point x="102" y="1362" type="curve"/>
		</contour>
		<contour>
			<point x="590" y="252" type="line" smooth="yes"/>
			<point x="506" y="252"/>
			<point x="442" y="317"/>
			<point x="442" y="459" type="curve" smooth="yes"/>
			<point x="442" y="606"/>
			<point x="514" y="721"/>
			<point x="623" y="721" type="curve" smooth="yes"/>
			<point x="700" y="721"/>
			<point x="758" y="666"/>
			<point x="786" y="612" type="curve" smooth="yes"/>
			<point x="801" y="590"/>
			<point x="803" y="580"/>
			<point x="799" y="541" type="curve" smooth="yes"/>
			<point x="780" y="371"/>
			<point x="713" y="252"/>
			<point x="592" y="252" type="curve" smooth="yes"/>
		</contour>
	</outline>
</glyph>
<glyph name="emptyset" format="2">
	<advance width="1257"/>
	<unicode hex="2205"/>
	<outline>
		<contour>
			<point x="621" y="252" type="curve" smooth="yes"/>
			<point x="893" y="252"/>
			<point x="1114" y="473"/>
			<point x="1114" y="745" type="curve" smooth="yes"/>
			<point x="1114" y="1016"/>
			<point x="893" y="1237"/>
			<point x="621" y="1237" type="curve" smooth="yes"/>
			<point x="350" y="1237"/>
			<point x="129" y="1016"/>
			<point x="129" y="745" type="curve" smooth="yes"/>
			<point x="129" y="473"/>
			<point x="350" y="252"/>
		</contour>
		<contour>
			<point x="621" y="420" type="curve" smooth="yes"/>
			<point x="442" y="420"/>
			<point x="297" y="565"/>
			<point x="297" y="745" type="curve" smooth="yes"/>
			<point x="297" y="922"/>
			<point x="442" y="1069"/>
			<point x="621" y="1069" type="curve" smooth="yes"/>
			<point x="801" y="1069"/>
			<point x="946" y="922"/>
			<point x="946" y="745" type="curve" smooth="yes"/>
			<point x="946" y="565"/>
			<point x="801" y="420"/>
		</contour>
		<contour>
			<point x="1165" y="1130" type="line"/>
			<point x="1049" y="1255" type="line"/>
			<point x="61" y="342" type="line"/>
			<point x="182" y="215" type="line"/>
		</contour>
	</outline>
</glyph>
<glyph name="increment" format="2">
	<advance width="1704"/>
	<unicode hex="2206"/>
	<guideline x="106" y="400" angle="239.873"/>
	<guideline x="887" y="0" angle="301.3682"/>
	<guideline x="426" y="290" angle="90"/>
	<outline>
		<contour>
			<point x="31" y="0" type="line"/>
			<point x="1673" y="0" type="line"/>
			<point x="872" y="1481" type="line"/>
		</contour>
		<contour>
			<point x="606" y="326" type="line"/>
			<point x="872" y="791" type="line"/>
			<point x="1116" y="326" type="line"/>
		</contour>
	</outline>
</glyph>
<glyph name="product" format="2">
	<advance width="1507"/>
	<unicode hex="220F"/>
	<outline>
		<contour>
			<point x="1446" y="1481" type="line"/>
			<point x="41" y="1481" type="line"/>
			<point x="41" y="1159" type="line"/>
			<point x="207" y="1159" type="line"/>
			<point x="207" y="0" type="line"/>
			<point x="614" y="0" type="line"/>
			<point x="614" y="1159" type="line"/>
			<point x="870" y="1159" type="line"/>
			<point x="870" y="0" type="line"/>
			<point x="1278" y="0" type="line"/>
			<point x="1278" y="1159" type="line"/>
			<point x="1446" y="1159" type="line"/>
		</contour>
	</outline>
</glyph>
<glyph name="summation" format="2">
	<advance width="1253"/>
	<unicode hex="2211"/>
	<outline>
		<contour>
			<point x="1171" y="0" type="line"/>
			<point x="1171" y="332" type="line"/>
			<point x="580" y="332" type="line"/>
			<point x="969" y="778" type="line"/>
			<point x="623" y="1167" type="line"/>
			<point x="1135" y="1167" type="line"/>
			<point x="1135" y="1481" type="line"/>
			<point x="82" y="1481" type="line"/>
			<point x="82" y="1219" type="line"/>
			<point x="475" y="731" type="line"/>
			<point x="61" y="233" type="line"/>
			<point x="61" y="0" type="line"/>
		</contour>
	</outline>
</glyph>
<glyph name="minus" format="2">
	<advance width="1268"/>
	<unicode hex="2212"/>
	<outline>
		<contour>
			<point x="1155" y="887" type="line"/>
			<point x="113" y="887" type="line"/>
			<point x="113" y="604" type="line"/>
			<point x="1155" y="604" type="line"/>
		</contour>
	</outline>
</glyph>
<glyph name="bulletoperator" format="2">
	<advance width="793"/>
	<unicode hex="2219"/>
	<outline>
		<contour>
			<point x="381" y="563" type="curve" smooth="yes"/>
			<point x="483" y="563"/>
			<point x="567" y="647"/>
			<point x="567" y="750" type="curve" smooth="yes"/>
			<point x="567" y="852"/>
			<point x="483" y="936"/>
			<point x="381" y="936" type="curve" smooth="yes"/>
			<point x="279" y="936"/>
			<point x="195" y="852"/>
			<point x="195" y="750" type="curve" smooth="yes"/>
			<point x="195" y="647"/>
			<point x="279" y="563"/>
		</contour>
	</outline>
</glyph>
<glyph name="radical" format="2">
	<advance width="1501"/>
	<unicode hex="221A"/>
	<outline>
		<contour>
			<point x="1491" y="1692" type="line"/>
			<point x="1163" y="1692" type="line"/>
			<point x="754" y="25" type="line"/>
			<point x="487" y="766" type="line"/>
			<point x="31" y="604" type="line"/>
			<point x="109" y="391" type="line"/>
			<point x="276" y="453" type="line"/>
			<point x="561" y="-330" type="line"/>
			<point x="958" y="-330" type="line"/>
		</contour>
	</outline>
</glyph>
<glyph name="infinity" format="2">
	<advance width="1735"/>
	<unicode hex="221E"/>
	<outline>
		<contour>
			<point x="1622" y="563" type="line" smooth="yes"/>
			<point x="1622" y="795"/>
			<point x="1464" y="942"/>
			<point x="1255" y="942" type="curve" smooth="yes"/>
			<point x="1077" y="942"/>
			<point x="977" y="831"/>
			<point x="899" y="743" type="curve" smooth="yes"/>
			<point x="877" y="719"/>
			<point x="868" y="717"/>
			<point x="846" y="743" type="curve" smooth="yes"/>
			<point x="743" y="854"/>
			<point x="662" y="942"/>
			<point x="489" y="942" type="curve" smooth="yes"/>
			<point x="260" y="942"/>
			<point x="92" y="784"/>
			<point x="92" y="549" type="curve" smooth="yes"/>
			<point x="92" y="311"/>
			<point x="264" y="158"/>
			<point x="463" y="158" type="curve" smooth="yes"/>
			<point x="678" y="158"/>
			<point x="797" y="332"/>
			<point x="838" y="373" type="curve" smooth="yes"/>
			<point x="856" y="395"/>
			<point x="862" y="391"/>
			<point x="879" y="373" type="curve" smooth="yes"/>
			<point x="979" y="256"/>
			<point x="1067" y="158"/>
			<point x="1237" y="158" type="curve" smooth="yes"/>
			<point x="1444" y="158"/>
			<point x="1622" y="305"/>
			<point x="1622" y="559" type="curve" smooth="yes"/>
		</contour>
		<contour>
			<point x="487" y="389" type="line" smooth="yes"/>
			<point x="401" y="389"/>
			<point x="334" y="457"/>
			<point x="334" y="555" type="curve" smooth="yes"/>
			<point x="334" y="649"/>
			<point x="395" y="717"/>
			<point x="485" y="717" type="curve" smooth="yes"/>
			<point x="563" y="717"/>
			<point x="623" y="666"/>
			<point x="680" y="582" type="curve" smooth="yes"/>
			<point x="700" y="547"/>
			<point x="702" y="541"/>
			<point x="682" y="512" type="curve" smooth="yes"/>
			<point x="643" y="459"/>
			<point x="569" y="389"/>
			<point x="492" y="389" type="curve" smooth="yes"/>
		</contour>
		<contour>
			<point x="1235" y="717" type="line" smooth="yes"/>
			<point x="1325" y="717"/>
			<point x="1380" y="639"/>
			<point x="1380" y="553" type="curve" smooth="yes"/>
			<point x="1380" y="475"/>
			<point x="1331" y="389"/>
			<point x="1241" y="389" type="curve" smooth="yes"/>
			<point x="1200" y="389"/>
			<point x="1122" y="406"/>
			<point x="1038" y="520" type="curve" smooth="yes"/>
			<point x="1024" y="539"/>
			<point x="1016" y="561"/>
			<point x="1038" y="588" type="curve" smooth="yes"/>
			<point x="1090" y="647"/>
			<point x="1153" y="717"/>
			<point x="1233" y="717" type="curve" smooth="yes"/>
		</contour>
	</outline>
</glyph>
<glyph name="integral" format="2">
	<advance width="1014"/>
	<unicode hex="222B"/>
	<outline>
		<contour>
			<point x="299" y="1128" type="curve" smooth="yes"/>
			<point x="299" y="924"/>
			<point x="334" y="494"/>
			<point x="334" y="190" type="curve" smooth="yes"/>
			<point x="334" y="27"/>
			<point x="303" y="-16"/>
			<point x="236" y="-16" type="curve" smooth="yes"/>
			<point x="178" y="-16"/>
			<point x="135" y="2"/>
			<point x="109" y="16" type="curve"/>
			<point x="31" y="-303" type="line"/>
			<point x="74" y="-328"/>
			<point x="152" y="-352"/>
			<point x="256" y="-352" type="curve" smooth="yes"/>
			<point x="561" y="-352"/>
			<point x="690" y="-156"/>
			<point x="690" y="248" type="curve" smooth="yes"/>
			<point x="690" y="455"/>
			<point x="657" y="856"/>
			<point x="657" y="1176" type="curve" smooth="yes"/>
			<point x="657" y="1329"/>
			<point x="686" y="1376"/>
			<point x="756" y="1376" type="curve" smooth="yes"/>
			<point x="815" y="1376"/>
			<point x="858" y="1356"/>
			<point x="889" y="1341" type="curve"/>
			<point x="963" y="1661" type="line"/>
			<point x="924" y="1686"/>
			<point x="842" y="1712"/>
			<point x="733" y="1712" type="curve" smooth="yes"/>
			<point x="424" y="1712"/>
			<point x="299" y="1518"/>
		</contour>
	</outline>
</glyph>
<glyph name="approxequal" format="2">
	<advance width="1315"/>
	<unicode hex="2248"/>
	<outline>
		<contour>
			<point x="1202" y="944" type="curve"/>
			<point x="1087" y="1128" type="line"/>
			<point x="1034" y="1032"/>
			<point x="952" y="956"/>
			<point x="858" y="956" type="curve" smooth="yes"/>
			<point x="733" y="956"/>
			<point x="655" y="1098"/>
			<point x="479" y="1098" type="curve" smooth="yes"/>
			<point x="336" y="1098"/>
			<point x="233" y="1004"/>
			<point x="113" y="874" type="curve"/>
			<point x="225" y="686" type="line"/>
			<point x="299" y="772"/>
			<point x="369" y="858"/>
			<point x="473" y="858" type="curve" smooth="yes"/>
			<point x="608" y="858"/>
			<point x="698" y="715"/>
			<point x="866" y="715" type="curve" smooth="yes"/>
			<point x="983" y="715"/>
			<point x="1116" y="786"/>
		</contour>
		<contour>
			<point x="1202" y="492" type="curve"/>
			<point x="1087" y="676" type="line"/>
			<point x="1034" y="580"/>
			<point x="952" y="504"/>
			<point x="858" y="504" type="curve" smooth="yes"/>
			<point x="733" y="504"/>
			<point x="655" y="645"/>
			<point x="479" y="645" type="curve" smooth="yes"/>
			<point x="336" y="645"/>
			<point x="233" y="551"/>
			<point x="113" y="422" type="curve"/>
			<point x="227" y="233" type="line"/>
			<point x="297" y="317"/>
			<point x="369" y="406"/>
			<point x="473" y="406" type="curve" smooth="yes"/>
			<point x="608" y="406"/>
			<point x="698" y="262"/>
			<point x="866" y="262" type="curve" smooth="yes"/>
			<point x="983" y="262"/>
			<point x="1116" y="334"/>
		</contour>
	</outline>
</glyph>
<glyph name="notequal" format="2">
	<advance width="1268"/>
	<unicode hex="2260"/>
	<outline>
		<contour>
			<point x="963" y="1364" type="line"/>
			<point x="784" y="1364" type="line"/>
			<point x="197" y="23" type="line"/>
			<point x="383" y="23" type="line"/>
		</contour>
		<component base="equal"/>
	</outline>
</glyph>
<glyph name="lessequal" format="2">
	<advance width="1268"/>
	<unicode hex="2264"/>
	<outline>
		<contour>
			<point x="1130" y="694" type="line"/>
			<point x="537" y="911" type="line"/>
			<point x="1130" y="1135" type="line"/>
			<point x="1130" y="1464" type="line"/>
			<point x="115" y="1073" type="line"/>
			<point x="115" y="756" type="line"/>
			<point x="1130" y="362" type="line"/>
		</contour>
		<contour>
			<point x="1155" y="297" type="line"/>
			<point x="113" y="297" type="line"/>
			<point x="113" y="16" type="line"/>
			<point x="1155" y="16" type="line"/>
		</contour>
	</outline>
</glyph>
<glyph name="greaterequal" format="2">
	<advance width="1268"/>
	<unicode hex="2265"/>
	<outline>
		<contour>
			<point x="135" y="694" type="line"/>
			<point x="135" y="362" type="line"/>
			<point x="1153" y="756" type="line"/>
			<point x="1153" y="1073" type="line"/>
			<point x="135" y="1464" type="line"/>
			<point x="135" y="1135" type="line"/>
			<point x="731" y="911" type="line"/>
		</contour>
		<contour>
			<point x="113" y="297" type="line"/>
			<point x="113" y="16" type="line"/>
			<point x="1155" y="16" type="line"/>
			<point x="1155" y="297" type="line"/>
		</contour>
	</outline>
</glyph>
<glyph name="lozenge" format="2">
	<advance width="1264"/>
	<unicode hex="25CA"/>
	<outline>
		<contour>
			<point x="774" y="0" type="line"/>
			<point x="1171" y="745" type="line"/>
			<point x="784" y="1481" type="line"/>
			<point x="539" y="1481" type="line"/>
			<point x="143" y="741" type="line"/>
			<point x="530" y="0" type="line"/>
		</contour>
		<contour>
			<point x="659" y="1202" type="line"/>
			<point x="887" y="741" type="line"/>
			<point x="659" y="270" type="line"/>
			<point x="434" y="745" type="line"/>
		</contour>
	</outline>
</glyph>
<glyph name="__horn" format="1">
  <advance width="300"/>
  <outline>
    <contour>
      <point x="450" y="1278" type="curve"/>
      <point x="216" y="1278" type="line"/>
      <point x="196" y="1040"/>
      <point x="142" y="1056"/>
      <point x="0" y="1058" type="curve"/>
      <point x="0" y="880" type="line"/>
      <point x="358" y="840"/>
      <point x="446" y="952"/>
    </contour>
    <contour>
      <point x="0" y="880" type="move" name="_horn"/>
    </contour>
    <contour>
      <point x="212" y="1060" type="move" name="_topright"/>
    </contour>
    <contour>
      <point x="212" y="1060" type="move" name="topright"/>
    </contour>
  </outline>
</glyph>
<glyph name="_dot" format="2">
	<advance width="420"/>
	<outline>
		<contour>
			<point x="210" y="1140" type="curve" smooth="yes"/>
			<point x="319" y="1140"/>
			<point x="409" y="1222"/>
			<point x="409" y="1322" type="curve" smooth="yes"/>
			<point x="409" y="1423"/>
			<point x="319" y="1504"/>
			<point x="210" y="1504" type="curve" smooth="yes"/>
			<point x="98" y="1504"/>
			<point x="10" y="1423"/>
			<point x="10" y="1322" type="curve" smooth="yes"/>
			<point x="10" y="1222"/>
			<point x="98" y="1140"/>
		</contour>
	</outline>
</glyph>
<glyph name="_emdash" format="2">
	<advance width="2413"/>
	<outline>
		<contour>
			<point x="2053" y="645" type="line"/>
			<point x="360" y="645" type="line"/>
			<point x="360" y="365" type="line"/>
			<point x="2053" y="365" type="line"/>
		</contour>
	</outline>
</glyph>
<glyph name="_j-hook" format="2">
	<advance width="1229"/>
	<outline>
		<contour>
			<point x="758" y="469" type="curve" smooth="yes"/>
			<point x="758" y="651" type="line"/>
			<point x="358" y="651" type="line"/>
			<point x="358" y="571" type="line" smooth="yes"/>
			<point x="358" y="418"/>
			<point x="324" y="348"/>
			<point x="182" y="348" type="curve" smooth="yes"/>
			<point x="139" y="348"/>
			<point x="88" y="354"/>
			<point x="51" y="358" type="curve"/>
			<point x="51" y="0" type="line"/>
			<point x="113" y="-12"/>
			<point x="236" y="-20"/>
			<point x="319" y="-20" type="curve" smooth="yes"/>
			<point x="678" y="-20"/>
			<point x="758" y="141"/>
		</contour>
	</outline>
</glyph>
<glyph name=".notdef" format="1">
  <advance width="1332"/>
  <outline>
    <contour>
      <point x="1162" y="-266" type="curve"/>
      <point x="1162" y="1610" type="line" smooth="yes"/>
      <point x="1162" y="1636"/>
      <point x="1148" y="1652"/>
      <point x="1126" y="1652" type="curve" smooth="yes"/>
      <point x="208" y="1652" type="line" smooth="yes"/>
      <point x="186" y="1652"/>
      <point x="170" y="1636"/>
      <point x="170" y="1606" type="curve" smooth="yes"/>
      <point x="170" y="-274" type="line" smooth="yes"/>
      <point x="170" y="-306"/>
      <point x="182" y="-322"/>
      <point x="224" y="-322" type="curve" smooth="yes"/>
      <point x="1096" y="-322" type="line" smooth="yes"/>
      <point x="1142" y="-322"/>
      <point x="1162" y="-306"/>
    </contour>
    <contour>
      <point x="1060" y="-178" type="line"/>
      <point x="1060" y="-210"/>
      <point x="1042" y="-224"/>
      <point x="1006" y="-224" type="curve" smooth="yes"/>
      <point x="316" y="-224" type="line" smooth="yes"/>
      <point x="282" y="-224"/>
      <point x="272" y="-210"/>
      <point x="272" y="-184" type="curve" smooth="yes"/>
      <point x="272" y="1518" type="line" smooth="yes"/>
      <point x="272" y="1540"/>
      <point x="286" y="1554"/>
      <point x="304" y="1554" type="curve" smooth="yes"/>
      <point x="1030" y="1554" type="line" smooth="yes"/>
      <point x="1048" y="1554"/>
      <point x="1060" y="1540"/>
      <point x="1060" y="1520" type="curve" smooth="yes"/>
    </contour>
    <contour>
      <point x="1006" y="-268" type="line"/>
      <point x="1122" y="-258" type="line"/>
      <point x="314" y="1624" type="line"/>
      <point x="212" y="1572" type="line"/>
    </contour>
  </outline>
</glyph>
